<?xml version="1.0" encoding="UTF-8"?>
<!DOCTYPE svg PUBLIC "-//W3C//DTD SVG 1.1//EN" "http://www.w3.org/Graphics/SVG/1.1/DTD/svg11.dtd">
<!-- Creator: CorelDRAW -->
<svg xmlns="http://www.w3.org/2000/svg" xml:space="preserve" width="110.328mm" height="44.094mm" version="1.1" style="shape-rendering:geometricPrecision; text-rendering:geometricPrecision; image-rendering:optimizeQuality; fill-rule:evenodd; clip-rule:evenodd"
viewBox="0 0 10317.87 4123.68"
 xmlns:xlink="http://www.w3.org/1999/xlink"
 xmlns:xodm="http://www.corel.com/coreldraw/odm/2003">
 <defs>
  <style type="text/css">
   <![CDATA[
    .fil0 {fill:#FEFEFE;fill-rule:nonzero}
    .fil1 {fill:#E58E52;fill-rule:nonzero}
   ]]>
  </style>
 </defs>
 <g id="Layer_x0020_1">
  <metadata id="CorelCorpID_0Corel-Layer"/>
  <g id="_1401335814160">
   <g>
    <g>
     <path class="fil0" d="M1638.77 1714.55c0,214.83 -78.35,389.07 -235.06,522.71 -156.46,133.77 -361.37,200.54 -614.99,200.54 -139.58,0 -288.16,-27.33 -445.91,-81.97 -70.88,-22.94 -117.79,-34.54 -140.73,-34.54 -27.58,0 -49.36,8.63 -65.46,25.77 -15.85,17.27 -28.22,47.42 -37.12,90.73l-99.49 0 0 -846.97 99.49 0c29.52,123.72 58.51,219.99 87.12,288.68 28.86,68.43 68.3,134.55 118.57,198.47 130.16,164.7 294.86,246.92 493.84,246.92 132.61,0 237.78,-34.8 315.48,-104.65 77.58,-69.72 116.51,-164.05 116.51,-283 0,-91.38 -26.29,-165.61 -78.88,-222.7 -52.58,-56.96 -154.39,-121.15 -305.18,-192.28l-229.91 -109.8c-294.86,-141.51 -477.74,-302.6 -548.49,-483.02 -25.13,-71.14 -37.63,-146.66 -37.63,-226.82 0,-216.76 66.75,-387.65 200.53,-512.4 133.64,-124.76 317.03,-187.12 550.04,-187.12 125.78,0 259.56,26.29 401.58,78.87 68.3,23.07 116.24,34.54 143.82,34.54 31.97,0 55.29,-7.86 70.11,-23.71 15.08,-16.11 28.36,-47.04 39.69,-92.79l103.11 0 0 743.86 -96.4 0c-34.02,-111.99 -67.79,-198.72 -101.04,-260.32 -32.99,-61.86 -79.26,-122.44 -138.67,-181.97 -123.72,-127.84 -264.45,-191.76 -422.19,-191.76 -116.51,0 -208.52,30.93 -275.79,92.79 -67.4,61.6 -101.04,144.85 -101.04,250.02 0,84.53 23.84,153.1 71.66,205.68 48.07,52.58 141.89,113.28 281.46,181.97l504.16 250.02c111.99,55.03 202.72,140.73 272.18,257.23 69.72,116.51 104.65,238.94 104.65,367.04zm0 0z"/>
    </g>
   </g>
  </g>
  <g id="_1401335821744">
   <g>
    <g>
     <path class="fil0" d="M3627.8 2304.28l-212.38 24.23c-189.71,20.36 -340.62,49.74 -452.61,88.67l0 -222.7c-100.78,86.99 -186.48,146.41 -257.23,178.36 -70.89,31.97 -150.91,47.94 -240.23,47.94 -141.64,0 -253.11,-42.26 -334.56,-126.8 -81.19,-84.54 -121.66,-202.21 -121.66,-353.12l0 -863.97c0,-71.14 -10.31,-119.21 -30.93,-144.34 -20.36,-25.01 -65.98,-44.47 -137.12,-58.25l0 -82.48 644.89 0 0 1162.46c0,86.98 14.18,149.36 42.79,187.12 28.48,37.89 78.35,56.7 149.49,56.7 86.61,0 180.17,-50.26 280.94,-151.04l0 -970.16c0,-73.21 -14.3,-123.47 -42.79,-151.04 -28.61,-27.45 -85.06,-44.59 -169.6,-51.55l0 -82.48 689.23 0 0 1234.63c0,73.2 13.02,124.1 39.18,152.59 26.42,28.61 77.32,44.07 152.59,46.39l0 78.88zm0 0z"/>
    </g>
   </g>
  </g>
  <g id="_1401335823280">
   <g>
    <g>
     <path class="fil0" d="M5490.03 1553.19c0,254.01 -61.85,461.63 -185.58,622.72 -123.46,160.84 -281.2,241.25 -473.22,241.25 -75.27,0 -140.99,-14.31 -196.93,-42.79 -56.06,-28.49 -125.13,-82.74 -207.22,-162.9l0 483.54c0,114.44 18.17,193.32 54.63,236.62 36.35,43.56 107.23,67.66 212.39,72.17l0 72.17 -936.15 0 0 -82.48c82.48,-13.79 135.06,-32.74 157.74,-56.71 22.94,-24.1 34.54,-71.52 34.54,-142.27l0 -1717.64c0,-71.14 -12.11,-119.72 -36.08,-145.89 -24.1,-26.42 -73.72,-45.36 -148.98,-56.7l0 -82.48 654.68 0 0 236.62c52.58,-98.2 112.5,-169.08 179.91,-212.38 67.66,-43.3 151.69,-64.95 252.08,-64.95 189.7,0 343.44,74.23 461.36,222.69 117.8,148.46 176.82,341.65 176.82,579.42zm-507.77 47.94c0,-436.37 -86.86,-654.68 -260.32,-654.68 -78.1,0 -152.46,38.92 -223.21,116.5 -47.81,52.59 -71.65,93.7 -71.65,123.2l0 833.57c54.63,139.57 142.53,209.29 263.93,209.29 194.08,0 291.25,-209.29 291.25,-627.88zm0 0z"/>
    </g>
   </g>
  </g>
  <g id="_1401335828032">
   <g>
    <g>
     <path class="fil0" d="M7060.48 1992.4c-112.12,159.8 -216.77,271.14 -313.94,334.04 -97.31,62.89 -215.48,94.33 -354.67,94.33 -212.77,0 -383.79,-75.9 -512.92,-227.84 -129.26,-152.2 -193.83,-352.86 -193.83,-602.1 0,-251.18 65.6,-453.9 196.93,-608.29 131.57,-154.26 304.91,-231.45 520.13,-231.45 196.53,0 350.8,68.56 462.92,205.68 100.27,125.78 159.56,317.81 177.85,575.81l-863.97 0c11.33,212.78 46.65,368.32 106.19,466.53 68.69,116.51 169.34,174.75 302.08,174.75 73.2,0 138.79,-17.01 196.92,-51.03 58.38,-34.28 122.95,-93.82 193.83,-178.36l82.48 47.95zm-439.21 -586.64l0 -51.55c-6.96,-171.4 -17.27,-283.53 -30.93,-336.1 -27.2,-107.22 -89.96,-160.84 -188.16,-160.84 -84.93,0 -145.11,40.08 -180.42,120.11 -35.44,79.77 -55.42,222.57 -59.8,428.38l459.31 0zm0 0z"/>
    </g>
   </g>
  </g>
  <g id="_1401335832160">
   <g>
    <g>
     <path class="fil0" d="M8610.3 1018.11c0,66.37 -20.11,121.4 -60.31,164.96 -39.95,43.3 -91.76,64.95 -155.68,64.95 -80.16,0 -148.72,-40.98 -205.68,-123.2 -36.86,-52.58 -68.82,-78.88 -95.89,-78.88 -57.48,0 -106.71,31.97 -147.95,95.89 -40.98,63.92 -61.34,140.6 -61.34,229.91l0 647.98c0,107.22 15.21,177.59 45.88,210.84 30.93,32.98 98.97,52.96 204.14,59.8l0 82.48 -911.92 0 0 -82.48c75.26,-13.66 124.88,-33.64 148.98,-59.8 23.97,-26.42 36.08,-75.01 36.08,-145.89l0 -1007.79c0,-68.69 -12.63,-117.27 -37.63,-145.89 -25.13,-28.48 -74.23,-47.42 -147.43,-56.7l0 -82.48 647.97 0 0 281.47c80.03,-114.44 155.95,-196.66 227.85,-246.92 72.17,-50.14 150.53,-75.27 235.07,-75.27 80.03,0 146.4,25.13 198.98,75.27 52.58,50.26 78.87,114.18 78.87,191.76zm0 0z"/>
    </g>
   </g>
  </g>
  <g id="_1401335834128">
   <g>
    <g>
     <path class="fil0" d="M10317.87 2225.4c-121.02,130.29 -248.99,195.37 -384.05,195.37 -84.54,0 -147.95,-18.29 -190.22,-54.63 -42.26,-36.73 -72.55,-98.59 -90.72,-185.58 -176.3,160.19 -358.15,240.22 -545.39,240.22 -109.68,0 -200.02,-34.28 -271.15,-102.58 -70.89,-68.69 -106.19,-155.67 -106.19,-260.84 0,-146.41 76.55,-270.9 229.91,-373.74 109.54,-73.21 340.49,-163.55 692.83,-271.15l0 -250.02c0,-105.16 -22.94,-181.71 -68.56,-229.91 -45.75,-48.07 -118.95,-72.17 -219.6,-72.17 -61.85,0 -113.41,12.11 -154.65,36.08 -40.98,24.1 -61.35,54.51 -61.35,91.25 0,20.36 13.66,45.36 41.24,75.26 40.85,50.27 61.34,99.37 61.34,147.43 0,59.54 -21.65,107.61 -64.95,144.34 -43.3,36.47 -99.37,54.64 -168.06,54.64 -70.88,0 -125.64,-19.85 -164.44,-59.8 -38.92,-40.21 -58.25,-95.62 -58.25,-166.5 0,-128.1 59.28,-232.11 177.85,-311.88 118.82,-80.03 275.53,-120.11 470.14,-120.11 210.32,0 375.92,41.76 496.94,125.26 121.27,83.26 181.97,197.95 181.97,344.36l0 894.91c0,57.08 23.97,85.57 72.17,85.57 15.72,0 28.35,-4.39 37.63,-13.4l34.02 -34.55 51.55 72.17zm-668.6 -195.37l0 -497.45c-279.14,77.72 -418.58,215.99 -418.58,414.98 0,68.82 15.97,124.23 47.94,166.5 32.22,42.27 74.74,63.41 127.33,63.41 77.58,0 158.77,-49.1 243.31,-147.43zm0 0z"/>
    </g>
   </g>
  </g>
  <g id="_1401335835616">
   <g>
    <g>
     <path class="fil1" d="M1865.09 3871.09l-510.85 0 -109.8 244.86 -101.04 0 419.1 -916.56 95.36 0 419.1 916.56 -102.07 0 -109.8 -244.86zm-35.57 -78.35l-220.12 -492.31 -219.6 492.31 439.72 0zm0 0z"/>
    </g>
   </g>
  </g>
  <g id="_1401335838736">
   <g>
    <g>
     <path class="fil1" d="M2806.12 3643.23c60.06,13.15 106.45,39.05 139.19,77.85 32.61,38.91 48.98,88.92 48.98,150.01 0,78.74 -29.13,139.19 -87.12,181.46 -57.74,42.27 -143.56,63.41 -257.24,63.41l-421.16 0 0 -916.56 395.39 0c102.07,0 181.07,20.62 237.13,61.85 56.32,40.98 84.54,98.85 84.54,173.72 0,50.9 -12.37,94.08 -37.12,129.39 -24.74,35.05 -59.02,61.34 -102.58,78.87zm-480.44 -363.93l0 332.49 291.77 0c74.23,0 131.45,-14.05 171.66,-42.27 40.21,-28.49 60.31,-69.72 60.31,-123.72 0,-54.26 -20.1,-95.5 -60.31,-123.72 -40.2,-28.49 -97.43,-42.79 -171.66,-42.79l-291.77 0zm323.22 756.75c82.09,0 143.96,-13.92 185.58,-41.76 41.89,-27.84 62.89,-71.39 62.89,-130.94 0,-114.44 -82.87,-171.66 -248.47,-171.66l-323.22 0 0 344.35 323.22 0zm0 0z"/>
    </g>
   </g>
  </g>
  <g id="_1401335842576">
   <g>
    <g>
     <path class="fil1" d="M3616.2 4123.68c-90.73,0 -173.08,-20.24 -246.93,-60.83 -73.97,-40.47 -131.7,-96.01 -173.2,-166.5 -41.24,-70.75 -61.86,-150.27 -61.86,-238.67 0,-88.28 20.62,-167.67 61.86,-238.16 41.49,-70.76 99.23,-126.43 173.2,-167.03 73.85,-40.47 156.2,-60.83 246.93,-60.83 90.72,0 172.43,20.11 245.37,60.31 72.81,39.95 130.17,95.37 172.18,166.5 41.89,71.14 62.89,150.91 62.89,239.2 0,88.4 -21,168.05 -62.89,239.19 -42.01,71.14 -99.37,126.81 -172.18,167.02 -72.94,39.95 -154.65,59.81 -245.37,59.81zm0 -86.09c72.42,0 137.9,-16.24 196.4,-48.97 58.38,-32.99 104.13,-78.49 137.12,-136.61 33.26,-58 50.01,-122.82 50.01,-194.34 0,-71.4 -16.75,-136.22 -50.01,-194.34 -32.99,-57.99 -78.74,-103.36 -137.12,-136.09 -58.51,-32.99 -123.98,-49.49 -196.4,-49.49 -72.56,0 -138.42,16.5 -197.44,49.49 -58.77,32.73 -105.03,78.1 -138.67,136.09 -33.76,58.12 -50.52,122.94 -50.52,194.34 0,71.52 16.76,136.34 50.52,194.34 33.64,58.11 79.9,103.61 138.67,136.61 59.02,32.73 124.88,48.97 197.44,48.97zm0 0z"/>
    </g>
   </g>
  </g>
  <g id="_1401335778064">
   <g>
    <g>
     <path class="fil1" d="M4959.2 3657.67l92.78 0 0 349.5c-42.65,37.5 -93.31,66.37 -152.06,86.61 -58.52,19.97 -119.99,29.9 -184.55,29.9 -91.5,0 -173.98,-19.85 -247.44,-59.81 -73.21,-40.2 -130.81,-95.88 -172.69,-167.02 -42.01,-71.14 -62.89,-150.78 -62.89,-239.19 0,-88.28 20.88,-168.06 62.89,-239.2 41.89,-71.13 99.49,-126.55 172.69,-166.5 73.46,-40.2 156.45,-60.31 248.98,-60.31 69.73,0 133.77,11.21 192.29,33.51 58.38,22.03 107.74,54.9 147.95,98.46l-60.32 61.86c-72.17,-71.79 -164.32,-107.74 -276.31,-107.74 -73.97,0 -140.73,16.5 -200.53,49.49 -59.8,32.73 -106.97,78.1 -141.24,136.09 -34.02,58.12 -51.03,122.94 -51.03,194.34 0,71.52 17.01,136.09 51.03,193.82 34.28,57.74 81.06,103.36 140.22,136.61 59.41,32.98 126.3,49.48 200.53,49.48 94.08,0 173.99,-23.71 239.71,-71.14l0 -308.78zm0 0z"/>
    </g>
   </g>
  </g>
  <g id="_1401335779216">
   <g>
    <g>
     <path class="fil1" d="M5900.32 3871.09l-510.85 0 -109.8 244.86 -101.04 0 419.1 -916.56 95.36 0 419.1 916.56 -102.07 0 -109.8 -244.86zm-35.57 -78.35l-220.12 -492.31 -219.6 492.31 439.72 0zm0 0z"/>
    </g>
   </g>
  </g>
  <g id="_1401335788720">
   <g>
    <g>
     <path class="fil1" d="M6263.99 3199.4l372.71 0c96.92,0 182.49,19.46 256.72,58.24 74.23,38.92 131.7,93.05 172.69,162.39 41.24,69.46 61.86,148.72 61.86,237.64 0,89.05 -20.62,168.31 -61.86,237.64 -40.98,69.46 -98.46,123.59 -172.69,162.38 -74.24,38.92 -159.81,58.25 -256.72,58.25l-372.71 0 0 -916.56zm367.55 832.53c80.42,0 150.65,-15.72 210.84,-47.42 60.05,-31.97 106.84,-76.04 140.22,-132.48 33.25,-56.33 50,-121.15 50,-194.34 0,-73.21 -16.75,-137.9 -50,-194.34 -33.38,-56.32 -80.17,-100.26 -140.22,-131.97 -60.19,-31.97 -130.42,-47.95 -210.84,-47.95l-270.64 0 0 748.51 270.64 0zm0 0z"/>
    </g>
   </g>
  </g>
  <g id="_1401335793952">
   <g>
    <g>
     <path class="fil1" d="M7745.65 4123.68c-90.72,0 -173.08,-20.24 -246.92,-60.83 -73.97,-40.47 -131.7,-96.01 -173.21,-166.5 -41.23,-70.75 -61.85,-150.27 -61.85,-238.67 0,-88.28 20.62,-167.67 61.85,-238.16 41.5,-70.76 99.23,-126.43 173.21,-167.03 73.84,-40.47 156.2,-60.83 246.92,-60.83 90.73,0 172.44,20.11 245.38,60.31 72.81,39.95 130.16,95.37 172.18,166.5 41.88,71.14 62.89,150.91 62.89,239.2 0,88.4 -21.01,168.05 -62.89,239.19 -42.02,71.14 -99.37,126.81 -172.18,167.02 -72.94,39.95 -154.65,59.81 -245.38,59.81zm0 -86.09c72.43,0 137.9,-16.24 196.41,-48.97 58.38,-32.99 104.13,-78.49 137.12,-136.61 33.25,-58 50.01,-122.82 50.01,-194.34 0,-71.4 -16.76,-136.22 -50.01,-194.34 -32.99,-57.99 -78.74,-103.36 -137.12,-136.09 -58.52,-32.99 -123.98,-49.49 -196.41,-49.49 -72.55,0 -138.41,16.5 -197.43,49.49 -58.77,32.73 -105.03,78.1 -138.67,136.09 -33.76,58.12 -50.52,122.94 -50.52,194.34 0,71.52 16.76,136.34 50.52,194.34 33.64,58.11 79.9,103.61 138.67,136.61 59.02,32.73 124.88,48.97 197.43,48.97zm0 0z"/>
    </g>
   </g>
  </g>
  <g id="_1401335797216">
   <g>
    <g>
     <path class="fil1" d="M8695.85 4123.68c-68.05,0 -133.39,-10.83 -195.9,-32.48 -62.63,-21.91 -110.83,-50.78 -144.85,-86.61l38.15 -74.74c33.26,33.38 77.45,60.31 132.49,80.93 54.9,20.36 111.6,30.41 170.11,30.41 82.09,0 143.56,-14.94 184.54,-44.84 40.86,-30.16 61.35,-69.34 61.35,-117.54 0,-36.34 -11.21,-65.47 -33.51,-87.12 -22.04,-21.9 -49.23,-38.79 -81.45,-50.52 -32.35,-11.98 -77.33,-25 -135.06,-39.18 -69.08,-17.14 -124.11,-33.76 -164.96,-50.01 -40.98,-16.1 -76.04,-40.72 -105.16,-73.71 -29.25,-33.25 -43.81,-78.48 -43.81,-135.58 0,-46.01 12.11,-87.89 36.59,-125.78 24.36,-38.15 61.86,-68.56 112.38,-91.24 50.52,-22.68 113.41,-34.02 188.67,-34.02 52.19,0 103.36,7.22 153.62,21.65 50.14,14.43 93.57,34.28 130.42,59.28l-32.47 77.32c-38.54,-25.39 -79.65,-44.33 -123.2,-56.7 -43.69,-12.63 -86.48,-19.08 -128.37,-19.08 -80.42,0 -140.98,15.47 -181.45,46.4 -40.6,30.94 -60.83,70.88 -60.83,119.59 0,36.87 11.08,66.37 33.51,88.67 22.3,22.43 50.14,39.44 83.51,51.03 33.63,11.73 78.87,24.61 135.58,38.66 67.27,16.5 121.65,32.86 162.89,48.98 41.49,16.24 76.81,40.73 105.68,73.71 28.87,32.74 43.3,76.81 43.3,132.49 0,46.4 -12.63,88.67 -37.63,126.81 -24.74,37.89 -62.88,67.91 -114.44,90.21 -51.55,22.03 -114.82,32.99 -189.7,32.99zm0 0z"/>
    </g>
   </g>
  </g>
 </g>
</svg>
