<?xml version="1.0" encoding="UTF-8"?>
<!DOCTYPE svg PUBLIC "-//W3C//DTD SVG 1.1//EN" "http://www.w3.org/Graphics/SVG/1.1/DTD/svg11.dtd">
<!-- Creator: CorelDRAW -->
<svg xmlns="http://www.w3.org/2000/svg" xml:space="preserve" width="110.328mm" height="44.094mm" version="1.1" style="shape-rendering:geometricPrecision; text-rendering:geometricPrecision; image-rendering:optimizeQuality; fill-rule:evenodd; clip-rule:evenodd"
viewBox="0 0 8705.29 3479.2"
 xmlns:xlink="http://www.w3.org/1999/xlink"
 xmlns:xodm="http://www.corel.com/coreldraw/odm/2003"
 zoomAndPan="magnify">
 <defs>
  <style type="text/css">
   <![CDATA[
    .fil1 {fill:#E58E52;fill-rule:nonzero}
    .fil0 {fill:#EAD5AC;fill-rule:nonzero}
   ]]>
  </style>
 </defs>
 <g id="Layer_x0020_1">
  <metadata id="CorelCorpID_0Corel-Layer"/>
  <g id="_2064848355008">
   <g id="_2267363708432">
    <g>
     <g>
      <g>
       <path class="fil0" d="M1382.64 1446.58c0,181.26 -66.11,328.26 -198.33,441.01 -132.01,112.86 -304.89,169.19 -518.87,169.19 -117.76,0 -243.13,-23.06 -376.22,-69.16 -59.79,-19.36 -99.38,-29.14 -118.73,-29.14 -23.27,0 -41.65,7.28 -55.23,21.75 -13.37,14.57 -23.81,40.01 -31.32,76.55l-83.94 0 0 -714.59 83.94 0c24.9,104.38 49.36,185.61 73.51,243.56 24.35,57.73 57.62,113.52 100.03,167.44 109.81,138.96 248.78,208.33 416.67,208.33 111.89,0 200.61,-29.36 266.18,-88.29 65.46,-58.82 98.3,-138.41 98.3,-238.76 0,-77.1 -22.18,-139.72 -66.54,-187.89 -44.36,-48.06 -130.26,-102.21 -257.48,-162.23l-193.98 -92.64c-248.78,-119.39 -403.08,-255.31 -462.76,-407.53 -21.2,-60.02 -31.76,-123.74 -31.76,-191.37 0,-182.88 56.32,-327.07 169.19,-432.32 112.75,-105.26 267.48,-157.88 464.08,-157.88 106.13,0 218.99,22.18 338.81,66.54 57.62,19.47 98.07,29.14 121.34,29.14 26.97,0 46.65,-6.63 59.15,-20 12.72,-13.6 23.92,-39.69 33.49,-78.29l86.99 0 0 627.6 -81.33 0c-28.71,-94.49 -57.19,-167.66 -85.25,-219.64 -27.84,-52.2 -66.87,-103.3 -117,-153.53 -104.38,-107.86 -223.12,-161.79 -356.2,-161.79 -98.3,0 -175.93,26.09 -232.7,78.29 -56.87,51.97 -85.25,122.21 -85.25,210.94 0,71.32 20.11,129.17 60.46,173.53 40.56,44.36 119.71,95.58 237.47,153.53l425.36 210.94c94.49,46.43 171.04,118.73 229.64,217.03 58.82,98.3 88.29,201.59 88.29,309.67l-0.02 0zm0 0z"/>
      </g>
     </g>
    </g>
    <g>
     <g>
      <g>
       <path class="fil0" d="M3060.81 1944.13l-179.19 20.44c-160.06,17.18 -287.38,41.98 -381.86,74.81l0 -187.89c-85.03,73.4 -157.33,123.52 -217.03,150.48 -59.81,26.97 -127.33,40.45 -202.68,40.45 -119.5,0 -213.55,-35.66 -282.27,-106.99 -68.5,-71.33 -102.64,-170.61 -102.64,-297.92l0 -728.94c0,-60.02 -8.7,-100.58 -26.09,-121.78 -17.18,-21.1 -55.67,-37.52 -115.69,-49.15l0 -69.59 544.09 0 0 980.78c0,73.38 11.96,126.01 36.1,157.87 24.03,31.96 66.11,47.84 126.13,47.84 73.07,0 152.01,-42.4 237.04,-127.43l0 -818.54c0,-61.77 -12.06,-104.17 -36.1,-127.44 -24.14,-23.16 -71.76,-37.62 -143.09,-43.49l0 -69.59 581.51 0 0 1041.67c0,61.75 10.98,104.71 33.05,128.73 22.29,24.14 65.24,37.18 128.74,39.14l0 66.54 -0.01 0.01zm0 0z"/>
      </g>
     </g>
    </g>
    <g>
     <g>
      <g>
       <path class="fil0" d="M4631.99 1310.44c0,214.31 -52.18,389.48 -156.58,525.39 -104.16,135.7 -237.25,203.55 -399.26,203.55 -63.5,0 -118.96,-12.07 -166.15,-36.1 -47.3,-24.03 -105.58,-69.81 -174.84,-137.44l0 407.97c0,96.55 15.33,163.1 46.1,199.63 30.67,36.75 90.47,57.09 179.21,60.89l0 60.89 -789.84 0 0 -69.59c69.59,-11.64 113.95,-27.62 133.09,-47.86 19.36,-20.33 29.14,-60.35 29.14,-120.04l0 -1449.18c0,-60.02 -10.22,-101.01 -30.44,-123.09 -20.33,-22.29 -62.2,-38.27 -125.69,-47.84l0 -69.59 552.36 0 0 199.63c44.36,-82.85 94.92,-142.66 151.79,-179.19 57.09,-36.53 127.98,-54.8 212.69,-54.8 160.05,0 289.77,62.63 389.26,187.89 99.39,125.26 149.18,288.25 149.18,488.87l-0.01 0.02zm-428.41 40.45c0,-368.17 -73.29,-552.36 -219.64,-552.36 -65.89,0 -128.63,32.84 -188.33,98.29 -40.34,44.37 -60.45,79.05 -60.45,103.95l0 703.29c46.1,117.75 120.26,176.57 222.68,176.57 163.75,0 245.73,-176.57 245.73,-529.74zm0 0z"/>
      </g>
     </g>
    </g>
    <g>
     <g>
      <g>
       <path class="fil0" d="M5956.99 1681c-94.6,134.82 -182.89,228.76 -264.88,281.82 -82.1,53.06 -181.81,79.59 -299.24,79.59 -179.51,0 -323.8,-64.05 -432.74,-192.23 -109.06,-128.4 -163.54,-297.71 -163.54,-507.99 0,-211.92 55.35,-382.96 166.15,-513.23 111.01,-130.14 257.26,-195.28 438.83,-195.28 165.82,0 295.98,57.84 390.57,173.53 84.6,106.13 134.62,268.14 150.05,485.82l-728.93 0c9.56,179.52 39.35,310.76 89.59,393.61 57.96,98.29 142.86,147.43 254.87,147.43 61.76,0 117.1,-14.35 166.14,-43.06 49.26,-28.92 103.74,-79.15 163.54,-150.47l69.59 40.45zm-370.57 -494.96l0 -43.49c-5.87,-144.62 -14.57,-239.21 -26.09,-283.57 -22.95,-90.46 -75.9,-135.7 -158.76,-135.7 -71.64,0 -122.43,33.82 -152.21,101.33 -29.9,67.31 -46.75,187.78 -50.44,361.43l387.51 0 -0.02 0zm0 0z"/>
      </g>
     </g>
    </g>
    <g>
     <g>
      <g>
       <path class="fil0" d="M7264.6 858.98c0,56 -16.96,102.43 -50.89,139.18 -33.71,36.53 -77.42,54.8 -131.35,54.8 -67.63,0 -125.47,-34.58 -173.53,-103.95 -31.1,-44.36 -58.06,-66.54 -80.91,-66.54 -48.49,0 -90.03,26.97 -124.83,80.91 -34.58,53.93 -51.75,118.62 -51.75,193.98l0 546.71c0,90.46 12.83,149.82 38.71,177.88 26.09,27.83 83.51,44.68 172.23,50.44l0 69.59 -769.39 0 0 -69.59c63.49,-11.53 105.36,-28.37 125.69,-50.44 20.22,-22.29 30.44,-63.29 30.44,-123.09l0 -850.28c0,-57.96 -10.64,-98.95 -31.76,-123.09 -21.2,-24.03 -62.63,-40.01 -124.38,-47.84l0 -69.59 546.7 0 0 237.48c67.53,-96.55 131.57,-165.93 192.24,-208.33 60.89,-42.3 127,-63.5 198.33,-63.5 67.52,0 123.52,21.2 167.88,63.5 44.36,42.4 66.54,96.33 66.54,161.79l0.02 -0.02zm0 0z"/>
      </g>
     </g>
    </g>
    <g>
     <g>
      <g>
       <path class="fil0" d="M8705.28 1877.58c-102.11,109.93 -210.07,164.84 -324.03,164.84 -71.33,0 -124.83,-15.43 -160.49,-46.1 -35.66,-30.99 -61.21,-83.18 -76.54,-156.58 -148.74,135.15 -302.18,202.67 -460.15,202.67 -92.54,0 -168.76,-28.92 -228.77,-86.55 -59.81,-57.96 -89.6,-131.34 -89.6,-220.06 0,-123.52 64.58,-228.56 193.98,-315.32 92.42,-61.77 287.27,-137.99 584.55,-228.77l0 -210.94c0,-88.73 -19.36,-153.31 -57.84,-193.98 -38.59,-40.56 -100.36,-60.89 -185.28,-60.89 -52.18,0 -95.69,10.22 -130.48,30.44 -34.58,20.33 -51.76,45.99 -51.76,76.99 0,17.18 11.53,38.27 34.8,63.49 34.47,42.41 51.75,83.84 51.75,124.39 0,50.24 -18.27,90.79 -54.8,121.78 -36.53,30.77 -83.84,46.1 -141.79,46.1 -59.79,0 -106.01,-16.74 -138.74,-50.44 -32.84,-33.93 -49.15,-80.68 -49.15,-140.48 0,-108.07 50.02,-195.83 150.05,-263.14 100.25,-67.52 232.47,-101.33 396.66,-101.33 177.45,0 317.17,35.23 419.27,105.68 102.31,70.25 153.53,167.02 153.53,290.54l0 755.03c0,48.16 20.22,72.2 60.89,72.2 13.26,0 23.92,-3.7 31.76,-11.31l28.71 -29.15 43.49 60.89 -0.01 -0.02zm-564.12 -164.84l0 -419.71c-235.51,65.57 -353.16,182.24 -353.16,350.12 0,58.06 13.48,104.81 40.45,140.47 27.18,35.66 63.06,53.5 107.43,53.5 65.46,0 133.96,-41.42 205.28,-124.38zm0 0z"/>
      </g>
     </g>
    </g>
    <g>
     <g>
      <g>
       <path class="fil1" d="M1573.61 3266.07l-431.01 0 -92.64 206.59 -85.25 0 353.6 -773.31 80.46 0 353.59 773.31 -86.11 0 -92.64 -206.59zm-30.02 -66.11l-185.72 -415.37 -185.28 415.37 371 0zm0 0z"/>
      </g>
     </g>
    </g>
    <g>
     <g>
      <g>
       <path class="fil1" d="M2367.55 3073.82c50.67,11.09 89.82,32.95 117.43,65.67 27.52,32.83 41.32,75.03 41.32,126.56 0,66.44 -24.58,117.43 -73.51,153.1 -48.72,35.66 -121.13,53.5 -217.03,53.5l-355.34 0 0 -773.31 333.58 0c86.12,0 152.77,17.39 200.07,52.18 47.52,34.58 71.33,83.4 71.33,146.57 0,42.95 -10.44,79.38 -31.32,109.17 -20.87,29.57 -49.8,51.75 -86.55,66.54l0.01 0.02zm-405.35 -307.06l0 280.53 246.17 0c62.63,0 110.91,-11.85 144.83,-35.66 33.93,-24.03 50.89,-58.82 50.89,-104.38 0,-45.78 -16.96,-80.58 -50.89,-104.38 -33.92,-24.03 -82.2,-36.1 -144.83,-36.1l-246.17 0zm272.7 638.48c69.26,0 121.46,-11.74 156.58,-35.23 35.34,-23.49 53.06,-60.24 53.06,-110.47 0,-96.55 -69.92,-144.83 -209.64,-144.83l-272.7 0 0 290.53 272.7 0zm0 0z"/>
      </g>
     </g>
    </g>
    <g>
     <g>
      <g>
       <path class="fil1" d="M3051.02 3479.18c-76.55,0 -146.03,-17.07 -208.34,-51.33 -62.41,-34.14 -111.12,-81 -146.13,-140.48 -34.8,-59.69 -52.2,-126.78 -52.2,-201.36 0,-74.49 17.39,-141.47 52.2,-200.94 35.01,-59.71 83.72,-106.67 146.13,-140.92 62.31,-34.14 131.79,-51.31 208.34,-51.31 76.54,0 145.48,16.96 207.02,50.89 61.44,33.71 109.83,80.47 145.27,140.48 35.34,60.02 53.06,127.33 53.06,201.81 0,74.59 -17.72,141.78 -53.06,201.81 -35.44,60.02 -83.84,106.99 -145.27,140.91 -61.54,33.71 -130.48,50.46 -207.02,50.46l0 -0.02zm0 -72.64c61.1,0 116.34,-13.7 165.71,-41.31 49.25,-27.84 87.85,-66.22 115.69,-115.26 28.06,-48.94 42.19,-103.62 42.19,-163.97 0,-60.24 -14.13,-114.93 -42.19,-163.97 -27.84,-48.93 -66.44,-87.2 -115.69,-114.82 -49.36,-27.84 -104.6,-41.76 -165.71,-41.76 -61.22,0 -116.79,13.92 -166.58,41.76 -49.58,27.62 -88.61,65.89 -117,114.82 -28.48,49.04 -42.62,103.73 -42.62,163.97 0,60.35 14.14,115.03 42.62,163.97 28.37,49.03 67.42,87.42 117,115.26 49.8,27.62 105.36,41.31 166.58,41.31zm0 0z"/>
      </g>
     </g>
    </g>
    <g>
     <g>
      <g>
       <path class="fil1" d="M4184.12 3086l78.28 0 0 294.88c-35.99,31.64 -78.72,56 -128.3,73.07 -49.37,16.85 -101.23,25.23 -155.71,25.23 -77.2,0 -146.79,-16.75 -208.76,-50.46 -61.77,-33.92 -110.36,-80.89 -145.7,-140.91 -35.44,-60.02 -53.06,-127.22 -53.06,-201.81 0,-74.49 17.62,-141.79 53.06,-201.81 35.34,-60.01 83.94,-106.77 145.7,-140.48 61.98,-33.92 132,-50.89 210.07,-50.89 58.84,0 112.86,9.46 162.23,28.27 49.25,18.59 90.9,46.32 124.83,83.07l-50.89 52.2c-60.89,-60.57 -138.63,-90.91 -233.12,-90.91 -62.41,0 -118.73,13.92 -169.19,41.76 -50.44,27.62 -90.26,65.89 -119.17,114.82 -28.71,49.04 -43.06,103.73 -43.06,163.97 0,60.35 14.35,114.82 43.06,163.53 28.92,48.72 68.39,87.2 118.3,115.26 50.13,27.83 106.56,41.75 169.19,41.75 79.38,0 146.79,-20 202.25,-60.02l0 -260.52zm0 0z"/>
      </g>
     </g>
    </g>
    <g>
     <g>
      <g>
       <path class="fil1" d="M4978.15 3266.07l-431.01 0 -92.64 206.59 -85.25 0 353.6 -773.31 80.46 0 353.6 773.31 -86.12 0 -92.64 -206.59zm-30.01 -66.11l-185.72 -415.37 -185.28 415.37 371 0zm0 0z"/>
      </g>
     </g>
    </g>
    <g>
     <g>
      <g>
       <path class="fil1" d="M5284.98 2699.35l314.46 0c81.78,0 153.97,16.42 216.6,49.14 62.63,32.84 111.12,78.51 145.7,137.01 34.8,58.6 52.2,125.47 52.2,200.5 0,75.13 -17.39,142 -52.2,200.5 -34.58,58.6 -83.07,104.27 -145.7,137 -62.63,32.84 -134.83,49.15 -216.6,49.15l-314.46 0 0 -773.31 0 0.02zm310.11 702.41c67.85,0 127.11,-13.26 177.89,-40.01 50.66,-26.97 90.14,-64.16 118.3,-111.78 28.05,-47.52 42.18,-102.21 42.18,-163.97 0,-61.77 -14.13,-116.34 -42.18,-163.97 -28.16,-47.52 -67.64,-84.59 -118.3,-111.34 -50.78,-26.97 -110.04,-40.45 -177.89,-40.45l-228.34 0 0 631.52 228.34 0zm0 0z"/>
      </g>
     </g>
    </g>
    <g>
     <g>
      <g>
       <path class="fil1" d="M6535.08 3479.18c-76.54,0 -146.03,-17.07 -208.33,-51.33 -62.41,-34.14 -111.12,-81 -146.14,-140.48 -34.79,-59.69 -52.18,-126.78 -52.18,-201.36 0,-74.49 17.39,-141.47 52.18,-200.94 35.02,-59.71 83.73,-106.67 146.14,-140.92 62.31,-34.14 131.79,-51.31 208.33,-51.31 76.55,0 145.49,16.96 207.03,50.89 61.44,33.71 109.81,80.47 145.27,140.48 35.33,60.02 53.06,127.33 53.06,201.81 0,74.59 -17.73,141.78 -53.06,201.81 -35.45,60.02 -83.84,106.99 -145.27,140.91 -61.54,33.71 -130.48,50.46 -207.03,50.46l0 -0.02zm0 -72.64c61.11,0 116.34,-13.7 165.71,-41.31 49.25,-27.84 87.85,-66.22 115.69,-115.26 28.05,-48.94 42.19,-103.62 42.19,-163.97 0,-60.24 -14.14,-114.93 -42.19,-163.97 -27.84,-48.93 -66.44,-87.2 -115.69,-114.82 -49.37,-27.84 -104.6,-41.76 -165.71,-41.76 -61.21,0 -116.78,13.92 -166.58,41.76 -49.58,27.62 -88.61,65.89 -117,114.82 -28.48,49.04 -42.62,103.73 -42.62,163.97 0,60.35 14.14,115.03 42.62,163.97 28.37,49.03 67.42,87.42 117,115.26 49.8,27.62 105.36,41.31 166.58,41.31zm0 0z"/>
      </g>
     </g>
    </g>
    <g>
     <g>
      <g>
       <path class="fil1" d="M7336.76 3479.18c-57.41,0 -112.54,-9.14 -165.28,-27.4 -52.84,-18.49 -93.51,-42.84 -122.21,-73.07l32.18 -63.06c28.06,28.16 65.35,50.89 111.78,68.28 46.32,17.18 94.16,25.66 143.53,25.66 69.26,0 121.13,-12.61 155.7,-37.83 34.47,-25.45 51.76,-58.5 51.76,-99.17 0,-30.66 -9.46,-55.24 -28.27,-73.51 -18.6,-18.48 -41.54,-32.73 -68.72,-42.62 -27.29,-10.11 -65.25,-21.09 -113.95,-33.05 -58.29,-14.46 -104.71,-28.48 -139.18,-42.19 -34.58,-13.59 -64.16,-34.36 -88.73,-62.19 -24.68,-28.05 -36.97,-66.22 -36.97,-114.39 0,-38.82 10.22,-74.16 30.88,-106.13 20.55,-32.18 52.2,-57.84 94.82,-76.98 42.62,-19.13 95.69,-28.71 159.18,-28.71 44.04,0 87.2,6.09 129.61,18.27 42.3,12.17 78.94,28.93 110.04,50.02l-27.4 65.24c-32.52,-21.42 -67.2,-37.4 -103.95,-47.84 -36.86,-10.66 -72.96,-16.1 -108.3,-16.1 -67.85,0 -118.95,13.05 -153.09,39.14 -34.25,26.1 -51.33,59.79 -51.33,100.9 0,31.1 9.35,56 28.27,74.81 18.81,18.92 42.3,33.27 70.46,43.06 28.37,9.89 66.54,20.78 114.39,32.63 56.76,13.92 102.64,27.73 137.44,41.32 35.01,13.7 64.8,34.36 89.16,62.19 24.36,27.62 36.53,64.8 36.53,111.78 0,39.14 -10.64,74.81 -31.76,106.99 -20.87,31.96 -53.05,57.3 -96.55,76.11 -43.49,18.59 -96.88,27.84 -160.05,27.84l0.01 -0.01zm0 0z"/>
      </g>
     </g>
    </g>
   </g>
  </g>
 </g>
</svg>
