<?xml version="1.0" encoding="UTF-8"?>
<!DOCTYPE svg PUBLIC "-//W3C//DTD SVG 1.1//EN" "http://www.w3.org/Graphics/SVG/1.1/DTD/svg11.dtd">
<!-- Creator: CorelDRAW X5 -->
<svg xmlns="http://www.w3.org/2000/svg" xml:space="preserve" width="129.694mm" height="55.0926mm" style="shape-rendering:geometricPrecision; text-rendering:geometricPrecision; image-rendering:optimizeQuality; fill-rule:evenodd; clip-rule:evenodd"
viewBox="0 0 91.2389 38.7572"
 xmlns:xlink="http://www.w3.org/1999/xlink"
 zoomAndPan="magnify"
 version="1.0">
 <defs>
  <style type="text/css">
   <![CDATA[
    .fil0 {fill:#E58E52}
   ]]>
  </style>
 </defs>
 <g id="Capa_x0020_1">
  <metadata id="CorelCorpID_0Corel-Layer"/>
  <g id="_264149872">
   <g>
    <g>
     <g>
      <path id="_264531960" class="fil0" d="M14.4957 15.1633c0,1.90048 -0.692588,3.44268 -2.07769,4.6261 -1.38426,1.18243 -3.19801,1.7735 -5.44222,1.7735 -1.23393,0 -2.54791,-0.242986 -3.94244,-0.728396 -0.627726,-0.20134 -1.04243,-0.302431 -1.24377,-0.302431 -0.242494,0 -0.434407,0.0760475 -0.576231,0.227228 -0.142317,0.151743 -0.253257,0.419211 -0.332893,0.803599l-0.880491 0 0 -7.49128 0.880491 0c0.262192,1.09168 0.519459,1.94129 0.771309,2.5484 0.252835,0.606199 0.601767,1.19277 1.04694,1.75915 1.15246,1.45581 2.60834,2.18329 4.36841,2.18329 1.17124,0 2.10098,-0.30827 2.78815,-0.925233 0.688156,-0.61647 1.03266,-1.45046 1.03266,-2.50183 0,-0.808875 -0.232715,-1.46566 -0.698005,-1.97034 -0.46529,-0.5056 -1.36499,-1.0724 -2.69867,-1.70013l-2.03302 -0.969975c-2.60834,-1.25362 -4.22525,-2.67897 -4.85156,-4.27533 -0.221881,-0.627234 -0.332893,-1.29478 -0.332893,-2.00249 0,-1.92075 0.591074,-3.43157 1.7735,-4.53309 1.18201,-1.10237 2.80475,-1.65356 4.86767,-1.65356 1.1118,0 2.2943,0.232645 3.54701,0.697935 0.607114,0.203098 1.03167,0.30426 1.27417,0.30426 0.282804,0 0.48949,-0.0707713 0.621043,-0.213017 0.132397,-0.141824 0.248685,-0.415201 0.348932,-0.819639l0.910882 0 0 6.58216 -0.85003 0c-0.303346,-0.991432 -0.601275,-1.75965 -0.894772,-2.30499 -0.292653,-0.546262 -0.701523,-1.08183 -1.22766,-1.60706 -1.09168,-1.13192 -2.33503,-1.69837 -3.72956,-1.69837 -1.03076,0 -1.84456,0.273377 -2.44098,0.819639 -0.596843,0.545418 -0.894842,1.28268 -0.894842,2.21199 0,0.748023 0.211681,1.35472 0.635394,1.82001 0.424558,0.46529 1.25355,1.00128 2.48748,1.60706l4.45789 2.21368c0.991432,0.485902 1.79496,1.24384 2.41059,2.2746 0.616541,1.03083 0.925233,2.11266 0.925233,3.24458zm0 0z"/>
     </g>
    </g>
   </g>
   <g>
    <g>
     <g>
      <path id="_264533016" class="fil0" d="M32.0825 20.3799l-1.88079 0.213017c-1.67783,0.181642 -3.01193,0.443833 -4.00336,0.787419l0 -1.97034c-0.889003,0.768636 -1.64737,1.29386 -2.2746,1.5766 -0.626319,0.282804 -1.3341,0.424136 -2.12244,0.424136 -1.25271,0 -2.2383,-0.373977 -2.95643,-1.12207 -0.718547,-0.748023 -1.07733,-1.7887 -1.07733,-3.12287l0 -7.6433c0,-0.62639 -0.091243,-1.05053 -0.273799,-1.27241 -0.181642,-0.222796 -0.585165,-0.394659 -1.21155,-0.515378l0 -0.728396 5.70159 0 0 10.2812c0,0.768636 0.126207,1.31989 0.379464,1.65363 0.252765,0.332822 0.692518,0.499269 1.31891,0.499269 0.768214,0 1.59721,-0.444678 2.48755,-1.33502l0 -8.58289c0,-0.646509 -0.126629,-1.09076 -0.379393,-1.33326 -0.253257,-0.243408 -0.75344,-0.394589 -1.50146,-0.454526l0 -0.728396 6.09534 0 0 10.9165c0,0.647846 0.116358,1.09836 0.349003,1.35113 0.232575,0.251921 0.682247,0.387906 1.3493,0.408026l0 0.697935zm0 0z"/>
     </g>
    </g>
   </g>
   <g>
    <g>
     <g>
      <path id="_264532608" class="fil0" d="M48.5472 13.7387c0,2.24421 -0.54584,4.07941 -1.63752,5.50483 -1.09161,1.4245 -2.48706,2.13679 -4.18585,2.13679 -0.667051,0 -1.2487,-0.126629 -1.7448,-0.379393 -0.495329,-0.251428 -1.10687,-0.731069 -1.83436,-1.43885l0 4.27533c0,1.01021 0.161522,1.70773 0.484988,2.09205 0.32438,0.383896 0.951122,0.596421 1.88086,0.637083l0 0.637083 -8.2787 0 0 -0.728326c0.727481,-0.12079 1.19235,-0.287236 1.39411,-0.499339 0.202676,-0.212455 0.30426,-0.63258 0.30426,-1.25981l0 -15.1937c0,-0.62639 -0.106509,-1.05587 -0.318612,-1.28852 -0.212525,-0.232645 -0.652278,-0.399091 -1.31891,-0.499269l0 -0.728396 5.79291 0 0 2.09205c0.463953,-0.869798 0.994175,-1.49612 1.59095,-1.8791 0.596421,-0.383896 1.33952,-0.576231 2.22986,-0.576231 1.67727,0 3.03698,0.657695 4.0785,1.97217 1.04152,1.31349 1.56232,3.02164 1.56232,5.12353zm-4.48828 0.424136c0,-3.86189 -0.768636,-5.79291 -2.30506,-5.79291 -0.687171,0 -1.34487,0.3445 -1.9721,1.03259 -0.42505,0.464446 -0.637083,0.828151 -0.637083,1.09168l0 7.36957c0.48541,1.23259 1.26389,1.84864 2.33545,1.84864 1.71884,0 2.57879,-1.84955 2.57879,-5.54957zm0 0z"/>
     </g>
    </g>
   </g>
   <g>
    <g>
     <g>
      <path id="_264534000" class="fil0" d="M62.4331 17.6204c-0.990517,1.41515 -1.91575,2.40074 -2.77563,2.95643 -0.859034,0.555618 -1.90506,0.83392 -3.13722,0.83392 -1.88036,0 -3.39217,-0.671976 -4.53478,-2.01684 -1.14177,-1.34444 -1.71265,-3.11837 -1.71265,-5.32227 0,-2.22353 0.580733,-4.01764 1.74304,-5.38129 1.16189,-1.36463 2.69332,-2.0473 4.59388,-2.0473 1.73953,0 3.10409,0.606199 4.09461,1.81825 0.889918,1.11222 1.41557,2.81052 1.57667,5.09497l-7.64162 0c0.101162,1.88036 0.414287,3.25527 0.939584,4.125 0.607114,1.03083 1.49654,1.54621 2.66828,1.54621 0.647846,0 1.22942,-0.151251 1.74487,-0.454597 0.515378,-0.302853 1.08626,-0.828573 1.71258,-1.5766l0.728396 0.424136zm-3.88166 -5.18622l0 -0.454597c-0.0607817,-1.51624 -0.152095,-2.50718 -0.273799,-2.97254 -0.242494,-0.949363 -0.798112,-1.4245 -1.66791,-1.4245 -0.748023,0 -1.27909,0.353927 -1.59271,1.06122 -0.312773,0.707784 -0.48949,1.97126 -0.52973,3.79042l4.06415 0zm0 0z"/>
     </g>
    </g>
   </g>
   <g>
    <g>
     <g>
      <path id="_264533496" class="fil0" d="M76.139 9.00702c0,0.586994 -0.177139,1.0729 -0.531488,1.45672 -0.354349,0.384318 -0.814292,0.576301 -1.37976,0.576301 -0.707784,0 -1.31448,-0.363776 -1.82008,-1.09168 -0.323466,-0.46529 -0.606199,-0.697935 -0.848271,-0.697935 -0.505952,0 -0.940851,0.283648 -1.30456,0.85003 -0.364198,0.565537 -0.54584,1.24293 -0.54584,2.03119l0 5.73213c0,0.949785 0.136478,1.57125 0.409784,1.86475 0.272955,0.292582 0.87423,0.468878 1.8039,0.52973l0 0.728326 -8.06744 0 0 -0.728326c0.667966,-0.120368 1.10814,-0.297085 1.32067,-0.52973 0.212103,-0.232645 0.318541,-0.662197 0.318541,-1.28852l0 -8.91754c0,-0.605848 -0.111855,-1.03533 -0.334581,-1.28852 -0.221952,-0.252765 -0.656851,-0.419211 -1.30463,-0.499269l0 -0.728396 5.73206 0 0 2.48572c0.707291,-1.01021 1.37976,-1.7377 2.01684,-2.18153 0.637153,-0.444678 1.32967,-0.667474 2.07769,-0.667474 0.707362,0 1.29393,0.222796 1.75922,0.667474 0.46529,0.443833 0.697935,1.00937 0.697935,1.69654zm0 0z"/>
     </g>
    </g>
   </g>
   <g>
    <g>
     <g>
      <path id="_264534600" class="fil0" d="M91.2389 19.682c-1.07149,1.15253 -2.2039,1.72876 -3.39667,1.72876 -0.748023,0 -1.30955,-0.161944 -1.68402,-0.484988 -0.373554,-0.322973 -0.641515,-0.868813 -0.803529,-1.63745 -1.55697,1.41515 -3.16396,2.12244 -4.82117,2.12244 -0.971242,0 -1.76985,-0.303346 -2.39624,-0.909053 -0.62639,-0.607184 -0.939584,-1.37533 -0.939584,-2.30506 0,-1.29429 0.676971,-2.39624 2.03119,-3.30536 0.969975,-0.646509 3.01193,-1.44511 6.1258,-2.39631l0 -2.21368c0,-0.929243 -0.202184,-1.60621 -0.606621,-2.03119 -0.404508,-0.424628 -1.05144,-0.637153 -1.93995,-0.637153 -0.546684,0 -1.0017,0.106509 -1.36548,0.318612 -0.364198,0.212525 -0.54584,0.480485 -0.54584,0.803529 0,0.181571 0.12079,0.403945 0.363283,0.667474 0.363776,0.443833 0.54584,0.87824 0.54584,1.30287 0,0.526142 -0.192335,0.951192 -0.576231,1.27417 -0.384318,0.323466 -0.879576,0.484988 -1.48535,0.484988 -0.626319,0 -1.11131,-0.176295 -1.45496,-0.52973 -0.343586,-0.354349 -0.515378,-0.844683 -0.515378,-1.47107 0,-1.13185 0.525227,-2.05174 1.5766,-2.75952 1.05095,-0.707362 2.4357,-1.06122 4.15363,-1.06122 1.85989,0 3.32555,0.369545 4.39711,1.10772 1.0724,0.73733 1.60882,1.75289 1.60882,3.04591l0 7.91541c0,0.506022 0.212033,0.758787 0.637083,0.758787 0.140487,0 0.251428,-0.0403101 0.332893,-0.121704l0.302431 -0.30426 0.456355 0.637083zm-5.91461 -1.72869l0 -4.39704c-2.46609,0.687171 -3.6991,1.91083 -3.6991,3.6704 0,0.60627 0.141332,1.0966 0.424136,1.47107 0.282734,0.373625 0.65678,0.560121 1.12207,0.560121 0.687242,0 1.4048,-0.434829 2.1529,-1.30456zm0 0z"/>
     </g>
    </g>
   </g>
   <g>
    <g>
     <g>
      <path id="_264534288" class="fil0" d="M15.8953 36.6133l-4.35771 0 -0.901948 2.05089 -1.20797 0 3.71521 -8.20174 1.15964 0 3.72598 8.20174 -1.22949 0 -0.903706 -2.05089zm-0.409855 -0.935926l-1.76809 -4.01947 -1.76992 4.01947 3.538 0zm0 0z"/>
     </g>
    </g>
   </g>
   <g>
    <g>
     <g>
      <path id="_264534960" class="fil0" d="M24.7647 34.4103c0.476053,0.133804 0.850522,0.374047 1.1239,0.72122 0.274221,0.347173 0.411613,0.786997 0.411613,1.31898 0,0.709964 -0.26796,1.25623 -0.803529,1.63921 -0.534654,0.382981 -1.31356,0.574472 -2.33721,0.574472l-3.91388 0 0 -8.20174 3.67941 0c0.937755,0 1.66165,0.187973 2.1726,0.563708 0.511791,0.374961 0.767721,0.893928 0.767721,1.55697 0,0.429482 -0.0997552,0.800856 -0.298844,1.11314 -0.198244,0.312773 -0.46529,0.550764 -0.80177,0.714045zm-4.34688 -2.99934l0 2.62536 2.40165 0c0.601275,0 1.06389,-0.111011 1.38869,-0.332893 0.32438,-0.222796 0.486746,-0.549428 0.486746,-0.97891 0,-0.429552 -0.162366,-0.755691 -0.486746,-0.97891 -0.324802,-0.222796 -0.787419,-0.334651 -1.38869,-0.334651l-2.40165 0zm2.69515 6.3047c0.662971,0 1.16231,-0.109112 1.49781,-0.327476 0.33648,-0.219208 0.504756,-0.563708 0.504756,-1.03259 0,-0.913555 -0.667544,-1.37083 -2.00256,-1.37083l-2.69515 0 0 2.73089 2.69515 0zm0 0z"/>
     </g>
    </g>
   </g>
   <g>
    <g>
     <g>
      <path id="_264535272" class="fil0" d="M31.8171 38.7572c-0.828151,0 -1.57442,-0.18122 -2.23872,-0.544081 -0.663534,-0.362369 -1.18475,-0.864311 -1.56414,-1.50505 -0.378479,-0.6406 -0.567296,-1.35514 -0.567296,-2.14389 0,-0.78967 0.188817,-1.50414 0.567296,-2.14396 0.379393,-0.64067 0.900611,-1.14219 1.56414,-1.50505 0.664308,-0.363706 1.41057,-0.545769 2.23872,-0.545769 0.820553,0 1.56274,0.182064 2.22627,0.545769 0.664378,0.362861 1.18384,0.862622 1.55873,1.4997 0.374469,0.636168 0.56195,1.35246 0.56195,2.14931 0,0.795931 -0.187481,1.51223 -0.56195,2.14931 -0.374891,0.637083 -0.89435,1.13727 -1.55873,1.49963 -0.663534,0.362861 -1.40572,0.544081 -2.22627,0.544081zm0 -1.04159c0.601345,0 1.14226,-0.136407 1.62317,-0.409784 0.480556,-0.274292 0.859457,-0.651434 1.13642,-1.131 0.277809,-0.480485 0.41696,-1.01739 0.41696,-1.61065 0,-0.59417 -0.139151,-1.131 -0.41696,-1.61065 -0.276965,-0.480485 -0.655866,-0.857698 -1.13642,-1.131 -0.480907,-0.274292 -1.02182,-0.411613 -1.62317,-0.411613 -0.601275,0 -1.1462,0.137322 -1.63386,0.411613 -0.488153,0.273307 -0.871135,0.650519 -1.14894,1.131 -0.276895,0.479641 -0.415201,1.01648 -0.415201,1.61065 0,0.593255 0.138307,1.13016 0.415201,1.61065 0.277809,0.479571 0.66079,0.856713 1.14894,1.131 0.487661,0.273377 1.03259,0.409784 1.63386,0.409784zm0 0z"/>
     </g>
    </g>
   </g>
   <g>
    <g>
     <g>
      <path id="_264535392" class="fil0" d="M43.6395 34.5159l1.12383 0 0 3.19976c-0.405704,0.335566 -0.87824,0.593255 -1.41733,0.773138 -0.539579,0.178968 -1.10195,0.268453 -1.68761,0.268453 -0.828081,0 -1.57442,-0.18122 -2.23879,-0.544081 -0.663464,-0.362369 -1.18468,-0.862552 -1.56407,-1.49963 -0.378479,-0.637083 -0.567296,-1.35338 -0.567296,-2.14931 0,-0.796846 0.188817,-1.51574 0.567296,-2.15649 0.379393,-0.64067 0.902862,-1.14043 1.57125,-1.4997 0.667966,-0.358781 1.41958,-0.538594 2.2549,-0.538594 0.655866,0 1.25137,0.107353 1.78603,0.322059 0.535498,0.214776 0.991432,0.529308 1.36724,0.943172l-0.726567 0.726567c-0.656358,-0.633495 -1.44912,-0.950277 -2.37837,-0.950277 -0.625475,0 -1.18602,0.135071 -1.68226,0.404438 -0.496595,0.269789 -0.885345,0.645173 -1.16681,1.12566 -0.280482,0.479641 -0.420548,1.02098 -0.420548,1.62317 0,0.593255 0.140065,1.13016 0.420548,1.61065 0.281467,0.479571 0.670217,0.856713 1.16681,1.131 0.496243,0.273377 1.05278,0.409784 1.66974,0.409784 0.733743,0 1.37441,-0.175803 1.92201,-0.527901l0 -2.67186zm0 0z"/>
     </g>
    </g>
   </g>
   <g>
    <g>
     <g>
      <path id="_264535920" class="fil0" d="M52.226 36.6133l-4.35764 0 -0.901948 2.05089 -1.20804 0 3.71521 -8.20174 1.15971 0 3.72591 8.20174 -1.22942 0 -0.903777 -2.05089zm-0.409855 -0.935926l-1.76809 -4.01947 -1.76992 4.01947 3.538 0zm0 0z"/>
     </g>
    </g>
   </g>
   <g>
    <g>
     <g>
      <path id="_264536328" class="fil0" d="M55.5764 30.4624l3.45745 0c0.867054,0 1.6366,0.171863 2.30865,0.515449 0.671483,0.343586 1.1927,0.826322 1.56407,1.44779 0.370881,0.620551 0.556533,1.33326 0.556533,2.13855 0,0.804443 -0.185652,1.51715 -0.556533,2.13855 -0.371374,0.620551 -0.892591,1.10244 -1.56407,1.44603 -0.672046,0.343586 -1.4416,0.515378 -2.30865,0.515378l-3.45745 0 0 -8.20174zm3.38767 7.18167c0.663112,0 1.24645,-0.12888 1.75022,-0.386569 0.504685,-0.257689 0.893435,-0.618299 1.16681,-1.08267 0.272955,-0.46529 0.409855,-1.0022 0.409855,-1.61065 0,-0.609365 -0.1369,-1.14627 -0.409855,-1.61065 -0.273377,-0.46529 -0.662127,-0.826815 -1.16681,-1.0845 -0.503771,-0.257689 -1.08711,-0.386569 -1.75022,-0.386569l-2.21551 0 0 6.16161 2.21551 0zm0 0z"/>
     </g>
    </g>
   </g>
   <g>
    <g>
     <g>
      <path id="_264536640" class="fil0" d="M68.9563 38.7572c-0.828151,0 -1.57442,-0.18122 -2.23879,-0.544081 -0.663464,-0.362369 -1.18475,-0.864311 -1.56407,-1.50505 -0.378549,-0.6406 -0.567367,-1.35514 -0.567367,-2.14389 0,-0.78967 0.188817,-1.50414 0.567367,-2.14396 0.379323,-0.64067 0.900611,-1.14219 1.56407,-1.50505 0.664378,-0.363706 1.41064,-0.545769 2.23879,-0.545769 0.820483,0 1.56274,0.182064 2.22627,0.545769 0.664378,0.362861 1.18377,0.862622 1.55873,1.4997 0.374469,0.636168 0.561879,1.35246 0.561879,2.14931 0,0.795931 -0.18741,1.51223 -0.561879,2.14931 -0.374961,0.637083 -0.89435,1.13727 -1.55873,1.49963 -0.663534,0.362861 -1.40579,0.544081 -2.22627,0.544081zm0 -1.04159c0.601275,0 1.14219,-0.136407 1.62317,-0.409784 0.480485,-0.274292 0.859457,-0.651434 1.13635,-1.131 0.277879,-0.480485 0.41703,-1.01739 0.41703,-1.61065 0,-0.59417 -0.139151,-1.131 -0.41703,-1.61065 -0.276895,-0.480485 -0.655866,-0.857698 -1.13635,-1.131 -0.480978,-0.274292 -1.02189,-0.411613 -1.62317,-0.411613 -0.601345,0 -1.1462,0.137322 -1.63393,0.411613 -0.488083,0.273307 -0.871064,0.650519 -1.14887,1.131 -0.276965,0.479641 -0.415201,1.01648 -0.415201,1.61065 0,0.593255 0.138236,1.13016 0.415201,1.61065 0.277809,0.479571 0.66079,0.856713 1.14887,1.131 0.487731,0.273377 1.03259,0.409784 1.63393,0.409784zm0 0z"/>
     </g>
    </g>
   </g>
   <g>
    <g>
     <g>
      <path id="_264536448" class="fil0" d="M77.4858 38.7572c-0.616963,0 -1.21289,-0.0953232 -1.78779,-0.286321 -0.57405,-0.190646 -1.02499,-0.438909 -1.35296,-0.744506l0.434899 -0.912711c0.31228,0.280553 0.712708,0.509188 1.20086,0.685483 0.487591,0.175381 0.989603,0.263036 1.50498,0.263036 0.680066,0 1.18742,-0.115021 1.52299,-0.345415 0.33641,-0.229972 0.504615,-0.536835 0.504615,-0.919816 0,-0.281397 -0.0921575,-0.510032 -0.275558,-0.685413 -0.183893,-0.176295 -0.410769,-0.311436 -0.680066,-0.404438 -0.269789,-0.0939866 -0.650519,-0.199581 -1.14177,-0.316783 -0.616963,-0.147663 -1.11489,-0.295748 -1.49429,-0.443833 -0.379393,-0.149 -0.704196,-0.377635 -0.973563,-0.685413 -0.268453,-0.308692 -0.402679,-0.72523 -0.402679,-1.24912 0,-0.437572 0.115021,-0.832161 0.345415,-1.18292 0.229972,-0.351676 0.579818,-0.632651 1.0487,-0.842925 0.468878,-0.211118 1.05053,-0.316712 1.74487,-0.316712 0.484073,0 0.960971,0.0626108 1.42985,0.187832 0.468878,0.124377 0.870642,0.303838 1.20621,0.538734l-0.386569 0.935926c-0.343586,-0.218294 -0.710457,-0.383825 -1.10054,-0.49751 -0.390157,-0.113192 -0.773138,-0.170034 -1.14894,-0.170034 -0.663464,0 -1.16147,0.121282 -1.49429,0.363354 -0.331978,0.242494 -0.49751,0.554774 -0.49751,0.937755 0,0.281819 0.0934941,0.509962 0.280975,0.685342 0.188325,0.175381 0.42097,0.312351 0.697864,0.409855 0.276543,0.0979965 0.653685,0.201762 1.13107,0.311366 0.616541,0.148085 1.11222,0.296663 1.48711,0.445592 0.375876,0.148155 0.698005,0.374047 0.966387,0.678307 0.269367,0.30419 0.404438,0.714889 0.404438,1.23125 0,0.429482 -0.117624,0.822312 -0.35252,1.17751 -0.233982,0.354349 -0.588753,0.635324 -1.06481,0.842925 -0.475983,0.206686 -1.06213,0.309607 -1.75739,0.309607zm0 0z"/>
     </g>
    </g>
   </g>
  </g>
 </g>
</svg>
