<?xml version="1.0" encoding="UTF-8"?>
<!DOCTYPE svg PUBLIC "-//W3C//DTD SVG 1.1//EN" "http://www.w3.org/Graphics/SVG/1.1/DTD/svg11.dtd">
<!-- Creator: CorelDRAW -->
<svg xmlns="http://www.w3.org/2000/svg" xml:space="preserve" width="110.328mm" height="44.094mm" version="1.1" style="shape-rendering:geometricPrecision; text-rendering:geometricPrecision; image-rendering:optimizeQuality; fill-rule:evenodd; clip-rule:evenodd"
viewBox="0 0 10129.45 4048.38"
 xmlns:xlink="http://www.w3.org/1999/xlink"
 xmlns:xodm="http://www.corel.com/coreldraw/odm/2003"
 zoomAndPan="magnify">
 <defs>
  <style type="text/css">
   <![CDATA[
    .fil0 {fill:#002E1F;fill-rule:nonzero}
    .fil1 {fill:#E58E52;fill-rule:nonzero}
   ]]>
  </style>
 </defs>
 <g id="Layer_x0020_1">
  <metadata id="CorelCorpID_0Corel-Layer"/>
  <g id="_2267363708432">
   <g>
    <g>
     <g>
      <path class="fil0" d="M1608.84 1683.24c0,210.91 -76.92,381.97 -230.77,513.17 -153.6,131.33 -354.77,196.87 -603.76,196.87 -137.03,0 -282.9,-26.83 -437.77,-80.47 -69.58,-22.52 -115.64,-33.91 -138.16,-33.91 -27.08,0 -48.46,8.47 -64.27,25.3 -15.56,16.96 -27.71,46.56 -36.44,89.08l-97.67 0 0 -831.5 97.67 0c28.98,121.46 57.44,215.97 85.53,283.41 28.33,67.18 67.05,132.09 116.4,194.84 127.78,161.69 289.48,242.41 484.83,242.41 130.19,0 233.43,-34.16 309.72,-102.74 76.17,-68.45 114.38,-161.06 114.38,-277.83 0,-89.71 -25.81,-162.58 -77.43,-218.63 -51.62,-55.92 -151.57,-118.93 -299.6,-188.77l-225.71 -107.8c-289.48,-138.92 -469.02,-297.08 -538.47,-474.2 -24.67,-69.84 -36.95,-143.98 -36.95,-222.68 0,-212.8 65.54,-380.57 196.86,-503.04 131.2,-122.48 311.24,-183.71 540,-183.71 123.49,0 254.82,25.81 394.24,77.43 67.05,22.65 114.11,33.91 141.19,33.91 31.38,0 54.28,-7.71 68.83,-23.27 14.8,-15.82 27.84,-46.18 38.97,-91.1l101.22 0 0 730.28 -94.64 0c-33.4,-109.95 -66.55,-195.09 -99.19,-255.57 -32.39,-60.73 -77.81,-120.2 -136.14,-178.65 -121.46,-125.51 -259.62,-188.26 -414.48,-188.26 -114.38,0 -204.71,30.36 -270.76,91.1 -66.17,60.48 -99.19,142.21 -99.19,245.45 0,82.99 23.4,150.31 70.35,201.92 47.19,51.62 139.3,111.21 276.32,178.65l494.95 245.45c109.95,54.02 199.02,138.16 267.21,252.53 68.45,114.38 102.74,234.57 102.74,360.34zm0 0z"/>
     </g>
    </g>
   </g>
   <g>
    <g>
     <g>
      <path class="fil0" d="M3561.55 2262.2l-208.51 23.79c-186.24,19.99 -334.4,48.84 -444.34,87.05l0 -218.63c-98.94,85.4 -183.07,143.73 -252.53,175.1 -69.59,31.38 -148.16,47.06 -235.84,47.06 -139.05,0 -248.49,-41.49 -328.45,-124.49 -79.71,-83 -119.44,-198.52 -119.44,-346.67l0 -848.19c0,-69.84 -10.12,-117.03 -30.36,-141.7 -19.99,-24.55 -64.77,-43.66 -134.62,-57.19l0 -80.98 633.11 0 0 1141.23c0,85.39 13.92,146.63 42,183.71 27.96,37.19 76.92,55.67 146.76,55.67 85.03,0 176.88,-49.34 275.81,-148.29l0 -952.44c0,-71.87 -14.04,-121.21 -42,-148.29 -28.09,-26.95 -83.5,-43.78 -166.5,-50.61l0 -80.98 676.64 0 0 1212.08c0,71.86 12.78,121.84 38.46,149.8 25.94,28.09 75.91,43.26 149.8,45.54l0 77.43zm0 0z"/>
     </g>
    </g>
   </g>
   <g>
    <g>
     <g>
      <path class="fil0" d="M5389.77 1524.83c0,249.37 -60.72,453.2 -182.19,611.35 -121.2,157.9 -276.06,236.85 -464.58,236.85 -73.89,0 -138.42,-14.05 -193.33,-42 -55.03,-27.97 -122.85,-81.23 -203.44,-159.93l0 474.71c0,112.35 17.84,189.79 53.64,232.29 35.69,42.77 105.27,66.43 208.52,70.85l0 70.85 -919.05 0 0 -80.97c80.97,-13.54 132.6,-32.14 154.86,-55.68 22.52,-23.66 33.91,-70.22 33.91,-139.67l0 -1686.27c0,-69.84 -11.89,-117.54 -35.42,-143.23 -23.66,-25.94 -72.38,-44.53 -146.26,-55.67l0 -80.98 642.72 0 0 232.29c51.62,-96.4 110.45,-166 176.62,-208.51 66.43,-42.51 148.92,-63.76 247.48,-63.76 186.23,0 337.17,72.87 452.94,218.62 115.65,145.75 173.59,335.41 173.59,568.84zm-498.5 47.06c0,-428.4 -85.28,-642.72 -255.57,-642.72 -76.67,0 -149.67,38.21 -219.14,114.37 -46.93,51.63 -70.34,91.99 -70.34,120.95l0 818.34c53.64,137.02 139.93,205.47 259.11,205.47 190.54,0 285.93,-205.47 285.93,-616.41zm0 0z"/>
     </g>
    </g>
   </g>
   <g>
    <g>
     <g>
      <path class="fil0" d="M6931.55 1956.02c-110.07,156.88 -212.81,266.19 -308.21,327.94 -95.53,61.74 -211.55,92.61 -348.19,92.61 -208.88,0 -376.78,-74.52 -503.55,-223.68 -126.9,-149.42 -190.29,-346.42 -190.29,-591.11 0,-246.59 64.41,-445.61 193.33,-597.19 129.17,-151.44 299.35,-227.23 510.63,-227.23 192.94,0 344.4,67.31 454.46,201.92 98.44,123.49 156.64,312.01 174.6,565.3l-848.19 0c11.13,208.89 45.8,361.59 104.25,458.01 67.44,114.38 166.24,171.56 296.56,171.56 71.86,0 136.26,-16.7 193.32,-50.1 57.32,-33.65 120.71,-92.11 190.29,-175.1l80.98 47.07zm-431.19 -575.93l0 -50.61c-6.83,-168.27 -16.96,-278.35 -30.36,-329.96 -26.7,-105.26 -88.31,-157.9 -184.73,-157.9 -83.37,0 -142.46,39.35 -177.12,117.91 -34.8,78.32 -54.41,218.5 -58.7,420.56l450.92 0zm0 0z"/>
     </g>
    </g>
   </g>
   <g>
    <g>
     <g>
      <path class="fil0" d="M8453.07 999.52c0,65.16 -19.74,119.18 -59.21,161.95 -39.22,42.51 -90.09,63.76 -152.84,63.76 -78.69,0 -146,-40.23 -201.92,-120.95 -36.18,-51.62 -67.56,-77.43 -94.14,-77.43 -56.43,0 -104.76,31.38 -145.25,94.14 -40.23,62.75 -60.22,138.03 -60.22,225.71l0 636.15c0,105.26 14.93,174.34 45.04,206.99 30.36,32.38 97.17,51.99 200.41,58.7l0 80.97 -895.26 0 0 -80.97c73.88,-13.41 122.6,-33.02 146.26,-58.7 23.53,-25.94 35.42,-73.64 35.42,-143.23l0 -989.39c0,-67.44 -12.39,-115.13 -36.95,-143.23 -24.67,-27.96 -72.87,-46.56 -144.73,-55.67l0 -80.98 636.14 0 0 276.33c78.57,-112.35 153.1,-193.07 223.69,-242.41 70.85,-49.22 147.78,-73.89 230.78,-73.89 78.56,0 143.72,24.67 195.35,73.89 51.62,49.34 77.43,112.09 77.43,188.26zm0 0z"/>
     </g>
    </g>
   </g>
   <g>
    <g>
     <g>
      <path class="fil0" d="M10129.45 2184.76c-118.81,127.91 -244.44,191.81 -377.04,191.81 -83,0 -145.25,-17.96 -186.75,-53.64 -41.49,-36.06 -71.23,-96.79 -89.07,-182.19 -173.08,157.27 -351.61,235.83 -535.43,235.83 -107.68,0 -196.37,-33.65 -266.2,-100.71 -69.59,-67.44 -104.25,-152.83 -104.25,-256.07 0,-143.73 75.15,-265.95 225.71,-366.91 107.54,-71.87 334.27,-160.56 680.17,-266.2l0 -245.45c0,-103.24 -22.52,-178.39 -67.31,-225.71 -44.91,-47.19 -116.78,-70.85 -215.59,-70.85 -60.72,0 -111.34,11.89 -151.82,35.42 -40.23,23.66 -60.23,53.52 -60.23,89.58 0,19.99 13.41,44.53 40.49,73.88 40.1,49.35 60.22,97.55 60.22,144.74 0,58.46 -21.25,105.65 -63.76,141.7 -42.51,35.81 -97.55,53.65 -164.99,53.65 -69.58,0 -123.35,-19.48 -161.43,-58.7 -38.21,-39.48 -57.19,-93.88 -57.19,-163.46 0,-125.76 58.2,-227.87 174.6,-306.19 116.65,-78.56 270.5,-117.91 461.55,-117.91 206.48,0 369.06,40.99 487.86,122.97 119.05,81.74 178.65,194.34 178.65,338.07l0 878.56c0,56.04 23.53,84.01 70.85,84.01 15.43,0 27.83,-4.31 36.95,-13.16l33.4 -33.92 50.61 70.85zm-656.4 -191.81l0 -488.37c-274.04,76.3 -410.93,212.05 -410.93,407.4 0,67.56 15.68,121.96 47.06,163.46 31.63,41.5 73.38,62.25 125,62.25 76.17,0 155.87,-48.2 238.87,-144.74zm0 0z"/>
     </g>
    </g>
   </g>
   <g>
    <g>
     <g>
      <path class="fil1" d="M1831.04 3800.4l-501.53 0 -107.8 240.39 -99.19 0 411.45 -899.82 93.62 0 411.45 899.82 -100.2 0 -107.8 -240.39zm-34.92 -76.92l-216.1 -483.32 -215.59 483.32 431.69 0zm0 0z"/>
     </g>
    </g>
   </g>
   <g>
    <g>
     <g>
      <path class="fil1" d="M2754.88 3576.7c58.96,12.91 104.51,38.34 136.64,76.42 32.02,38.2 48.08,87.3 48.08,147.27 0,77.31 -28.6,136.64 -85.53,178.14 -56.69,41.5 -140.94,62.25 -252.54,62.25l-413.47 0 0 -899.82 388.16 0c100.2,0 177.77,20.24 232.8,60.72 55.29,40.23 83,97.05 83,170.55 0,49.97 -12.15,92.36 -36.44,127.03 -24.28,34.41 -57.94,60.22 -100.71,77.43zm-471.67 -357.29l0 326.42 286.45 0c72.87,0 129.05,-13.79 168.52,-41.5 39.48,-27.97 59.21,-68.45 59.21,-121.46 0,-53.27 -19.73,-93.76 -59.21,-121.46 -39.47,-27.97 -95.65,-42 -168.52,-42l-286.45 0zm317.31 742.93c80.59,0 141.33,-13.66 182.19,-40.99 41.12,-27.33 61.74,-70.09 61.74,-128.55 0,-112.35 -81.36,-168.52 -243.94,-168.52l-317.31 0 0 338.06 317.31 0zm0 0z"/>
     </g>
    </g>
   </g>
   <g>
    <g>
     <g>
      <path class="fil1" d="M3550.16 4048.38c-89.08,0 -169.92,-19.87 -242.42,-59.72 -72.62,-39.73 -129.3,-94.25 -170.04,-163.46 -40.49,-69.46 -60.73,-147.52 -60.73,-234.31 0,-86.67 20.24,-164.61 60.73,-233.81 40.74,-69.47 97.41,-124.12 170.04,-163.98 72.5,-39.73 153.35,-59.71 242.42,-59.71 89.07,0 169.28,19.74 240.89,59.21 71.49,39.22 127.79,93.63 169.04,163.46 41.12,69.84 61.74,148.16 61.74,234.83 0,86.79 -20.62,164.98 -61.74,234.82 -41.24,69.84 -97.55,124.5 -169.04,163.97 -71.6,39.22 -151.82,58.71 -240.89,58.71zm0 -84.52c71.1,0 135.38,-15.94 192.82,-48.07 57.31,-32.39 102.22,-77.06 134.62,-134.11 32.65,-56.94 49.09,-120.58 49.09,-190.8 0,-70.1 -16.44,-133.73 -49.09,-190.8 -32.39,-56.93 -77.31,-101.47 -134.62,-133.61 -57.44,-32.39 -121.72,-48.59 -192.82,-48.59 -71.24,0 -135.89,16.2 -193.83,48.59 -57.69,32.13 -103.11,76.67 -136.14,133.61 -33.14,57.06 -49.6,120.7 -49.6,190.8 0,70.22 16.45,133.85 49.6,190.8 33.02,57.05 78.44,101.72 136.14,134.11 57.94,32.13 122.6,48.07 193.83,48.07zm0 0z"/>
     </g>
    </g>
   </g>
   <g>
    <g>
     <g>
      <path class="fil1" d="M4868.63 3590.88l91.09 0 0 343.12c-41.88,36.82 -91.6,65.16 -149.29,85.03 -57.45,19.6 -117.8,29.35 -181.18,29.35 -89.83,0 -170.8,-19.49 -242.92,-58.71 -71.87,-39.47 -128.42,-94.13 -169.54,-163.97 -41.24,-69.84 -61.74,-148.03 -61.74,-234.82 0,-86.67 20.5,-164.99 61.74,-234.83 41.12,-69.83 97.67,-124.24 169.54,-163.46 72.12,-39.47 153.59,-59.21 244.43,-59.21 68.46,0 131.33,11.01 188.78,32.9 57.31,21.63 105.77,53.89 145.25,96.66l-59.22 60.73c-70.85,-70.48 -161.31,-105.78 -271.26,-105.78 -72.62,0 -138.16,16.2 -196.86,48.59 -58.7,32.13 -105.02,76.67 -138.66,133.61 -33.4,57.06 -50.1,120.7 -50.1,190.8 0,70.22 16.7,133.61 50.1,190.28 33.65,56.69 79.58,101.47 137.65,134.12 58.33,32.38 123.99,48.58 196.86,48.58 92.36,0 170.81,-23.27 235.33,-69.84l0 -303.14zm0 0z"/>
     </g>
    </g>
   </g>
   <g>
    <g>
     <g>
      <path class="fil1" d="M5792.57 3800.4l-501.53 0 -107.8 240.39 -99.19 0 411.45 -899.82 93.62 0 411.45 899.82 -100.2 0 -107.8 -240.39zm-34.92 -76.92l-216.1 -483.32 -215.59 483.32 431.69 0zm0 0z"/>
     </g>
    </g>
   </g>
   <g>
    <g>
     <g>
      <path class="fil1" d="M6149.6 3140.97l365.9 0c95.15,0 179.15,19.11 252.03,57.18 72.87,38.21 129.3,91.35 169.53,159.42 40.49,68.19 60.73,146 60.73,233.3 0,87.42 -20.24,165.23 -60.73,233.3 -40.23,68.19 -96.66,121.33 -169.53,159.41 -72.88,38.21 -156.89,57.19 -252.03,57.19l-365.9 0 0 -899.82zm360.84 817.32c78.95,0 147.9,-15.43 206.99,-46.56 58.95,-31.38 104.89,-74.65 137.65,-130.06 32.64,-55.3 49.08,-118.93 49.08,-190.8 0,-71.87 -16.44,-135.38 -49.08,-190.8 -32.77,-55.29 -78.7,-98.43 -137.65,-129.56 -59.09,-31.38 -128.04,-47.07 -206.99,-47.07l-265.7 0 0 734.84 265.7 0zm0 0z"/>
     </g>
    </g>
   </g>
   <g>
    <g>
     <g>
      <path class="fil1" d="M7604.21 4048.38c-89.07,0 -169.92,-19.87 -242.41,-59.72 -72.62,-39.73 -129.3,-94.25 -170.05,-163.46 -40.48,-69.46 -60.72,-147.52 -60.72,-234.31 0,-86.67 20.24,-164.61 60.72,-233.81 40.75,-69.47 97.42,-124.12 170.05,-163.98 72.5,-39.73 153.35,-59.71 242.41,-59.71 89.08,0 169.29,19.74 240.9,59.21 71.49,39.22 127.78,93.63 169.04,163.46 41.11,69.84 61.74,148.16 61.74,234.83 0,86.79 -20.63,164.98 -61.74,234.82 -41.25,69.84 -97.55,124.5 -169.04,163.97 -71.6,39.22 -151.82,58.71 -240.9,58.71zm0 -84.52c71.11,0 135.38,-15.94 192.82,-48.07 57.31,-32.39 102.22,-77.06 134.62,-134.11 32.64,-56.94 49.09,-120.58 49.09,-190.8 0,-70.1 -16.45,-133.73 -49.09,-190.8 -32.39,-56.93 -77.31,-101.47 -134.62,-133.61 -57.45,-32.39 -121.72,-48.59 -192.82,-48.59 -71.23,0 -135.88,16.2 -193.83,48.59 -57.69,32.13 -103.11,76.67 -136.14,133.61 -33.14,57.06 -49.6,120.7 -49.6,190.8 0,70.22 16.45,133.85 49.6,190.8 33.02,57.05 78.44,101.72 136.14,134.11 57.94,32.13 122.6,48.07 193.83,48.07zm0 0z"/>
     </g>
    </g>
   </g>
   <g>
    <g>
     <g>
      <path class="fil1" d="M8537.05 4048.38c-66.8,0 -130.95,-10.63 -192.32,-31.89 -61.49,-21.51 -108.81,-49.85 -142.21,-85.03l37.45 -73.38c32.65,32.77 76.04,59.21 130.07,79.45 53.89,19.99 109.56,29.86 167.01,29.86 80.59,0 140.94,-14.67 181.17,-44.02 40.11,-29.61 60.23,-68.07 60.23,-115.39 0,-35.68 -11.01,-64.28 -32.9,-85.53 -21.64,-21.5 -48.33,-38.08 -79.96,-49.6 -31.76,-11.76 -75.92,-24.54 -132.6,-38.46 -67.82,-16.83 -121.84,-33.14 -161.95,-49.09 -40.23,-15.81 -74.65,-39.98 -103.24,-72.37 -28.72,-32.64 -43.01,-77.05 -43.01,-133.1 0,-45.17 11.89,-86.29 35.93,-123.49 23.92,-37.45 60.73,-67.31 110.33,-89.57 49.6,-22.26 111.34,-33.4 185.22,-33.4 51.24,0 101.47,7.09 150.81,21.25 49.22,14.17 91.86,33.66 128.04,58.2l-31.88 75.91c-37.84,-24.93 -78.2,-43.52 -120.95,-55.67 -42.89,-12.4 -84.9,-18.73 -126.02,-18.73 -78.95,0 -138.41,15.19 -178.13,45.55 -39.86,30.37 -59.72,69.58 -59.72,117.41 0,36.19 10.88,65.16 32.9,87.05 21.89,22.02 49.22,38.72 81.99,50.1 33.02,11.51 77.43,24.17 133.1,37.96 66.04,16.2 119.43,32.26 159.92,48.08 40.74,15.94 75.41,39.98 103.75,72.37 28.34,32.14 42.51,75.41 42.51,130.07 0,45.55 -12.39,87.05 -36.95,124.5 -24.28,37.19 -61.73,66.67 -112.35,88.56 -50.61,21.63 -112.73,32.39 -186.23,32.39zm0 0z"/>
     </g>
    </g>
   </g>
  </g>
 </g>
</svg>
