<?xml version="1.0" encoding="UTF-8"?>
<!DOCTYPE svg PUBLIC "-//W3C//DTD SVG 1.1//EN" "http://www.w3.org/Graphics/SVG/1.1/DTD/svg11.dtd">
<!-- Creator: CorelDRAW X5 -->
<svg xmlns="http://www.w3.org/2000/svg" xml:space="preserve" width="165.789mm" height="106.213mm" style="shape-rendering:geometricPrecision; text-rendering:geometricPrecision; image-rendering:optimizeQuality; fill-rule:evenodd; clip-rule:evenodd"
viewBox="0 0 185.21 118.655"
 xmlns:xlink="http://www.w3.org/1999/xlink">
 <defs>
  <style type="text/css">
   <![CDATA[
    .fil3 {fill:#002E1F}
    .fil1 {fill:#0A6C48}
    .fil8 {fill:#130877}
    .fil4 {fill:#191956}
    .fil5 {fill:#4B4B4D}
    .fil0 {fill:#5F9A91}
    .fil2 {fill:#A9ABAE}
    .fil6 {fill:#ED94A9}
    .fil7 {fill:#EDB5CB}
    .fil9 {fill:#F3ADB0}
   ]]>
  </style>
 </defs>
 <g id="Capa_x0020_1">
  <metadata id="CorelCorpID_0Corel-Layer"/>
  <g id="_262294536">
   <path id="_262176472" class="fil0" d="M9.70084 39.4068c3.27212,-0.711398 14.1968,0.855062 18.5176,1.79369 0.912148,0.198181 1.57841,0.465067 2.52419,0.64705 -0.0695981,-1.08318 -0.365641,-3.89738 0.0984204,-4.65994 -0.171258,-2.33695 0.673191,-7.46867 0.954041,-10.0569 0.365195,-3.36529 0.711621,-6.75582 0.956946,-10.11 0.109704,-1.50077 -0.136962,-3.96128 1.14329,-4.40088 1.47876,-0.507854 10.5189,3.95626 11.8526,4.65056 9.855,5.13037 19.698,13.6625 18.3208,26.2049 1.69728,0.0548518 11.5834,0.198852 12.5138,-0.0910473l0.183212 -2.1238c0.542485,0.464956 0.453561,0.604375 1.14675,0.312354 0.575888,-0.242532 -0.269344,-0.156512 0.507854,-0.206337 0.577787,0.428983 1.36917,1.20752 1.6021,2.16022l0.750609 -0.0675872c0.292804,-2.58708 4.52622,-10.78 6.68723,-13.1025l2.28355 -2.64584c0.264093,-0.302299 0.403848,-0.566616 0.702907,-0.827804 -0.29716,-0.782783 -1.46312,-1.01638 -2.21641,-1.13156 -1.0986,-0.16813 -2.2458,-0.127801 -3.33211,0.0954041l-5.13205 11.8908c-1.31845,3.01484 -0.964096,3.13538 -2.66808,2.7036 -0.0902653,-0.90377 1.75101,-8.19314 2.10213,-9.69927 0.638113,-2.73745 1.20015,-7.25708 2.51145,-9.27733l0.0947338 -0.381617c0.858972,-0.0806578 1.74453,-0.553545 2.30098,-0.954488 -0.313806,-0.78781 -0.941641,-1.19099 -2.08895,-1.1053l0.701455 -6.48636c-1.17669,0.29515 -7.12492,3.85895 -2.17977,7.13029 0.583596,0.386085 0.650737,0.409769 0.579463,1.26148 0.361396,0.311907 -0.226892,0.174051 -1.06944,0.108922 -3.47387,-0.268673 -6.99131,-1.22137 -10.2271,-2.31696 -11.0347,-3.73651 -19.8643,-9.97733 -32.4656,-10.7058 -8.49264,-0.490873 -14.8444,3.1518 -19.7807,8.91336 -1.80944,2.11185 -4.06015,6.2416 -4.96694,9.39127 -1.36102,4.72764 -1.42693,7.75309 -1.25489,12.8607 -1.16295,-0.0582032 -1.18194,-0.175839 -1.65404,0.226892z"/>
   <path id="_262176208" class="fil1" d="M60.9988 65.8463c3.11091,0.16355 6.38761,-0.0439038 9.52075,0.0246889 3.99401,0.0874724 3.57754,3.75193 3.57687,5.93349 -0.00189915,6.27735 -0.158188,12.5798 0.017204,18.6289 1.12943,-0.515786 3.7679,-4.23465 4.72228,-4.24414 0.325648,2.12503 -3.69596,11.9991 -4.82182,14.016l0.103559 1.91769c-0.48283,0.380276 -0.403848,0.0233483 -0.616105,0.598007 0.16813,0.163103 0.0232366,0.0180977 0.241638,0.182653l0.347097 0.265434 0.00134057 12.5291 13.9853 0.03128c-0.64381,-0.911143 -0.337154,-2.79789 -0.336596,-4.04719 0.000782001,-1.49351 0.00178743,-2.98702 0.000558572,-4.48064 -0.00111714,-1.45419 0.165561,-7.95139 -0.0501598,-8.73685 0.247336,-4.28257 0.135286,-9.25867 0.134504,-13.8157 -0.000782001,-4.5928 0.0100543,-9.17365 -0.00256943,-13.7407 -0.00893716,-3.2472 0.318945,-26.3448 -0.15249,-27.4056l-6.89714 -0.0444623 -0.750609 0.0675872c-0.270014,0.540028 -0.915165,0.434122 -1.74174,0.447416 -0.885672,0.0141877 -1.46257,0.207007 -1.69817,-0.589852 -0.930358,0.289899 -10.8165,0.145899 -12.5138,0.0910473 -1.65728,0.0407758 -2.96345,1.41498 -3.09572,3.25178 -0.0913824,1.26986 -0.0800993,18.2601 0.025806,19.1199z"/>
   <path id="_262176376" class="fil0" d="M160.672 63.0813c-0.339053,2.56798 -1.54266,5.02045 -1.97466,7.3793 -0.0222312,0.426749 -0.0605492,0.0617781 0.0851264,0.26197 0.692965,-0.4053 1.4839,-0.689725 2.16637,-1.04956 0.688384,-0.363072 1.48446,-0.742566 2.07621,-1.07101 1.41118,-0.783118 2.59189,-1.39855 3.98072,-2.14615 1.52725,-0.822107 3.45365,-2.39762 4.12349,-1.76107 0.653753,0.621132 -0.029716,1.08475 -0.617781,2.12079 -0.368993,0.649955 -0.748152,1.24662 -1.12575,1.84496l-1.92428 2.87385c-0.835847,1.07916 -3.50593,5.28566 -4.37999,6.36649 -0.415243,0.513328 -3.65775,4.65738 -3.78768,5.23606 -0.010948,0.322073 -0.139084,0.154725 0.0799875,0.299171 1.12742,0.0236835 3.42941,0.378153 4.16505,0.774069 0.268897,2.03499 -0.484059,7.24301 -0.586501,9.68743 0.414461,-0.817973 -0.211699,-0.805461 0.917399,-1.17278 2.30836,-0.75128 5.02101,-1.91054 7.13788,-3.01931 0.652747,-0.341958 2.05521,-1.42347 2.62294,-0.90444 0.663807,1.01638 -6.81369,9.0568 -7.77912,10.0912 -0.14724,0.157741 -0.28018,0.305427 -0.434346,0.460934 -0.356816,0.360056 -0.555444,0.56952 -0.817638,0.818867 -0.59689,0.567621 -3.24206,2.70952 -3.39969,3.26966 0.0509418,0.796971 0.614988,2.44319 0.848471,3.31691 0.220971,0.82691 0.521371,2.72594 0.983422,3.23983 0.228791,-0.517238 1.97735,-1.16205 2.51748,-1.41676l2.65333 -1.38548c6.91445,-3.76969 13.4954,-9.66319 14.6968,-17.8008 0.353129,-2.39236 0.0554104,-5.23203 -0.688273,-7.13219 -1.39732,-3.56995 -3.85337,-6.24662 -5.84959,-10.4393 -4.06965,-8.54716 4.22124,-17.3293 6.75079,-23.7646 2.61937,-6.66354 2.78102,-13.582 0.509083,-20.8398 -0.317046,-1.01269 -1.26774,-3.46248 -1.73727,-4.35407 -0.337824,-0.641241 -0.507966,-0.840875 -0.547624,-1.61673 -0.568291,0.934156 -1.44637,4.61693 -1.99131,6.03939 -0.743906,1.94204 -1.2989,3.75785 -2.08202,5.66336 -2.77979,6.76498 -4.11925,9.78205 -7.42845,16.0025l-1.25723 2.20714c-1.11614,1.93445 -6.55943,10.7489 -7.90536,11.92z"/>
   <path id="_262177192" class="fil2" d="M30.841 37.1871l0.0447975 4.74641c2.08515,1.05112 4.57191,1.27567 6.3189,4.47986 1.08855,1.99667 2.47582,7.19374 1.81491,8.95045 1.37699,-0.00983087 6.27232,-0.383404 6.90228,0.410997 0.659674,0.831937 1.63349,3.59028 2.30601,4.72954 0.827134,-0.15964 0.449874,-0.238734 0.885449,-0.840316 0.618228,-0.002346 0.836853,0.26588 1.73727,0.282191 -0.228121,-0.513551 -0.0538464,-0.220636 -0.412785,-0.634426 -0.727261,-0.838417 -2.3593,-1.95344 -2.53402,-3.4112 -0.14925,-1.2455 1.0328,-4.37351 1.73906,-4.98291l-0.187792 -0.439149c-1.66175,0.611301 -2.19184,-1.48647 -2.24982,-2.91887 -1.57953,-0.590411 -1.02699,-1.79391 -0.38642,-2.43571 1.0233,-1.0252 1.95456,-0.678889 3.30116,-0.313247 1.04878,-1.79603 3.37981,-1.42671 4.97665,-0.302746 0.785353,0.552875 1.34627,0.936279 2.16302,1.41866 1.23724,0.730836 1.26941,0.62035 2.71276,0.86601 0.0798758,0.706929 0.0425632,0.818532 -0.463503,1.16082 -3.78544,2.56038 -6.40761,-1.35454 -8.28363,-2.10794 0.306098,0.735081 0.995487,2.48118 -0.445182,2.50252 0.212034,0.449315 0.334696,0.857632 0.549858,1.28136 0.265434,0.522712 0.518467,0.789151 0.0605492,1.30125 0.721675,-0.264875 0.758653,-0.146681 1.30639,0.305539l2.95451 2.86637c0.7324,0.814733 2.49637,3.34585 2.76493,4.91644 0.262641,0.688049 0.420381,0.975491 0.373015,1.81491 -1.07212,0.674979 -1.0233,0.382063 -1.57908,0.638895 0.134504,1.46178 1.90842,2.54217 1.22964,4.49528l2.55882 -0.121657c-0.105905,-0.859866 -0.117188,-17.8501 -0.025806,-19.1199 0.13227,-1.83681 1.43844,-3.21101 3.09572,-3.25178 1.37722,-12.5424 -8.46583,-21.0745 -18.3208,-26.2049 -1.33365,-0.694305 -10.3738,-5.15841 -11.8526,-4.65056 -1.28025,0.439596 -1.03358,2.90011 -1.14329,4.40088 -0.245325,3.35423 -0.591751,6.74476 -0.956946,10.11 -0.28085,2.5882 -1.1253,7.71991 -0.954041,10.0569z"/>
   <path id="_262287696" class="fil1" d="M27.5019 83.2447l-0.0288223 13.5028c0.33559,0.260406 0.927788,0.440267 0.853275,0.893939 -0.116295,0.706929 -0.454454,0.0943987 -0.894609,0.079429l0.100208 0.398821c0.938736,-0.0500481 0.832496,-0.0291575 1.1358,0.317046 0.30364,0.34665 0.225328,0.528186 0.83864,0.47043 0.0551869,-0.442724 -0.0561924,-0.485958 -0.194607,-0.773623 5.25728,-0.122327 4.93119,2.19564 4.93141,6.38046 0.000111714,1.89166 0.00413343,3.78366 0.00502715,5.67543 0.000893716,1.56545 0.14143,3.9948 -0.0506066,5.4568l19.0018 0.0430101 -0.0446858 -0.00793173 0.00938401 -7.33104 -0.0383181 -2.448c-0.520589,-0.0318386 -0.698215,0.0635655 -1.09123,-0.193489 0.130706,-0.550082 0.544608,-0.564158 1.1196,-0.357263l-0.00916058 -7.38108c-0.643922,-0.00122886 -0.59164,0.232478 -0.845008,-0.177403 0.193378,-0.392341 0.304087,-0.323302 0.837523,-0.479255 0.0194383,-0.673862 -0.163997,-2.03075 0.160981,-2.45671l-0.150814 -0.642358c-0.017204,-0.199745 -0.00178743,-0.538687 0.000446858,-0.751391 0.0196617,-1.89658 0.104788,-9.48109 -0.0561924,-10.2292 -0.806467,-3.74813 -4.96705,-2.70148 -8.79528,-2.77968l-9.46713 0.00256943c-3.32507,0.0327323 -6.78375,-0.56036 -7.32769,2.78772z"/>
   <path id="_262287792" class="fil2" d="M9.70084 39.4068c-0.942535,0.841433 0.110374,1.60779 0.652524,2.34913 2.54888,3.48549 1.78564,2.51994 3.08723,6.79537 0.949461,3.11896 1.71716,4.38937 2.87788,7.11554 0.35905,0.843221 0.534777,1.99801 0.87707,2.98568 0.252475,0.727931 1.05358,2.29852 1.14831,2.82593l0.501486 0.613983c0.458699,0.754743 0.618786,1.00532 1.23858,1.74531 4.83388,5.77072 7.81375,5.35816 12.0663,8.09583 2.75521,1.77369 3.16733,4.01915 3.56414,4.4583 0.8764,-0.0635655 3.53777,-1.77414 4.20203,-2.30545 0.496794,-0.397368 0.86925,-1.35644 -0.209465,-1.44134 -0.204884,0.36162 -0.303416,0.360614 -0.740555,0.7715 -0.534442,0.50238 -0.818308,0.630851 -1.39844,0.999621 -0.743124,0.47244 -0.138191,0.170588 -1.10642,0.521148 -0.0768595,-0.754854 4.61492,-8.48114 5.36196,-9.71067 0.694976,-1.14384 1.27533,-2.23183 1.95914,-3.17001 -3.62603,-0.0592087 -2.67009,0.580245 -4.38155,-3.50147 -0.851376,-2.03063 -1.49999,-3.02031 -0.381393,-3.1909 0.660903,-1.75671 -0.726367,-6.95378 -1.81491,-8.95045 -1.74699,-3.20419 -4.23375,-3.42874 -6.3189,-4.47986l-0.0447975 -4.74641c-0.464062,0.762563 -0.168019,3.57676 -0.0984204,4.65994 -0.945774,-0.181983 -1.61204,-0.448869 -2.52419,-0.64705 -4.32078,-0.938625 -15.2454,-2.50508 -18.5176,-1.79369z"/>
   <path id="_262288152" class="fil0" d="M89.2532 20.45c-0.403959,0.371562 -0.617781,0.934826 -0.758764,1.46379 1.91389,0.291575 3.80298,1.23992 4.67983,2.29629 0.696093,-0.226892 1.65773,-1.22428 2.28445,-1.6965 0.75128,-0.566057 1.44681,-1.03034 2.28858,-1.60243 2.66674,-1.81246 2.95183,-1.54859 5.01497,-2.74047 2.78951,-1.61159 8.60413,-3.05226 12.1887,-3.50303 7.31584,-0.919968 13.6492,0.0149697 20.2876,2.56966 0.452667,0.174275 0.97482,0.314476 1.41464,0.510535l3.90866 2.00784c0.10423,0.398821 -0.0392118,0.185669 -0.259513,0.658333 1.03381,-0.164891 0.338271,-0.723016 2.44107,0.672633 0.430436,0.285654 0.714079,0.551087 1.12675,0.810823 1.05425,0.66336 1.27667,0.843667 2.21787,1.66186l2.59736 2.17575c0.382399,0.383404 0.217731,0.367317 0.568515,0.556338l8.98408 -8.9643c-0.0855733,-2.9668 0.22544,-4.78317 1.45441,-7.04103 0.494448,-0.90835 1.16965,-1.8453 1.76755,-2.41616 0.576447,-0.550529 1.57205,-1.50859 2.08292,-2.20446 -0.0345198,0.00491544 -0.0910473,-0.0412226 -0.104565,-0.00714972 -0.0936167,0.236723 -1.00018,-0.357933 -1.00051,-0.358045 -0.252475,-0.12769 -0.285542,-0.125679 -0.537682,-0.214939 -0.713744,-0.252921 -1.48089,-0.539357 -2.23373,-0.746588 -12.7726,-3.51588 -23.1471,-2.07443 -35.2922,3.04668 -5.78022,2.43727 -11.194,4.90773 -16.7048,7.47236 -4.51561,2.10157 -12.6667,5.25438 -18.3364,5.8754l-0.0798758 -0.283196z"/>
   <path id="_262288224" class="fil0" d="M106.956 87.2999c0,1.86139 0.274482,1.38816 -0.652636,1.69147 -0.720893,0.235829 -0.745135,0.960856 0.219072,0.59164 0.0456912,-0.0174275 0.256273,-0.0736198 0.284648,-0.13618 0.0315035,-0.0697098 0.0967447,-0.0549635 0.148915,-0.0736198 0,3.44784 0.233148,24.8399 -0.14925,26.3486l-1.19345 -0.0279286c-0.352906,-1.67683 0.0182095,-18.0595 -0.106911,-21.6538 -0.916282,0.0914941 -3.09203,-1.14619 -4.03479,-1.53149l0.539581 -0.209129c0.488862,-0.255938 0.52327,-0.612195 0.464174,-0.928459l-0.577899 -0.0528409c-0.614206,0.122998 -0.476239,0.522377 -0.616217,1.01783 -0.371897,-0.378265 -0.357598,-0.215274 -0.94421,-0.469201l-3.7021 -2.26937c-0.493108,-0.374914 -0.976608,-0.767478 -1.4114,-1.0433l-0.0198852 27.1167 -2.43146 0.0615547c2.41381,0.987221 7.27909,0.777868 10.1074,1.17043 0.14724,-0.100766 5.86166,-0.537235 6.6879,-0.660009 4.79478,-0.71285 7.46051,-1.50636 11.8784,-3.07237 1.29086,-0.457582 4.57325,-2.09163 5.21047,-2.12034 -0.561477,-1.1091 -5.03653,-11.6094 -5.71933,-13.3838 -0.526398,-1.36828 -3.12264,-7.10325 -3.28496,-8.00043 -3.26698,0.0837858 -6.48715,-1.30717 -8.45779,-1.61126 0.146011,-0.20265 1.04576,-0.785464 0.169918,-0.958845 -0.467972,-0.0926113 -0.780102,0.42418 -0.913824,0.634203 -0.441831,-0.182988 -1.18361,-0.531314 -1.49429,-0.429989z"/>
   <path id="_262287648" class="fil3" d="M58.4399 65.968c-1.15032,1.03112 -3.77014,0.86858 -5.7038,0.785576 -1.7681,-0.0758541 -4.09936,-0.995487 -5.37279,-0.821771 -1.00297,0.148915 -0.988896,0.0254709 -1.20395,0.910696 -0.134169,0.552428 -0.282414,0.929241 -0.51869,1.44603 -0.422951,0.925219 -0.880757,1.63718 -1.35476,2.41761l0.0107246 9.74764c3.82823,0.0782001 7.98881,-0.968452 8.79528,2.77968 0.160981,0.748152 0.0758541,8.33267 0.0561924,10.2292 -0.00223429,0.212704 -0.0176509,0.551646 -0.000446858,0.751391l0.150814 0.642358c0.851376,-1.08061 2.27484,-2.38499 3.50392,-3.30753 2.3841,-1.78933 4.53427,-4.71871 6.07537,-7.37505 0.389883,-0.672074 0.813058,-1.33197 1.18954,-2.09398 0.634426,-1.28438 0.732847,-1.9063 1.36873,-1.92573 0.348884,1.08765 0.0712738,5.20589 -0.0341846,6.58277 -0.149362,1.94986 -0.283084,2.70572 -0.566839,4.49952 -0.132828,0.839869 -0.0454678,0.34989 0.0928347,0.48417 0.0260295,0.0253592 0.138414,0.093505 0.167907,0.11797l0.191143 0.174275c0.0180977,-0.0317269 0.0757424,0.0615547 0.0968564,0.104006 -1.24517,1.31857 -0.444847,-0.438144 -1.32605,2.64115l-0.727261 2.15721c-0.23326,1.08754 -0.25996,0.403177 0.163215,0.643028 0.292357,-0.258396 3.54883,-1.49407 5.7333,-2.9973 0.90511,-0.622808 1.78777,-1.29209 2.5596,-1.91836 0.494113,-0.400943 0.753402,-0.608062 1.19769,-1.04252 0.438032,-0.428313 0.890364,-0.586277 1.12932,-1.16663 -0.175392,-6.04911 -0.0191032,-12.3516 -0.017204,-18.6289 0.000670287,-2.18156 0.417142,-5.84602 -3.57687,-5.93349 -3.13314,-0.0685927 -6.40984,0.138861 -9.52075,-0.0246889l-2.55882 0.121657z"/>
   <path id="_262287912" class="fil3" d="M137.057 40.8949c0.382957,0.633533 0.915612,1.22495 1.3675,1.83413 3.32127,4.47673 4.67715,10.8651 3.77304,16.505 -0.836629,5.21852 -3.12543,7.93932 -3.3101,8.69004 -0.256832,1.04397 0.127466,-0.109368 -1.24249,1.55741 -0.587283,0.714414 -0.729384,0.912372 -1.41687,1.56959 -0.469536,0.448757 -0.971357,1.07547 -1.49496,1.49653 -0.553657,0.445294 -1.07011,0.890364 -1.58288,1.33622 0.730277,1.64388 4.13276,10.2367 4.7463,10.8943 0.654311,-0.49981 1.62545,-1.06252 2.3059,-1.53473 0.465291,-0.322855 0.696875,-0.521483 1.1062,-0.838975 0.327994,-0.254374 0.817973,-0.665483 1.04531,-0.893157l-1.26215 -1.13893c0.216391,-0.7181 0.347097,-0.706482 0.755078,-1.17066 0.263423,-0.299618 0.52975,-0.602141 0.621914,-0.91874 0.60862,0.578681 1.29667,0.848583 2.26211,1.17915 0.358939,-0.660567 0.742342,-0.887236 1.26293,-1.47351 1.22137,-1.37543 2.29584,-2.9525 3.25703,-4.51047 0.461939,0.0614429 1.35219,0.369887 1.80922,0.549858 0.72525,0.28543 0.4835,0.545613 0.35056,1.2598 0.153831,-0.224658 0.32062,-0.486516 0.702796,-0.525952 0.38117,0.561477 -0.106017,0.640682 -0.40854,1.28472l0.402731 0.215162c1.22283,-0.15182 0.784012,-0.264428 1.0862,-0.917511 0.00122886,-0.00256943 0.891146,-1.22729 0.413008,-1.60534 -2.02862,-1.60355 0.548853,-0.795295 -3.26698,-1.93422 0.00469201,-0.590746 2.16313,-4.567 2.82772,-7.62518 -0.378824,0.275488 -0.753067,0.195165 -1.12239,0.0663584 0.0846795,-0.801886 0.710727,-0.982193 1.27589,-0.462945 0.513216,-3.50214 1.21244,-5.49512 0.965548,-9.45294 -0.398374,-6.38884 -2.10526,-12.2489 -5.64225,-17.4967 -0.176732,-0.262194 -0.349219,-0.48808 -0.553545,-0.790156l-2.74147 -3.47052c-0.70503,0.419376 -8.07461,7.92782 -8.29234,8.32239z"/>
   <path id="_262288872" class="fil0" d="M151.577 28.7861c1.73515,2.44085 2.65981,3.06075 4.5785,6.54066 0.736645,1.33599 1.33834,2.49369 1.80922,3.70143 1.69538,4.3477 3.20676,8.63318 3.32998,13.5896 0.0702684,2.82515 0.244208,7.92681 -0.621914,10.4635 1.34594,-1.1711 6.78922,-9.9856 7.90536,-11.92l1.25723 -2.20714c3.30921,-6.22048 4.64866,-9.23756 7.42845,-16.0025 0.783118,-1.90551 1.33812,-3.72132 2.08202,-5.66336 0.544943,-1.42246 1.42302,-5.10524 1.99131,-6.03939 0.301741,-1.48323 0.227451,-1.91099 -1.30605,-2.03678 -0.923543,0.652859 -2.53312,0.776974 -3.71797,1.1406l-10.8404 3.33557c-3.87794,1.23556 -6.89602,2.45917 -10.5722,3.78142 -0.983311,0.353688 -2.53815,0.911702 -3.3235,1.31644z"/>
   <path id="_262289040" class="fil3" d="M87.6904 98.4647c0.215721,0.785464 0.0490426,7.28266 0.0501598,8.73685 0.00122886,1.49362 0.000223429,2.98713 -0.000558572,4.48064 -0.000558572,1.2493 -0.307215,3.13605 0.336596,4.04719l0.694752 -0.0121769c0.589517,-0.800099 0.300735,-7.22212 0.301629,-8.66502l-0.00245772 -45.2545c0.00469201,-5.93349 -0.229908,-12.3267 0.0251357,-18.2009 2.35829,-0.483724 4.67045,0.0363072 5.57388,1.50971 0.839757,1.36962 0.500592,4.89466 0.498582,6.83368 -0.00469201,4.7835 -0.15182,9.84886 0.0287106,14.5996 0.505508,-0.259736 0.495454,-0.238175 0.70436,-0.112161 -0.397368,0.730501 -0.638783,0.394687 -0.730054,0.896173l0.00916058 11.6755c0.50372,0.217173 1.96338,1.82631 2.88436,2.59222 3.39992,2.82794 6.91579,4.52544 7.47135,4.999l-0.0299395 7.44923c0.12512,3.5943 -0.245995,19.977 0.106911,21.6538l1.19345 0.0279286c0.382399,-1.5087 0.14925,-22.9008 0.14925,-26.3486 -0.0521706,0.0186563 -0.117412,0.00391001 -0.148915,0.0736198 -0.0283755,0.0625601 -0.238957,0.118752 -0.284648,0.13618 -0.964207,0.369216 -0.939965,-0.35581 -0.219072,-0.59164 0.927118,-0.303305 0.652636,0.169918 0.652636,-1.69147l-0.0478138 -23.0932 -6.36169 -14.6473c-1.378,3.98039 -1.09134,8.98262 0.205108,12.7706 0.653976,1.91121 1.53563,3.48337 2.53022,4.93543 2.2201,3.24139 2.40912,1.62701 2.23328,5.17472 -1.17244,-0.55388 -3.11393,-3.12365 -3.95179,-4.35452 -0.529638,-0.778091 -1.01046,-1.61818 -1.47742,-2.55614 -1.37353,-2.75868 -0.472887,-1.90361 -1.49094,-2.20558 0.301406,-1.03928 0.337489,-0.454789 -0.0077083,-1.66913 -1.18764,-4.17745 -1.09681,-8.85505 0.240968,-12.9179 0.609402,-1.85077 0.867798,-1.33778 0.118752,-3.12722 -0.497688,-1.1892 -3.4341,-8.22028 -3.78913,-8.80265l-3.58458 0.0183212c-1.1453,1.38302 -1.99064,3.71227 -2.49201,3.95357l-0.0455795 -4.03602 -1.33175 -0.0268115 0.00346315 61.225c0.711621,-0.132158 0.740778,-0.310231 1.15044,0.000782001 -0.202427,0.577787 -0.511205,0.578234 -1.16708,0.523047z"/>
   <path id="_262288608" class="fil3" d="M89.489 34.6154l0.120987 0.890476 4.34234 -0.0165337 0.113055 -0.561365c4.34413,-0.231249 10.9497,-0.0199969 15.7297,-0.00893716 3.33859,0.0077083 3.47644,-1.07927 7.87821,-1.56389 2.20368,-0.242644 3.98821,0.090377 5.95404,0.0227897 0.920527,-0.0316152 -0.0348549,-0.026588 1.00018,0.296714 2.91932,0.911813 4.60554,1.01973 7.80459,3.24832 0.672409,0.468307 1.16473,0.822442 1.80486,1.32706 0.386197,0.304422 1.39152,1.11189 1.55417,1.57462 0.333691,-0.45937 0.669616,-0.667159 1.0261,-1.03749 1.19378,-1.23992 6.8472,-6.73269 7.30277,-7.47068l-3.4226 -2.9506c-0.977501,-0.745806 -1.40581,-1.12597 -2.54932,-1.78207 -0.503385,-0.28867 -0.762898,-0.484729 -1.2874,-0.796524 -0.726591,-0.432 -2.02728,-0.900418 -2.72092,-1.36515l-0.0860201 0.14143c-0.351789,0.424627 -0.417477,0.368658 -0.948679,0.493108 0.154836,-0.513216 0.0688161,-0.255044 0.303416,-0.568068l0.280962 -0.269008c0.0158635,-0.0567509 0.0702684,-0.0447975 0.0986439,-0.074737 -1.31376,-0.108028 -5.41837,-2.4108 -11.4255,-2.68349 -8.89783,-0.403848 -16.3791,1.96338 -23.2625,7.24669 -0.871149,0.668723 -1.1692,0.898966 -1.90931,1.67024 -0.763568,0.795854 -3.25402,2.98333 -3.74891,3.9338 -0.386867,-0.255938 -1.62388,-0.722122 -1.87647,-1.08285 -0.958286,0.280292 -0.30889,0.518243 -0.972474,0.388208l-0.573989 -0.274594 -0.529973 1.27254z"/>
   <path id="_262288416" class="fil2" d="M93.1744 24.2103c1.5344,1.9979 0.193713,5.52852 -0.94745,7.62038 -0.525393,0.962867 -0.459481,1.17758 -2.15218,0.706817 0.246889,-1.36649 1.88462,-4.6786 0.372344,-5.6551 -0.29906,0.261188 -0.438814,0.525505 -0.702907,0.827804l-2.28355 2.64584c-2.161,2.32254 -6.39442,10.5155 -6.68723,13.1025l6.89714 0.0444623 0.182206 -6.49698 -0.806802 -0.281856c-1.1911,-0.506625 -0.328776,-1.57651 -0.251693,-1.81346l2.81398 -0.0617781c0.0516121,-0.591081 0.0757424,-0.0508301 -0.119311,-0.234377l0.529973 -1.27254 0.573989 0.274594c0.663584,0.130036 0.0141877,-0.107916 0.972474,-0.388208 0.252586,0.360726 1.4896,0.82691 1.87647,1.08285 0.494895,-0.950466 2.98535,-3.13795 3.74891,-3.9338 0.740108,-0.771277 1.03816,-1.00152 1.90931,-1.67024 6.8834,-5.28331 14.3647,-7.65054 23.2625,-7.24669 6.00711,0.272695 10.1117,2.57546 11.4255,2.68349 -0.0283755,0.0299395 -0.0827804,0.017986 -0.0986439,0.074737l-0.280962 0.269008c-0.2346,0.313024 -0.14858,0.0548518 -0.303416,0.568068 0.531202,-0.12445 0.59689,-0.068481 0.948679,-0.493108l0.0860201 -0.14143c0.693635,0.464732 1.99433,0.933151 2.72092,1.36515 0.524499,0.311795 0.784012,0.507854 1.2874,0.796524 1.14351,0.656099 1.57182,1.03626 2.54932,1.78207l3.4226 2.9506c0.64381,-0.223652 2.0122,-1.89769 2.59971,-2.49213 0.873272,-0.883661 1.69884,-1.6679 2.53435,-2.5319 -0.350783,-0.189021 -0.186116,-0.172934 -0.568515,-0.556338l-2.59736 -2.17575c-0.941194,-0.818197 -1.16362,-0.998504 -2.21787,-1.66186 -0.412673,-0.259736 -0.696316,-0.52517 -1.12675,-0.810823 -2.1028,-1.39565 -1.40727,-0.837523 -2.44107,-0.672633 0.220301,-0.472664 0.363742,-0.259513 0.259513,-0.658333l-3.90866 -2.00784c-0.43982,-0.196059 -0.961973,-0.33626 -1.41464,-0.510535 -6.63841,-2.55469 -12.9717,-3.48962 -20.2876,-2.56966 -3.58458,0.450768 -9.39921,1.89144 -12.1887,3.50303 -2.06314,1.19188 -2.34824,0.928012 -5.01497,2.74047 -0.841768,0.57209 -1.5373,1.03637 -2.28858,1.60243 -0.626718,0.472217 -1.58836,1.4696 -2.28445,1.6965z"/>
   <path id="_262288680" class="fil2" d="M2.74136 81.5332c-1.59417,1.14731 -4.83902,-0.0161986 -0.777197,5.05363l2.83442 3.02199c0.691959,0.306098 1.2626,0.81518 2.03443,1.22204 0.772394,0.407087 1.49697,0.700226 2.35014,0.920304 4.61291,1.19021 11.8131,-1.32683 16.6181,-2.38063 -0.21896,-0.524164 -0.386085,-0.285319 -0.315928,-0.918628 0.546284,-0.0908238 0.349554,-0.0964096 0.648167,0.250575 0.535671,0.622473 -0.25996,0.465514 0.635655,0.493666 1.50893,0.0474786 0.12054,-4.17477 0.732735,-5.95136 0.543938,-3.34808 4.00262,-2.75499 7.32769,-2.78772 -0.208794,-1.06185 -1.93545,-3.50057 -2.5052,-4.21454 -3.27647,-4.10506 -7.55011,-7.12906 -13.4925,-5.0438 -5.11149,1.79369 -11.7421,8.73875 -16.0905,10.3345z"/>
   <path id="_262288536" class="fil3" d="M34.1976 115.646c0.192037,-1.46201 0.0515004,-3.89135 0.0506066,-5.4568 -0.000893716,-1.89177 -0.00491544,-3.78377 -0.00502715,-5.67543 -0.000223429,-4.18482 0.325871,-6.50279 -4.93141,-6.38046 0.138414,0.287665 0.249793,0.330898 0.194607,0.773623 -0.613312,0.0577564 -0.535,-0.12378 -0.83864,-0.47043 -0.303305,-0.346203 -0.197064,-0.367094 -1.1358,-0.317046l-15.4719 0.0325089c-4.23476,0.0987556 -3.50582,4.33944 -3.50649,6.95914 -0.000335143,1.67348 -0.103448,9.56991 0.0565275,10.5295l25.5875 0.00536229z"/>
   <path id="_262289712" class="fil1" d="M88.7718 115.718l4.00049 0.014858 2.43146 -0.0615547 0.0198852 -27.1167 -0.0428983 -9.55449 -0.00916058 -11.6755c0.0912707,-0.501486 0.332686,-0.165673 0.730054,-0.896173 -0.208906,-0.126014 -0.198852,-0.147575 -0.70436,0.112161 -0.180531,-4.75077 -0.0334026,-9.81612 -0.0287106,-14.5996 0.00201086,-1.93903 0.341176,-5.46407 -0.498582,-6.83368 -0.903435,-1.4734 -3.21559,-1.99343 -5.57388,-1.50971 -0.255044,5.87417 -0.0204437,12.2674 -0.0251357,18.2009l0.00245772 45.2545c-0.000893716,1.4429 0.287888,7.86492 -0.301629,8.66502z"/>
   <path id="_262289376" class="fil2" d="M145.35 32.5733l2.74147 3.47052c0.204326,0.302076 0.376813,0.527962 0.553545,0.790156 3.53699,5.24779 5.24388,11.1079 5.64225,17.4967 0.246889,3.95782 -0.452332,5.9508 -0.965548,9.45294 -0.565163,-0.519249 -1.19121,-0.338942 -1.27589,0.462945 0.369328,0.128807 0.743571,0.209129 1.12239,-0.0663584 -0.664589,3.05818 -2.82302,7.03443 -2.82772,7.62518 3.81583,1.13893 1.23835,0.330675 3.26698,1.93422 0.478138,0.378042 -0.411779,1.60277 -0.413008,1.60534 -0.302188,0.653083 0.136627,0.765691 -1.0862,0.917511l0.319392 2.45236 0.231919 -0.0453561 1.64365 0.00558572 0.555891 -0.933821c0.0168689,-0.0274818 0.0399938,-0.0645709 0.0579798,-0.091159 0.0178743,-0.026588 0.0444623,-0.0612195 0.0635655,-0.0870256 1.09022,-1.47351 0.696093,-0.848806 1.76397,-2.88737l1.54758 -3.2519c0.154389,-0.433899 0.169918,-0.704471 0.406641,-0.963202 0.432,-2.35885 1.63561,-4.81132 1.97466,-7.3793 0.866122,-2.5367 0.692183,-7.63836 0.621914,-10.4635 -0.123221,-4.95643 -1.63461,-9.24191 -3.32998,-13.5896 -0.470876,-1.20774 -1.07257,-2.36544 -1.80922,-3.70143 -1.9187,-3.4799 -2.84336,-4.09981 -4.5785,-6.54066 -0.528633,-0.472887 -0.930023,-0.721899 -1.17915,-1.32594 -0.86992,0.815069 -1.65192,1.6574 -2.51693,2.52698 -0.645598,0.649061 -2.16871,1.93299 -2.53167,2.58619z"/>
   <path id="_262289448" class="fil0" d="M74.1136 90.4335c-0.238957,0.580357 -0.691289,0.738321 -1.12932,1.16663 -0.444288,0.434457 -0.703578,0.641576 -1.19769,1.04252 -0.771835,0.626271 -1.65449,1.29555 -2.5596,1.91836 -2.18446,1.50323 -5.44094,2.7389 -5.7333,2.9973l-0.218513 0.152825c-0.497018,0.402619 -0.374243,0.441384 -0.679112,1.11927 -0.786693,1.74934 -2.54307,4.649 -3.88554,5.85272 -0.720111,0.645598 -0.423286,0.0539581 -1.34069,0.250017 -0.733405,0.156735 -0.433564,0.49456 -0.201309,0.809036l0.203544 0.231584c-0.393682,0.222982 -0.665036,0.525728 -0.953036,0.728937 -0.787699,0.555779 -2.38265,1.65282 -3.25491,1.64701l-0.00938401 7.33104c6.20842,-0.440378 10.125,-2.58328 14.0585,-6.10352 1.03023,-0.921979 2.8829,-3.11627 3.73562,-4.33296 0.583261,-0.832273 0.847577,-1.77012 1.97958,-2.03957 0.0269232,-1.01157 -0.359385,-0.48741 0.271131,-1.52557 0.331568,-0.545837 0.50763,-0.929576 0.81451,-1.47374 1.12586,-2.01689 5.14747,-11.891 4.82182,-14.016 -0.954376,0.00949573 -3.59285,3.72836 -4.72228,4.24414z"/>
   <path id="_262289760" class="fil0" d="M126.74 107.12l18.8287 0.0227897c-0.0965213,-0.878187 -3.55062,-8.846 -4.19253,-10.2082 -0.446523,-0.947674 -0.878746,-2.38566 -1.41241,-3.17995l-18.886 -0.0922761c0.0547401,0.887348 3.57095,8.62424 4.16393,10.0717 0.457024,1.11525 0.994259,2.54575 1.49831,3.38595z"/>
   <path id="_262289616" class="fil3" d="M128.096 50.9302c0.888465,1.5344 1.38571,3.33579 1.23132,5.46172 -0.0710504,0.97739 -0.335367,1.93847 -0.679559,2.74739 -0.374467,0.880422 -1.09078,1.52122 -0.780437,2.34422 0.933151,2.4747 3.4808,7.65065 4.09311,9.66654 0.681235,-0.03128 0.316822,-0.32252 0.947785,-0.0154166 0.0624484,0.030498 0.325648,0.958733 0.504391,-0.159863 0.0379829,-0.237393 -0.319838,-0.492549 0.484059,-0.754296 0.855286,-0.278728 0.233483,0.334138 0.937508,-0.400161 2.83766,-2.95987 4.82551,-6.50804 5.52718,-10.9148 0.921086,-5.78491 -0.877405,-12.7438 -4.6834,-16.6336 -0.520813,0.263758 -3.71808,3.47108 -4.26325,4.14248 0.123109,0.683804 0.380053,0.573319 0.467078,1.34426 -1.06654,1.05995 -2.71812,1.96986 -3.78578,3.17157z"/>
   <path id="_262289856" class="fil2" d="M126.656 111.05c-0.637219,0.0287106 -3.91961,1.66276 -5.21047,2.12034 -4.41786,1.56601 -7.08359,2.35952 -11.8784,3.07237 -0.82624,0.122774 -6.54066,0.559242 -6.6879,0.660009 3.92419,0.629064 7.32042,1.37856 11.545,1.61673 8.32373,0.469312 16.0009,-0.255826 23.8809,-2.6731 2.12347,-0.651407 8.34027,-2.86737 9.49483,-3.87225 -0.0970798,-0.484729 -1.08341,-2.65959 -1.41375,-3.33199l-18.9784 0.0186563c0.0213375,0.877405 2.6502,5.54618 2.38544,6.88686 -1.42492,0.406082 -1.13569,0.0391001 -2.00561,-1.8854 -0.341958,-0.756307 -0.700003,-1.92238 -1.13167,-2.61222z"/>
   <path id="_262289328" class="fil3" d="M127.717 74.6226c0.158746,-0.458811 -0.354358,-0.650401 0.746811,-0.988003 0.478808,0.328999 0.129254,0.123668 0.449427,0.515897l2.35349 -1.34247c-0.648837,-0.165561 -0.17852,0.137297 -0.751726,-0.256161 0.236164,-1.13189 0.743124,0.279063 -0.30431,-2.19474l-2.80336 -6.59774c-0.688273,-0.0465849 -1.85223,-0.0754072 -2.53022,-0.0239069 -2.27082,0.172711 -2.98188,2.34466 -8.7974,0.148245 -0.781554,-0.29515 -7.00997,-0.183212 -7.89754,-0.11339 0.264316,1.23869 1.85446,4.51516 2.4347,5.88266l1.86027 4.40367c0.330004,0.774628 0.337936,0.743013 1.21825,1.01515 3.60447,1.11413 7.15363,1.35633 10.9473,0.52718 0.533101,-0.116406 1.18685,-0.236276 1.584,-0.505955 1.24495,-0.845231 0.66202,-0.191367 1.49027,-0.47043z"/>
   <path id="_262290600" class="fil1" d="M146.037 81.827c-0.227897,2.09498 -0.393905,4.16192 -0.591081,6.23981 -0.0996493,1.05101 -0.211587,2.05085 -0.287218,3.15962 -0.220524,3.23123 -0.835847,3.09516 1.52557,3.16789 1.27656,0.0393235 4.15164,0.209576 5.06871,0.16355l0.143218 0.549188 -0.0224546 -0.453337c2.09722,0.400831 4.35776,-0.147463 6.52033,0.535671 1.49977,-0.198293 2.90301,0.00860201 4.35463,-0.159863l0.204214 -1.13189c0.102442,-2.44442 0.855397,-7.65244 0.586501,-9.68743 -0.73564,-0.395916 -3.03763,-0.750386 -4.16505,-0.774069 0.443841,0.960186 1.02163,2.02628 1.21233,3.15549 -0.582926,0.493108 -1.34772,0.992136 -2.07711,1.31209 -0.57991,-1.16406 -3.51565,-5.00224 -4.19063,-5.35883 -0.544273,-0.287553 -7.40052,-1.40213 -8.09729,-1.31566l-0.184664 0.597784z"/>
   <path id="_262290144" class="fil0" d="M2.74136 81.5332c4.34837,-1.59573 10.979,-8.54079 16.0905,-10.3345 5.94243,-2.08526 10.2161,0.938736 13.4925,5.0438 0.569744,0.713967 2.2964,3.15269 2.5052,4.21454l9.46713 -0.00256943 -0.0107246 -9.74764c-0.21829,0.183994 -0.0596555,0.03519 -0.26387,0.274259 -0.561588,0.657104 -2.45191,3.03394 -2.54061,3.66189 0.653753,0.839757 1.13681,0.404295 1.25042,1.04554 -0.0971916,0.799652 -0.00346315,0.330898 -0.371451,0.672968 -1.13904,1.05883 -2.36008,2.69399 -3.65496,3.14677 0.249123,-1.62801 0.213598,-1.40972 1.25656,-2.11587 -0.0497129,-0.000893716 -0.237393,0.028934 -0.261524,0.0261412 -0.321514,-0.0375361 -0.029716,0.0713855 -0.269344,-0.0871373 0.171147,-0.561142 0.567063,-1.27868 0.733294,-1.66622l1.27455 -5.5388c-0.389883,0.19159 -1.93009,1.46089 -2.15173,1.82821 0.0990907,0.387873 0.164109,0.472105 0.419599,0.690619 1.07871,0.084903 0.706259,1.04397 0.209465,1.44134 -0.664254,0.531314 -3.32563,2.24189 -4.20203,2.30545 -0.39681,-0.439149 -0.808924,-2.68461 -3.56414,-4.4583 -4.25252,-2.73767 -7.23239,-2.32511 -12.0663,-8.09583 -0.619792,-0.739996 -0.779879,-0.990572 -1.23858,-1.74531l-0.501486 -0.613983c0.193936,3.21 0.376366,4.79791 -1.81838,6.82162 -1.50569,1.38828 -3.97011,1.98114 -6.1806,2.77197 -2.08135,0.744688 -4.11422,1.96003 -5.25549,3.724 -2.23831,3.45957 -1.55372,4.51081 -2.34801,6.73705z"/>
   <path id="_262290048" class="fil3" d="M81.1193 20.9281c0.0712738,-0.851711 0.00413343,-0.875394 -0.579463,-1.26148 -4.94515,-3.27133 1.00308,-6.83514 2.17977,-7.13029l-0.701455 6.48636c1.14731,-0.085685 1.77514,0.317492 2.08895,1.1053 -0.55645,0.400943 -1.44201,0.87383 -2.30098,0.954488l-0.0947338 0.381617c0.94745,0.396698 2.05242,0.896173 3.25011,1.08989 0.566169,0.0916058 1.40917,0.214603 1.99343,0.184999 0.943652,-0.0478138 0.964096,-0.339612 1.53898,-0.824899 0.140984,-0.528968 0.354805,-1.09223 0.758764,-1.46379 0.0649061,-0.60728 2.30925,-5.1745 2.75611,-5.95907 5.7343,0.974485 8.55219,-1.31633 8.27,-7.1295 -0.548965,-0.14467 -0.509641,-0.249458 -0.98264,-0.446523 -0.283643,1.66991 -1.27321,2.88737 -2.65702,3.33669 -2.65646,0.862659 -3.2357,-0.37469 -5.80167,-1.06777 -1.11536,-0.301406 -0.46652,-0.0145229 -1.10296,0.146458 -1.71884,0.434681 -1.62924,-0.836183 -3.40472,-1.01347 -1.6193,-0.161763 -2.85039,-0.407423 -4.09646,0.226445 -2.47034,1.25645 -5.60885,3.1556 -6.30192,5.80133 -0.405412,1.5478 0.0990907,3.62279 0.881092,4.71167 1.1539,1.60679 2.18435,1.41486 4.30682,1.87155z"/>
   <path id="_262290168" class="fil3" d="M119.33 89.7755c3.2872,-0.0134057 6.40425,-0.222088 9.56924,-1.10441 1.41118,-0.393347 2.71846,-0.827916 4.02764,-1.36571 1.36057,-0.558796 2.60775,-1.30382 3.69004,-1.77894l-2.87642 -6.84564 -11.5496 0.00111714c-0.48216,0.266662 -0.354246,0.660232 -1.16183,0.683581l-0.138302 -0.68481 -6.31265 0.00502715c0.0876958,0.70179 0.494113,1.46849 0.755525,2.06728 0.893492,2.04661 0.348884,1.14842 1.17244,1.80531 -0.115066,1.31209 0.379606,1.84128 1.1444,3.63832 0.255714,0.600912 1.17926,3.26642 1.67951,3.57888z"/>
   <path id="_262290456" class="fil0" d="M159.404 18.4626l-9.00653 8.99737c0.249123,0.60404 0.650513,0.853051 1.17915,1.32594 0.785353,-0.404741 2.34019,-0.962755 3.3235,-1.31644 3.67619,-1.32225 6.69426,-2.54586 10.5722,-3.78142l10.8404 -3.33557c1.18484,-0.363631 2.79443,-0.487745 3.71797,-1.1406l-3.38707 -4.2552c-1.40269,-1.65382 -3.37366,-3.05908 -3.73372,-3.8222 -0.70827,0.527404 -1.90562,1.86541 -2.61468,2.5834 -0.866122,0.87707 -1.57853,1.6727 -2.71656,2.51603 -2.52743,1.87278 -4.47528,2.15452 -8.1747,2.2287z"/>
   <path id="_262290552" class="fil2" d="M53.2985 94.8574c-0.324977,0.425967 -0.141542,1.78285 -0.160981,2.45671 -0.533436,0.155953 -0.644145,0.0869138 -0.837523,0.479255 0.253368,0.40988 0.201086,0.176174 0.845008,0.177403l0.00916058 7.38108c-0.574994,-0.206895 -0.988896,-0.192819 -1.1196,0.357263 0.393011,0.257055 0.570637,0.161651 1.09123,0.193489l0.0383181 2.448c0.872266,0.00580915 2.46721,-1.09123 3.25491,-1.64701 0.288,-0.203209 0.559354,-0.505955 0.953036,-0.728937l-0.203544 -0.231584c-0.232254,-0.314476 -0.532096,-0.652301 0.201309,-0.809036 0.917399,-0.196059 0.620574,0.395581 1.34069,-0.250017 1.34247,-1.20372 3.09885,-4.10338 3.88554,-5.85272 0.304869,-0.677883 0.182095,-0.716648 0.679112,-1.11927l0.218513 -0.152825c-0.423174,-0.239851 -0.396475,0.444512 -0.163215,-0.643028l0.727261 -2.15721c0.881204,-3.0793 0.0808813,-1.32259 1.32605,-2.64115 -0.021114,-0.0424515 -0.0787587,-0.135733 -0.0968564,-0.104006l-0.191143 -0.174275c-0.0294926,-0.0244655 -0.141877,-0.0926113 -0.167907,-0.11797 -0.138302,-0.134281 -0.225663,0.355699 -0.0928347,-0.48417 0.283755,-1.7938 0.417477,-2.54966 0.566839,-4.49952 0.105458,-1.37688 0.383069,-5.49512 0.0341846,-6.58277 -0.635879,0.0194383 -0.734299,0.641353 -1.36873,1.92573 -0.376478,0.762004 -0.799652,1.4219 -1.18954,2.09398 -1.5411,2.65635 -3.69127,5.58572 -6.07537,7.37505 -1.22908,0.922538 -2.65255,2.22692 -3.50392,3.30753z"/>
   <path id="_262291272" class="fil0" d="M4.79858 89.6079c0.223987,0.653976 0.0196617,0.131376 0.342963,0.657328 2.63959,4.29386 3.37266,4.36669 6.91848,7.88615l15.4719 -0.0325089 -0.100208 -0.398821c0.440155,0.0149697 0.778315,0.6275 0.894609,-0.079429 0.0745135,-0.453672 -0.517685,-0.633533 -0.853275,-0.893939l0.0288223 -13.5028c-0.612195,1.77659 0.776192,5.99884 -0.732735,5.95136 -0.895615,-0.028152 -0.0999844,0.128807 -0.635655,-0.493666 -0.298613,-0.346985 -0.101884,-0.341399 -0.648167,-0.250575 -0.0701567,0.633309 0.0969681,0.394464 0.315928,0.918628 -4.80495,1.0538 -12.0052,3.57084 -16.6181,2.38063 -0.853163,-0.220077 -1.57774,-0.513216 -2.35014,-0.920304 -0.771835,-0.406864 -1.34247,-0.915947 -2.03443,-1.22204z"/>
   <path id="_262291128" class="fil3" d="M125.911 48.4669c0.687379,-0.573989 2.69254,-3.51051 3.00087,-3.62826 0.759882,0.00402172 0.668276,0.246554 1.34426,0.43725 0.559801,-0.395804 3.90922,-3.70244 4.19666,-4.26034 -0.303975,-0.638448 -2.19072,-1.97947 -2.90927,-2.45973 -3.58782,-2.39829 -8.08623,-3.76411 -12.6271,-3.43332 0.16679,1.47943 0.25739,1.55238 -1.42805,1.65382 0.0253592,0.618563 2.46487,6.02878 2.91038,7.09979 1.24908,3.00199 0.797529,2.43549 2.24479,2.82995 1.14753,0.3128 2.70628,1.07224 3.26742,1.76084z"/>
   <path id="_262290960" class="fil1" d="M125.95 60.1701c-0.910249,-2.56094 -4.04585,-9.11054 -4.84394,-11.4698 -1.24986,0.00391001 -3.38852,-0.302411 -4.43763,0.421275 -0.838975,0.578793 -1.95668,1.51071 -2.42577,2.18022 -1.17725,1.67985 -2.08292,4.66218 -0.796636,7.17564 0.304087,0.594321 0.876623,1.66611 1.34672,2.07197 1.06084,0.915835 0.591416,0.570526 1.90652,1.48245 1.05838,0.733964 2.29182,0.454231 4.29676,0.457582 2.24881,0.00368658 1.45318,0.228679 2.97406,-0.719888 1.18764,-0.740778 0.940747,-1.11983 1.97992,-1.59942z"/>
   <path id="_262290720" class="fil4" d="M158.238 17.3276l-8.98408 8.9643c-0.835512,0.863999 -1.66108,1.64823 -2.53435,2.5319 -0.587506,0.594433 -1.9559,2.26847 -2.59971,2.49213 -0.455571,0.737986 -6.10899,6.23076 -7.30277,7.47068 -0.356481,0.370333 -0.692406,0.578122 -1.0261,1.03749 -0.399491,0.461381 -0.786246,0.986103 -1.33789,1.19155 -0.287441,0.557902 -3.63686,3.86454 -4.19666,4.26034 -0.675984,-0.190697 -0.584378,-0.433229 -1.34426,-0.43725 -0.308332,0.117747 -2.31349,3.05427 -3.00087,3.62826 -0.145229,0.313694 -0.617781,0.964989 -0.875506,1.24249 -1.23534,1.32996 -1.67672,1.32426 -1.10988,2.57301 0.209129,0.46071 0.369775,0.925442 0.654982,1.29689 1.05235,-0.46853 1.81748,-1.46402 2.56999,-2.05599 0.355475,-0.279733 0.509865,-0.46004 0.945551,-0.59298 1.06765,-1.20171 2.71924,-2.11163 3.78578,-3.17157 -0.0870256,-0.770941 -0.343969,-0.660456 -0.467078,-1.34426 0.545166,-0.671404 3.74243,-3.87873 4.26325,-4.14248 0.186898,-0.465291 0.852046,-1.20987 1.37856,-1.37688 0.217731,-0.394575 7.58731,-7.90301 8.29234,-8.32239 0.36296,-0.653194 1.88607,-1.93713 2.53167,-2.58619 0.865005,-0.869585 1.64701,-1.71191 2.51693,-2.52698l9.00653 -8.99737 11.777 -11.7995c-0.225328,-0.408205 -0.749269,-0.953148 -1.16675,-1.16697 -0.47244,0.72782 -2.22144,2.31942 -2.94993,3.04768 -1.00621,1.00577 -1.91925,1.89792 -2.92424,2.90402 -1.98941,1.99165 -3.88442,3.96363 -5.90254,5.88009z"/>
   <path id="_262290840" class="fil2" d="M158.698 70.4601c-0.236723,0.258731 -0.252251,0.529303 -0.406641,0.963202l-1.54758 3.2519c-1.06788,2.03857 -0.67375,1.41386 -1.76397,2.88737 -0.0191032,0.025806 -0.0456912,0.0604375 -0.0635655,0.0870256 -0.017986,0.026588 -0.0411109,0.0636772 -0.0579798,0.091159l-0.555891 0.933821 -1.64365 -0.00558572c2.75722,-0.693523 3.75997,0.506737 5.41871,2.80336 0.389548,0.539357 0.674532,1.2493 1.21702,1.6641 0.129924,-0.578681 3.37244,-4.72273 3.78768,-5.23606 0.874054,-1.08084 3.54414,-5.28733 4.37999,-6.36649l1.92428 -2.87385c0.377595,-0.598343 0.756754,-1.19501 1.12575,-1.84496 0.588065,-1.03604 1.27153,-1.49965 0.617781,-2.12079 -0.66984,-0.636549 -2.59624,0.93896 -4.12349,1.76107 -1.38883,0.747593 -2.56954,1.36303 -3.98072,2.14615 -0.591751,0.32844 -1.38783,0.707934 -2.07621,1.07101 -0.682464,0.359832 -1.4734,0.644257 -2.16637,1.04956 -0.145676,-0.200192 -0.107358,0.164779 -0.0851264,-0.26197z"/>
   <path id="_262290936" class="fil3" d="M106.956 87.2999c0.310678,-0.101325 1.05246,0.247001 1.49429,0.429989 0.133722,-0.210023 0.445852,-0.726814 0.913824,-0.634203 0.875841,0.173381 -0.0239069,0.756195 -0.169918,0.958845 1.97064,0.304087 5.19081,1.69504 8.45779,1.61126l-2.48073 -5.73933c-0.315482,0.151596 -0.877852,0.651072 -0.996828,0.0920527 -0.0926113,-0.434904 0.384521,-0.602029 0.780102,-0.817191 -0.910696,-1.68253 -1.83547,-4.28827 -2.6368,-6.16127 -0.315593,-0.73765 -0.411221,-0.643363 -1.23579,-0.990013 -1.12966,-0.47501 -3.42137,-1.73895 -4.18739,-2.45303l0.0233483 -2.25261c0.996605,0.504502 2.64931,2.18983 4.01904,2.48364l-4.02876 -9.62129 0.0478138 23.0932z"/>
   <path id="_262291848" class="fil3" d="M106.96 37.5211c-0.0392118,1.71716 -0.208794,8.96654 0.144894,9.95007 2.11341,-0.081775 4.64106,0.00670287 6.72096,-0.00681458 1.88228,-0.0122886 1.50759,0.0585384 3.06422,-0.528968 1.08508,-0.409433 2.00729,-0.364636 2.92524,-0.636214l0.0220077 -0.171593c-0.0105012,-0.122662 -0.00871373,-0.164779 -0.0437921,-0.287106l-3.8241 -9.01603c-2.09453,-0.0975267 -3.78243,-0.278169 -5.43602,0.621132 -1.47664,0.803115 -2.43973,1.64801 -3.59598,2.3765l0.0225663 -2.30098z"/>
   <path id="_262291944" class="fil5" d="M90.4464 26.8825c1.51228,0.976496 -0.125455,4.28861 -0.372344,5.6551 1.6927,0.470765 1.62679,0.25605 2.15218,-0.706817 1.14116,-2.09185 2.48185,-5.62248 0.94745,-7.62038 -0.876847,-1.05637 -2.76594,-2.00472 -4.67983,-2.29629 -0.574883,0.485288 -0.595326,0.777086 -1.53898,0.824899 -0.584267,0.0296043 -1.42726,-0.0933933 -1.99343,-0.184999 -1.19769,-0.193713 -2.30266,-0.693188 -3.25011,-1.08989 -1.3113,2.02024 -1.87334,6.53988 -2.51145,9.27733 -0.351118,1.50613 -2.1924,8.7955 -2.10213,9.69927 1.70398,0.431776 1.34962,0.311236 2.66808,-2.7036l5.13205 -11.8908c1.08631,-0.223205 2.23351,-0.263534 3.33211,-0.0954041 0.75329,0.115178 1.91925,0.348772 2.21641,1.13156z"/>
   <path id="_262291800" class="fil3" d="M53.1547 115.681l0.0446858 0.00793173 20.8922 0.00960744 -0.00134057 -12.5291 -0.347097 -0.265434c-0.218402,-0.164555 -0.0735081,-0.01955 -0.241638,-0.182653 0.212257,-0.574659 0.133275,-0.217731 0.616105,-0.598007l-0.103559 -1.91769c-0.30688,0.544161 -0.482942,0.9279 -0.81451,1.47374 -0.630516,1.03816 -0.244208,0.513998 -0.271131,1.52557 -1.132,0.269455 -1.39632,1.2073 -1.97958,2.03957 -0.852716,1.21668 -2.70539,3.41098 -3.73562,4.33296 -3.93347,3.52023 -7.85006,5.66314 -14.0585,6.10352z"/>
   <path id="_262291704" class="fil3" d="M107.533 62.3932l6.24361 0.0130706c-0.653306,-0.89919 -1.34415,-1.49463 -1.95768,-2.7818 -0.543491,-1.13993 -0.911702,-2.47939 -0.92008,-3.95 -0.017204,-3.04813 1.45821,-5.41659 2.84637,-6.82586 -3.01406,-0.383181 -2.23731,0.363407 -3.05438,0.552204 -0.24108,-0.603146 0.149809,0.56561 -0.0493778,-0.258842 -0.0730612,-0.302411 0.0176509,-0.141542 -0.0999844,-0.332127l-8.67418 -0.0120652c0.0821101,0.691848 5.03899,12.2872 5.66571,13.5954z"/>
   <path id="_262291920" class="fil0" d="M137.896 84.7785c0.265545,0.625489 0.582926,1.26159 0.843332,1.75727 0.108363,0.206113 0.0630069,0.416918 0.228456,0.854951l4.34357 10.0782c0.173046,0.439261 0.517908,1.38984 0.750609,1.74252 1.74118,-1.83882 1.88094,-1.32717 5.60538,-2.24043 0.783789,-0.192261 1.63885,-0.488416 2.39371,-0.523159l-0.0472552 -0.77932 -0.117859 -0.561924 -0.143218 -0.549188c-0.917064,0.0460263 -3.79215,-0.124226 -5.06871,-0.16355 -2.36142,-0.0727261 -1.7461,0.0633421 -1.52557,-3.16789 0.0756307,-1.10877 0.187569,-2.10861 0.287218,-3.15962 0.197176,-2.07789 0.363184,-4.14483 0.591081,-6.23981 -0.39357,-0.014076 -0.900865,-0.164109 -1.25165,-0.0069263 -0.38966,0.174498 -0.0626718,-0.0746252 -0.29582,0.321849 -0.0225663,0.0384298 -0.0812164,0.188797 -0.0956276,0.219519l-0.0983087 0.225775c-0.685368,-0.259736 -1.25042,-0.848136 -1.94193,-1.07514 -0.227339,0.227674 -0.717318,0.638783 -1.04531,0.893157 -0.409322,0.317492 -0.640906,0.516121 -1.1062,0.838975 -0.680453,0.472217 -1.65159,1.03492 -2.3059,1.53473z"/>
   <path id="_262291560" class="fil5" d="M151.896 95.1065l0.117859 0.561924c0.672968,4.45808 1.22249,8.77606 1.6784,13.2563l0.173604 3.02132 1.44235 0.0730612c0.331568,-2.19675 0.498023,-8.88253 0.353241,-11.3707 -0.0525058,-0.902988 -0.246554,-2.65825 -0.215944,-3.50202 -0.0460263,0.588847 5.18914,10.7818 5.89137,13.5526l0.531761 1.44637 1.34471 -0.157406c0.173939,-0.893045 -0.21829,-1.13245 -0.181313,-1.98997 -0.462051,-0.513886 -0.762451,-2.41292 -0.983422,-3.23983 -0.233483,-0.873719 -0.797529,-2.51994 -0.848471,-3.31691 -0.345868,-0.510088 -1.04632,-3.18263 -1.34359,-4.04172 -0.358045,-1.03492 -1.18172,-3.07449 -1.46268,-4.21063 -2.16257,-0.683134 -4.42311,-0.134839 -6.52033,-0.535671l0.0224546 0.453337z"/>
   <path id="_262292208" class="fil2" d="M144.063 99.2109c0.231249,1.05201 0.87964,2.2134 1.24908,3.11359 0.387649,0.945104 0.785911,1.99232 1.25757,2.9296 0.161427,0.32062 0.271019,0.42161 0.407981,0.769713 0.602476,1.53205 1.4286,3.96821 2.19206,5.20634 1.18797,-0.3929 3.61463,-2.38834 4.52354,-2.3059 -0.455907,-4.4802 -1.00543,-8.79818 -1.6784,-13.2563l0.0472552 0.77932c-0.754854,0.0347432 -1.60992,0.330898 -2.39371,0.523159 -3.72445,0.913266 -3.8642,0.401613 -5.60538,2.24043z"/>
   <path id="_262292424" class="fil2" d="M95.2233 88.5545c0.434793,0.275823 0.918293,0.668388 1.4114,1.0433l3.7021 2.26937c0.586613,0.253927 0.572313,0.0909356 0.94421,0.469201 0.139978,-0.495454 0.00201086,-0.894833 0.616217,-1.01783l0.577899 0.0528409c0.0590969,0.316264 0.0246889,0.672521 -0.464174,0.928459l-0.539581 0.209129c0.942758,0.385303 3.11851,1.62299 4.03479,1.53149l0.0299395 -7.44923c-0.555556,-0.473558 -4.07143,-2.17106 -7.47135,-4.999 -0.920974,-0.765914 -2.38063,-2.37505 -2.88436,-2.59222l0.0428983 9.55449z"/>
   <path id="_262292664" class="fil2" d="M162.952 93.8967l-0.204214 1.13189c-1.45162,0.168465 -2.85486,-0.0384298 -4.35463,0.159863 0.280962,1.13614 1.10463,3.17571 1.46268,4.21063 0.297272,0.859084 0.997722,3.53163 1.34359,4.04172 0.157629,-0.560136 2.8028,-2.70204 3.39969,-3.26966 0.262194,-0.249347 0.460822,-0.458811 0.817638,-0.818867 0.154166,-0.155507 0.287106,-0.303193 0.434346,-0.460934 0.965436,-1.03436 8.44293,-9.07479 7.77912,-10.0912 -0.567733,-0.519025 -1.9702,0.562482 -2.62294,0.90444 -2.11688,1.10877 -4.82953,2.26803 -7.13788,3.01931 -1.1291,0.367317 -0.502938,0.354805 -0.917399,1.17278z"/>
   <path id="_262292616" class="fil0" d="M119.33 89.7755c0.104676,0.375249 0.901312,2.28009 1.05056,2.49168 1.88887,0.182653 12.9709,-0.000558572 16.5965,0 3.43701,0.000446858 2.44197,0.285207 1.07268,-3.19336 -0.410662,-1.04285 -1.24919,-2.61456 -1.43285,-3.54738 -1.08229,0.475122 -2.32947,1.22015 -3.69004,1.77894 -1.30918,0.537793 -2.61646,0.972363 -4.02764,1.36571 -3.16498,0.882321 -6.28204,1.091 -9.56924,1.10441z"/>
   <path id="_262292640" class="fil3" d="M107.105 47.4704c-0.353688,-0.983534 -0.184105,-8.23291 -0.144894,-9.95007l0.892822 -0.706259 -11.1253 -0.0415578c0.0454678,0.478585 3.14923,7.74293 3.52247,8.39769 0.361285,-0.395134 1.95489,-3.46527 3.64178,-4.95465 0.281185,-0.248341 0.497018,-0.450991 0.755301,-0.737874 0.474898,-0.527739 0.33883,-0.484394 0.882097,-0.738879 0.0493778,3.58603 -0.289899,2.4776 -1.892,4.65436 -0.740778,1.00632 -1.85446,2.73533 -2.27272,4.02016l5.74045 0.0570861z"/>
   <path id="_262292400" class="fil1" d="M163.542 5.66593c-0.51087,0.695869 -1.50647,1.65393 -2.08292,2.20446 -0.597896,0.570861 -1.2731,1.50781 -1.76755,2.41616 -1.22897,2.25786 -1.53998,4.07423 -1.45441,7.04103 2.01812,-1.91646 3.91313,-3.88844 5.90254,-5.88009 1.00498,-1.0061 1.91803,-1.89825 2.92424,-2.90402 0.72849,-0.728266 2.47749,-2.31986 2.94993,-3.04768 -0.0103894,-1.03235 -0.289229,-4.92638 -0.627277,-5.49579 -0.931587,0.827692 -5.25147,5.46574 -5.84456,5.66593z"/>
   <path id="_262292568" class="fil6" d="M39.7069 72.6452c-0.255491,-0.218513 -0.320509,-0.302746 -0.419599,-0.690619 0.221641,-0.367317 1.76185,-1.63662 2.15173,-1.82821l-1.27455 5.5388c-0.166231,0.387537 -0.562147,1.10508 -0.733294,1.66622 0.239627,0.158523 -0.0521706,0.0496012 0.269344,0.0871373 0.0241303,0.00279286 0.211811,-0.0270349 0.261524,-0.0261412 -1.04297,0.706147 -1.00744,0.487857 -1.25656,2.11587 1.29488,-0.452779 2.51592,-2.08794 3.65496,-3.14677 0.367987,-0.34207 0.274259,0.126684 0.371451,-0.672968 -0.113614,-0.641241 -0.596667,-0.205778 -1.25042,-1.04554 0.0887013,-0.627947 1.97902,-3.00478 2.54061,-3.66189 0.204214,-0.239069 0.0455795,-0.0902653 0.26387,-0.274259 0.474004,-0.780437 0.93181,-1.49239 1.35476,-2.41761 0.236276,-0.516791 0.384521,-0.893604 0.51869,-1.44603 0.21505,-0.885225 0.200974,-0.761781 1.20395,-0.910696 0.577452,0.244766 0.832943,-0.320956 0.896062,-0.399379 -1.05916,-0.25415 -0.588623,-0.692294 -0.97158,-1.72766 -0.265545,-0.717765 -0.790603,-1.15032 -0.91483,-1.46312l5.1745 -0.0697098c0.602253,0.00335143 0.791385,0.0507184 1.27902,-0.097415l0.209576 -0.111044 -9.25353 -0.00737315c-0.683804,0.938178 -1.26416,2.02616 -1.95914,3.17001 -0.747034,1.22953 -5.43882,8.95581 -5.36196,9.71067 0.968229,-0.35056 0.363295,-0.0487075 1.10642,-0.521148 0.580133,-0.368769 0.863999,-0.497241 1.39844,-0.999621 0.437139,-0.410886 0.535671,-0.40988 0.740555,-0.7715z"/>
   <path id="_262292976" class="fil1" d="M159.404 18.4626c3.69942,-0.0741784 5.64728,-0.355922 8.1747,-2.2287 1.13804,-0.843332 1.85044,-1.63896 2.71656,-2.51603 0.709052,-0.717989 1.90641,-2.05599 2.61468,-2.5834 0.663472,-0.747816 3.55945,-3.35657 3.76511,-3.9481l-5.494 -0.52327 -11.777 11.7995z"/>
   <path id="_262293072" class="fil3" d="M51.3905 50.9313c-0.619121,0.175392 -1.3294,0.153384 -1.74766,-0.0129589 -0.706259,0.609402 -1.88831,3.73741 -1.73906,4.98291 0.174721,1.45776 1.80676,2.57278 2.53402,3.4112 0.358939,0.41379 0.184664,0.120875 0.412785,0.634426 1.1034,0.767925 4.2094,0.354693 5.20176,-0.388655 -0.166008,-0.705812 -0.866345,-1.74129 -1.28304,-2.30612 0.0254709,0.0850147 1.3103,2.06236 1.50591,2.31193l2.14112 -0.544384c-0.268562,-1.57059 -2.03253,-4.10171 -2.76493,-4.91644l-2.95451 -2.86637c-0.547736,-0.45222 -0.584713,-0.570414 -1.30639,-0.305539z"/>
   <path id="_262293024" class="fil2" d="M141.273 11.9139c0.0746252,0.610184 1.60835,1.88518 2.08694,2.2783 1.25522,1.03101 0.48674,1.42436 1.05682,3.40506 0.595885,-0.242085 0.91483,-0.560024 1.522,-0.896732 0.700896,0.299842 0.779655,0.630851 1.35331,1.17926 2.3412,2.23831 1.94428,1.83659 4.15745,-0.753737 1.00387,-1.17479 1.60645,-1.7623 2.43571,-2.78795 0.403624,-0.499028 0.762451,-0.890699 1.15111,-1.39084 0.432,-0.556003 0.531426,-0.434793 1.2531,-1.47497 -2.14358,0.0901536 -14.1379,0.0266998 -15.0164,0.441607z"/>
   <path id="_262293528" class="fil1" d="M50.8506 59.9466c-0.900418,-0.0163103 -1.11904,-0.284537 -1.73727,-0.282191 -0.435575,0.601582 -0.0583149,0.680676 -0.885449,0.840316l0.315035 0.875283c1.22953,0.100878 3.71953,-0.124226 4.62118,0.143218 -0.002346,0.494448 0.072391,0.21371 -0.128025,0.540698l-0.209576 0.111044c-0.487634,0.148133 -0.676766,0.100766 -1.27902,0.097415l-5.1745 0.0697098c0.124226,0.3128 0.649284,0.745359 0.91483,1.46312 0.382957,1.03537 -0.0875841,1.47351 0.97158,1.72766 -0.0631187,0.0784235 -0.31861,0.644145 -0.896062,0.399379 1.27343,-0.173716 3.60469,0.745917 5.37279,0.821771 1.93367,0.0830038 4.55348,0.245548 5.7038,-0.785576 0.678777,-1.9531 -1.09514,-3.03349 -1.22964,-4.49528 0.555779,-0.256832 0.50696,0.0360838 1.57908,-0.638895 0.0473669,-0.839422 -0.110374,-1.12686 -0.373015,-1.81491l-2.14112 0.544384c-0.195612,-0.24957 -1.48044,-2.22692 -1.50591,-2.31193 0.416695,0.564828 1.11703,1.60031 1.28304,2.30612 -0.992359,0.743348 -4.09836,1.15658 -5.20176,0.388655z"/>
   <path id="_262293624" class="fil5" d="M142.353 81.512c0.691512,0.227004 1.25656,0.815404 1.94193,1.07514l0.0983087 -0.225775c0.0144112,-0.0307215 0.0730612,-0.181089 0.0956276,-0.219519 0.233148,-0.396475 -0.0938401,-0.147351 0.29582,-0.321849 0.350783,-0.157182 0.858079,-0.00714972 1.25165,0.0069263l0.184664 -0.597784c0.696763,-0.086467 7.55301,1.02811 8.09729,1.31566 0.674979,0.356592 3.61072,4.19477 4.19063,5.35883 0.729384,-0.31995 1.49418,-0.818979 2.07711,-1.31209 -0.190697,-1.12921 -0.768484,-2.1953 -1.21233,-3.15549 -0.219072,-0.144447 -0.0909356,0.0229015 -0.0799875,-0.299171 -0.542485,-0.414796 -0.827469,-1.12474 -1.21702,-1.6641 -1.65874,-2.29663 -2.66148,-3.49689 -5.41871,-2.80336l-0.231919 0.0453561c-0.183547,0.277722 -0.0210023,0.120093 -0.335925,0.276717 -0.114284,0.0567509 -0.341734,0.106576 -0.4711,0.134169 -1.73772,0.371674 -1.51865,-0.143665 -2.90714,0.215162 -1.26639,0.327212 -2.68461,0.531314 -3.98195,0.121992 -0.965436,-0.330563 -1.65349,-0.600465 -2.26211,-1.17915 -0.0921644,0.316599 -0.358492,0.619121 -0.621914,0.91874 -0.407981,0.464174 -0.538687,0.452555 -0.755078,1.17066l1.26215 1.13893z"/>
   <path id="_262294128" class="fil5" d="M43.7826 62.0569l9.25353 0.00737315c0.200416,-0.326988 0.125679,-0.0462498 0.128025,-0.540698 -0.901647,-0.267444 -3.39165,-0.0423398 -4.62118,-0.143218l-0.315035 -0.875283c-0.672521,-1.13926 -1.64634,-3.89761 -2.30601,-4.72954 -0.629958,-0.794401 -5.52528,-0.420828 -6.90228,-0.410997 -1.1186,0.170588 -0.469983,1.16027 0.381393,3.1909 1.71147,4.08171 0.755525,3.44226 4.38155,3.50147z"/>
   <path id="_262294272" class="fil5" d="M47.2053 47.5597c0.349219,-1.76866 1.9397,-0.698327 2.38834,0.206001 0.370445,-0.52327 -0.0846795,-0.382957 0.608173,-0.551869 0.469312,0.342852 0.327547,0.576447 0.578346,1.13424 1.44067,-0.0213375 0.75128,-1.76743 0.445182,-2.50252 1.87602,0.753402 4.49818,4.66832 8.28363,2.10794 0.506066,-0.342293 0.543379,-0.453896 0.463503,-1.16082 -1.44335,-0.24566 -1.47552,-0.135174 -2.71276,-0.86601 -0.816744,-0.482383 -1.37766,-0.865787 -2.16302,-1.41866 -1.59685,-1.12396 -3.92788,-1.49329 -4.97665,0.302746 -1.34661,-0.365641 -2.27786,-0.711956 -3.30116,0.313247 -0.640571,0.641799 -1.19311,1.8453 0.38642,2.43571z"/>
   <path id="_262294056" class="fil3" d="M92.2003 4.00898c-0.0644592,0.601471 -0.113837,0.879751 0.0884778,1.36347 0.000670287,0.000223429 1.63483,-0.0262529 2.20189,0.0227897l4.84014 0.39033c0.800657,-0.0862435 0.817973,-0.803674 1.61573,-1.00856 -0.0769713,0.73307 -0.403848,0.235494 -0.53433,1.132l5.473 0.437027 -0.0444623 -4.20605c-2.61322,0.244319 -7.25652,1.1148 -10.22,1.56545 -0.544831,0.0827804 -1.12463,0.171705 -1.67739,0.261077 -0.890699,0.144112 -1.08486,-0.0597672 -1.74308,0.0424515z"/>
   <path id="_262294320" class="fil7" d="M144.731 79.462c1.29734,0.409322 2.71555,0.205219 3.98195,-0.121992 1.3885,-0.358827 1.16943,0.156512 2.90714,-0.215162 0.129365,-0.0275935 0.356816,-0.0774181 0.4711,-0.134169 0.314923,-0.156624 0.152378,0.00100543 0.335925,-0.276717l-0.319392 -2.45236 -0.402731 -0.215162c0.302523,-0.644034 0.789709,-0.723239 0.40854,-1.28472 -0.382175,0.0394352 -0.548965,0.301294 -0.702796,0.525952 0.13294,-0.71419 0.37469,-0.974373 -0.35056,-1.2598 -0.457024,-0.179972 -1.34728,-0.488416 -1.80922,-0.549858 -0.961191,1.55797 -2.03566,3.13504 -3.25703,4.51047 -0.520589,0.586277 -0.903993,0.812946 -1.26293,1.47351z"/>
   <path id="_262294224" class="fil8" d="M90.0542 7.9134c1.06185,0.487969 2.0351,0.0814398 2.17441,-0.000558572 0.134839,-0.565052 0.0288223,-1.49977 -0.156512,-2.00594 -1.02185,0.0693747 -0.779432,0.434569 -1.54423,0.566057 -0.44116,-0.447975 -0.670398,-1.54311 -0.670957,-2.26993 0.835512,-0.725697 1.19356,-0.281744 2.36745,-0.732958 0.173939,-1.1053 -0.784012,-2.56094 -1.73057,-1.44614 -0.394575,0.46462 -0.0441272,0.743683 -1.09156,0.684028 -1.72688,-0.0984204 -1.13033,0.937396 -1.10061,1.21847 0.0756307,0.715643 -0.0188797,0.0924996 -0.20332,0.634873 -0.346873,1.02073 0.488527,0.643363 0.765579,0.702684 0.720558,0.154389 0.46261,1.71336 1.19032,2.64942z"/>
   <path id="_262293792" class="fil9" d="M47.2053 47.5597c0.0579798,1.4324 0.588065,3.53018 2.24982,2.91887l0.187792 0.439149c0.418259,0.166343 1.12854,0.188351 1.74766,0.0129589 0.457917,-0.512099 0.204884,-0.778538 -0.0605492,-1.30125 -0.215162,-0.423733 -0.337824,-0.832049 -0.549858,-1.28136 -0.250799,-0.55779 -0.109033,-0.791385 -0.578346,-1.13424 -0.692853,0.168912 -0.237728,0.0285989 -0.608173,0.551869 -0.448645,-0.904328 -2.03912,-1.97466 -2.38834,-0.206001z"/>
   <path id="_262294680" class="fil5" d="M76.5825 43.3839c0.235606,0.796859 0.812499,0.60404 1.69817,0.589852 0.826575,-0.013294 1.47173,0.0926113 1.74174,-0.447416 -0.232925,-0.952701 -1.02431,-1.73124 -1.6021,-2.16022 -0.777197,0.0498246 0.0680341,-0.0361955 -0.507854,0.206337 -0.693188,0.292022 -0.604263,0.152602 -1.14675,-0.312354l-0.183212 2.1238z"/>
  </g>
 </g>
</svg>
