<?xml version="1.0" encoding="UTF-8"?>
<!DOCTYPE svg PUBLIC "-//W3C//DTD SVG 1.1//EN" "http://www.w3.org/Graphics/SVG/1.1/DTD/svg11.dtd">
<!-- Creator: CorelDRAW -->
<svg xmlns="http://www.w3.org/2000/svg" xml:space="preserve" width="18.8197mm" height="26.0114mm" version="1.1" style="shape-rendering:geometricPrecision; text-rendering:geometricPrecision; image-rendering:optimizeQuality; fill-rule:evenodd; clip-rule:evenodd"
viewBox="0 0 443.83 613.44"
 xmlns:xlink="http://www.w3.org/1999/xlink"
 xmlns:xodm="http://www.corel.com/coreldraw/odm/2003">
 <defs>
  <style type="text/css">
   <![CDATA[
    .fil1 {fill:none}
    .fil0 {fill:#0A4033;fill-rule:nonzero}
    .fil2 {fill:#EDD6A9;fill-rule:nonzero}
   ]]>
  </style>
   <clipPath id="id0">
    <path d="M-0 0l443.83 0 0 613.44 -443.83 0 0 -613.44zm0 0z"/>
   </clipPath>
 </defs>
 <g id="Layer_x0020_1">
  <metadata id="CorelCorpID_0Corel-Layer"/>
  <g>
  </g>
  <g style="clip-path:url(#id0)">
   <g id="_2257054420288">
    <polygon class="fil0" points="-0,0 443.83,0 443.83,612.26 442.63,612.26 221.92,517.03 1.2,612.26 -0,612.26 "/>
   </g>
  </g>
  <path class="fil1" d="M-0 0l443.83 0 0 613.44 -443.83 0 0 -613.44zm0 0z"/>
  <g id="_2257054421536">
   <g>
    <g>
     <path class="fil2" d="M341.71 336.16c0,31.92 -11.65,57.83 -34.95,77.72 -23.27,19.87 -53.77,29.8 -91.49,29.8 -20.71,0 -42.79,-4.08 -66.25,-12.22 -10.53,-3.4 -17.48,-5.11 -20.89,-5.11 -4.08,0 -7.31,1.29 -9.71,3.85 -2.37,2.54 -4.25,7.03 -5.61,13.48l-14.77 0 0 -125.89 14.77 0c4.44,18.36 8.77,32.64 13.02,42.86 4.24,10.19 10.1,20.04 17.58,29.55 19.36,24.44 43.83,36.66 73.41,36.66 19.69,0 35.32,-5.17 46.87,-15.53 11.57,-10.35 17.37,-24.37 17.37,-42.06 0,-13.58 -3.92,-24.62 -11.76,-33.11 -7.82,-8.51 -22.93,-18.02 -45.37,-28.54l-34.15 -16.32c-43.84,-21.06 -71.01,-45.01 -81.53,-71.86 -3.75,-10.55 -5.61,-21.76 -5.61,-33.65 0,-32.28 9.93,-57.68 29.8,-76.22 19.89,-18.52 47.17,-27.79 81.82,-27.79 18.69,0 38.57,3.91 59.64,11.72 10.18,3.41 17.33,5.11 21.43,5.11 4.74,0 8.21,-1.18 10.42,-3.56 2.2,-2.37 4.15,-6.96 5.86,-13.77l15.32 0 0 110.62 -14.27 0c-5.11,-16.66 -10.13,-29.56 -15.07,-38.71 -4.92,-9.18 -11.79,-18.19 -20.64,-27.04 -18.36,-19.02 -39.26,-28.54 -62.69,-28.54 -17.33,0 -31.01,4.59 -41.06,13.77 -10.03,9.19 -15.02,21.59 -15.02,37.21 0,12.56 3.57,22.76 10.71,30.59 7.14,7.82 21.07,16.81 41.81,27l74.92 37.21c16.66,8.15 30.16,20.9 40.51,38.25 10.38,17.33 15.57,35.51 15.57,54.53l0 -0zm0 0z"/>
    </g>
   </g>
  </g>
 </g>
</svg>
