<?xml version="1.0" encoding="UTF-8"?>
<!DOCTYPE svg PUBLIC "-//W3C//DTD SVG 1.1//EN" "http://www.w3.org/Graphics/SVG/1.1/DTD/svg11.dtd">
<!-- Creator: CorelDRAW -->
<svg xmlns="http://www.w3.org/2000/svg" xml:space="preserve" width="49.411mm" height="73.488mm" version="1.1" style="shape-rendering:geometricPrecision; text-rendering:geometricPrecision; image-rendering:optimizeQuality; fill-rule:evenodd; clip-rule:evenodd"
viewBox="0 0 6257.3 9306.35"
 xmlns:xlink="http://www.w3.org/1999/xlink"
 xmlns:xodm="http://www.corel.com/coreldraw/odm/2003"
 zoomAndPan="magnify">
 <defs>
  <style type="text/css">
   <![CDATA[
    .fil0 {fill:#E58E52;fill-rule:nonzero}
   ]]>
  </style>
 </defs>
 <g id="Layer_x0020_1">
  <metadata id="CorelCorpID_0Corel-Layer"/>
  <g id="_1401335803792">
   <g>
    <g>
     <g>
      <path class="fil0" d="M6257.3 6544.88c0,820.03 -299.12,1485.27 -897,1995.71 -597.53,510.63 -1380.73,765.77 -2349.62,765.77 -532.44,0 -1099.42,-104.7 -1701.14,-314.12 -270.84,-86.91 -449.89,-130.54 -536.79,-130.54 -104.72,0 -187.78,32.81 -249.21,98.42 -61.08,65.27 -108.9,180.45 -143.8,346.24l-379.74 0 0 -3232.66 379.74 0c113.44,471 224.77,837.48 333.67,1099.42 109.25,261.6 259.85,514.47 451.64,758.78 497.36,628.25 1125.95,942.37 1885.42,942.37 505.74,0 906.94,-132.8 1203.44,-398.59 296.84,-266.13 445.35,-626.32 445.35,-1080.57 0,-349.03 -100.34,-632.43 -300.85,-850.22 -200.7,-218.13 -588.98,-462.46 -1165.04,-732.95l-876.75 -419.53c-1125.77,-540.63 -1823.99,-1155.96 -2094.83,-1845.63 -95.98,-270.32 -143.8,-558.09 -143.8,-863.48 0,-829.29 255.14,-1481.61 765.75,-1957.33 510.45,-475.55 1210.76,-713.4 2101.12,-713.4 479.73,0 990.18,100.51 1531.51,301.55 261.42,87.09 444.66,130.54 549.37,130.54 122.33,0 211.85,-30.37 268.75,-91.45 56.71,-60.9 106.79,-178.7 150.08,-353.21l392.99 0 0 2840.34 -366.46 0c-130.89,-427.55 -259.51,-759.13 -386.03,-994.71 -126.69,-235.94 -303.47,-467.17 -530.51,-693.86 -471,-488.63 -1007.63,-732.95 -1609.69,-732.95 -445.36,0 -796.82,117.8 -1054.06,353.22 -257.4,235.58 -386.02,554.08 -386.02,955.62 0,323.03 91.62,584.79 275.03,785.31 183.23,200.68 541.16,431.91 1073.6,693.86l1923.82 955.62c427.55,209.42 774.48,536.8 1040.78,982.15 266.13,445 399.29,911.65 399.29,1400.28zm0 0z"/>
     </g>
    </g>
   </g>
  </g>
 </g>
</svg>
