<?xml version="1.0" encoding="UTF-8"?>
<!DOCTYPE svg PUBLIC "-//W3C//DTD SVG 1.1//EN" "http://www.w3.org/Graphics/SVG/1.1/DTD/svg11.dtd">
<!-- Creator: CorelDRAW -->
<svg xmlns="http://www.w3.org/2000/svg" xml:space="preserve" width="132.653mm" height="135.217mm" version="1.1" style="shape-rendering:geometricPrecision; text-rendering:geometricPrecision; image-rendering:optimizeQuality; fill-rule:evenodd; clip-rule:evenodd"
viewBox="0 0 12178.26 12413.7"
 xmlns:xlink="http://www.w3.org/1999/xlink"
 xmlns:xodm="http://www.corel.com/coreldraw/odm/2003"
 zoomAndPan="magnify">
 <defs>
  <style type="text/css">
   <![CDATA[
    .fil1 {fill:none}
    .fil0 {fill:#002E1F;fill-rule:nonzero}
    .fil3 {fill:#E58E52;fill-rule:nonzero}
    .fil2 {fill:#EDD6A9;fill-rule:nonzero}
   ]]>
  </style>
     <clipPath id="id0">
      <path d="M3405.95 0l5366.37 0 0 7417.06 -5366.37 0 0 -7417.06zm0 0z"/>
     </clipPath>
 </defs>
 <g id="Layer_x0020_1">
  <metadata id="CorelCorpID_0Corel-Layer"/>
  <g id="_2064849351168">
   <g id="_1401084194496">
    <g>
    </g>
    <g>
    </g>
    <g style="clip-path:url(#id0)">
     <g>
      <polygon class="fil0" points="3405.95,0 8772.32,0 8772.32,7402.83 8757.82,7402.83 6089.14,6251.42 3420.46,7402.83 3405.95,7402.83 "/>
     </g>
    </g>
    <path class="fil1" d="M3405.95 0l5366.37 0 0 7417.06 -5366.37 0 0 -7417.06zm0 0z"/>
    <path class="fil1" d="M3405.95 0l5366.37 0 0 7417.06 -5366.37 0 0 -7417.06zm0 0z"/>
    <g>
     <g>
      <g>
       <path class="fil2" d="M7537.56 4064.49c0,385.99 -140.93,699.23 -422.54,939.73 -281.37,240.25 -650.15,360.3 -1106.22,360.3 -250.36,0 -517.43,-49.34 -801.07,-147.76 -127.27,-41.12 -211.4,-61.74 -252.52,-61.74 -49.34,0 -88.43,15.56 -117.4,46.55 -28.72,30.75 -51.37,85.01 -67.81,162.95l-178.64 0 0 -1522.18 178.64 0c53.63,222.02 106.02,394.71 157.37,518.19 51.24,123.22 122.08,242.27 212.54,357.27 234.05,295.53 529.96,443.29 887.61,443.29 238.09,0 427.1,-62.49 566.77,-187.74 139.92,-125.12 210.01,-294.64 210.01,-508.58 0,-164.21 -47.44,-297.68 -142.2,-400.28 -94.5,-102.86 -277.32,-217.85 -548.56,-345.12l-412.93 -197.35c-530.09,-254.67 -858.63,-544.26 -985.78,-868.89 -45.29,-127.53 -67.81,-263.14 -67.81,-406.86 0,-390.28 120.06,-697.46 360.31,-921.51 240.49,-223.92 570.31,-336.02 989.32,-336.02 225.95,0 466.33,47.32 721.11,141.69 123.1,41.25 209.51,61.74 259.1,61.74 57.31,0 99.31,-14.29 126,-43.01 26.57,-28.6 50.23,-84.13 70.85,-166.49l185.21 0 0 1337.48 -172.56 0c-61.74,-201.4 -122.47,-357.4 -182.18,-468.09 -59.46,-110.96 -142.57,-219.88 -249.48,-326.91 -222.02,-230 -474.67,-345.12 -758.06,-345.12 -209.5,0 -374.98,55.54 -496.43,166.49 -121.2,111.08 -181.67,260.99 -181.67,449.88 0,151.82 43.14,275.17 129.55,369.92 86.29,94.5 254.8,203.3 505.55,326.4l905.82 449.88c201.41,98.55 364.61,252.78 489.86,462.54 125.5,209.5 188.25,429.37 188.25,659.38zm0 0z"/>
      </g>
     </g>
    </g>
   </g>
  </g>
  <g id="_2064849357840">
   <g id="_2267363708432">
    <g>
     <g>
      <g>
       <path class="fil0" d="M1934.24 9570.17c0,253.57 -92.48,459.22 -277.45,616.96 -184.67,157.89 -426.53,236.69 -725.88,236.69 -164.75,0 -340.12,-32.25 -526.31,-96.75 -83.64,-27.07 -139.03,-40.76 -166.1,-40.76 -32.55,0 -58.26,10.19 -77.26,30.42 -18.71,20.38 -33.32,55.97 -43.82,107.09l-117.42 0 0 -999.68 117.42 0c34.84,146.03 69.06,259.65 102.84,340.73 34.06,80.77 80.61,158.81 139.94,234.25 153.62,194.4 348.03,291.45 582.9,291.45 156.52,0 280.64,-41.07 372.36,-123.52 91.57,-82.29 137.52,-193.64 137.52,-334.03 0,-107.85 -31.03,-195.46 -93.09,-262.85 -62.06,-67.24 -182.23,-142.99 -360.2,-226.94l-271.37 -129.6c-348.03,-167.02 -563.89,-357.17 -647.38,-570.12 -29.66,-83.97 -44.43,-173.1 -44.43,-267.71 0,-255.84 78.8,-457.55 236.68,-604.79 157.74,-147.26 374.2,-220.87 649.23,-220.87 148.46,0 306.36,31.03 473.97,93.08 80.61,27.24 137.19,40.77 169.75,40.77 37.73,0 65.26,-9.27 82.75,-27.98 17.79,-19.02 33.47,-55.52 46.86,-109.52l121.7 0 0 877.98 -113.78 0c-40.16,-132.18 -80,-234.55 -119.26,-307.26 -38.94,-73.01 -93.55,-144.51 -163.67,-214.78 -146.03,-150.89 -312.13,-226.34 -498.31,-226.34 -137.52,0 -246.12,36.5 -325.53,109.52 -79.55,72.7 -119.26,170.97 -119.26,295.09 0,99.77 28.14,180.71 84.57,242.77 56.74,62.05 167.47,133.71 332.21,214.78l595.07 295.1c132.18,64.94 239.27,166.1 321.26,303.6 82.29,137.52 123.52,282.02 123.52,433.22l-0.02 0zm0 0z"/>
      </g>
     </g>
    </g>
    <g>
     <g>
      <g>
       <path class="fil0" d="M4281.92 10266.22l-250.68 28.6c-223.91,24.03 -402.04,58.73 -534.21,104.66l0 -262.86c-118.95,102.68 -220.1,172.81 -303.61,210.51 -83.67,37.73 -178.12,56.58 -283.54,56.58 -167.17,0 -298.74,-49.88 -394.88,-149.66 -95.83,-99.79 -143.59,-238.68 -143.59,-416.79l0 -1019.75c0,-83.97 -12.16,-140.7 -36.5,-170.36 -24.03,-29.52 -77.88,-52.49 -161.84,-68.75l0 -97.36 761.16 0 0 1372.05c0,102.66 16.74,176.29 50.5,220.87 33.61,44.72 92.48,66.93 176.45,66.93 102.23,0 212.65,-59.32 331.6,-178.28l0 -1145.09c0,-86.41 -16.88,-145.72 -50.5,-178.28 -33.77,-32.4 -100.4,-52.63 -200.18,-60.84l0 -97.36 813.5 0 0 1457.24c0,86.4 15.37,146.49 46.24,180.1 31.18,33.77 91.26,52.02 180.1,54.75l0 93.09 -0.01 0.01zm0 0z"/>
      </g>
     </g>
    </g>
    <g>
     <g>
      <g>
       <path class="fil0" d="M6479.91 9379.72c0,299.81 -72.99,544.86 -219.04,735 -145.71,189.84 -331.9,284.76 -558.55,284.76 -88.84,0 -166.42,-16.89 -232.43,-50.5 -66.16,-33.63 -147.71,-97.65 -244.59,-192.28l0 570.72c0,135.08 21.45,228.17 64.48,279.27 42.91,51.41 126.56,79.86 250.7,85.18l0 85.19 -1104.94 0 0 -97.35c97.35,-16.28 159.42,-38.64 186.19,-66.94 27.07,-28.44 40.76,-84.42 40.76,-167.92l0 -2027.34c0,-83.97 -14.29,-141.32 -42.59,-172.2 -28.44,-31.18 -87.01,-53.53 -175.84,-66.93l0 -97.35 772.72 0 0 279.26c62.06,-115.9 132.79,-199.57 212.35,-250.68 79.86,-51.11 179.04,-76.67 297.53,-76.67 223.9,0 405.37,87.61 544.55,262.85 139.04,175.23 208.7,403.25 208.7,683.9l-0.02 0.04zm-599.32 56.58c0,-515.05 -102.53,-772.73 -307.26,-772.73 -92.18,0 -179.95,45.95 -263.46,137.51 -56.42,62.07 -84.56,110.59 -84.56,145.42l0 983.86c64.48,164.74 168.23,247.02 311.52,247.02 229.07,0 343.77,-247.02 343.77,-741.08zm0 0z"/>
      </g>
     </g>
    </g>
    <g>
     <g>
      <g>
       <path class="fil0" d="M8333.54 9898.12c-132.34,188.61 -255.86,320.03 -370.56,394.26 -114.86,74.23 -254.35,111.34 -418.62,111.34 -251.13,0 -452.99,-89.59 -605.39,-268.92 -152.57,-179.65 -228.78,-416.49 -228.78,-710.67 0,-296.47 77.43,-535.74 232.43,-717.98 155.3,-182.07 359.89,-273.19 613.91,-273.19 231.97,0 414.05,80.92 546.38,242.76 118.36,148.47 188.32,375.12 209.91,679.64l-1019.75 0c13.39,251.14 55.07,434.74 125.34,550.64 81.07,137.52 199.86,206.27 356.55,206.27 86.4,0 163.82,-20.09 232.42,-60.24 68.91,-40.45 145.12,-110.74 228.78,-210.51l97.36 56.6zm-518.41 -692.43l0 -60.84c-8.21,-202.31 -20.38,-334.65 -36.5,-396.69 -32.1,-126.55 -106.17,-189.84 -222.09,-189.84 -100.22,0 -171.27,47.31 -212.94,141.76 -41.84,94.16 -65.41,262.69 -70.56,505.61l542.12 0 -0.03 0zm0 0z"/>
      </g>
     </g>
    </g>
    <g>
     <g>
      <g>
       <path class="fil0" d="M10162.8 8748.15c0,78.34 -23.73,143.28 -71.19,194.7 -47.15,51.11 -108.3,76.66 -183.75,76.66 -94.61,0 -175.53,-48.36 -242.76,-145.41 -43.51,-62.06 -81.22,-93.09 -113.19,-93.09 -67.84,0 -125.95,37.73 -174.62,113.19 -48.37,75.45 -72.41,165.95 -72.41,271.37l0 764.81c0,126.55 17.95,209.61 54.16,248.86 36.5,38.93 116.83,62.51 240.94,70.57l0 97.34 -1076.34 0 0 -97.34c88.82,-16.13 147.39,-39.7 175.84,-70.57 28.29,-31.18 42.59,-88.54 42.59,-172.19l0 -1189.51c0,-81.08 -14.89,-138.42 -44.43,-172.2 -29.65,-33.61 -87.61,-55.97 -174.01,-66.93l0 -97.36 764.81 0 0 332.23c94.47,-135.08 184.06,-232.13 268.94,-291.45 85.18,-59.18 177.67,-88.84 277.45,-88.84 94.46,0 172.8,29.66 234.87,88.84 62.05,59.32 93.08,134.76 93.08,226.34l0.02 -0.02zm0 0z"/>
      </g>
     </g>
    </g>
    <g>
     <g>
      <g>
       <path class="fil0" d="M12178.25 10173.12c-142.84,153.78 -293.88,230.6 -453.3,230.6 -99.78,0 -174.62,-21.58 -224.51,-64.48 -49.89,-43.36 -85.64,-116.36 -107.08,-219.04 -208.09,189.07 -422.74,283.52 -643.73,283.52 -129.46,0 -236.09,-40.45 -320.04,-121.07 -83.67,-81.07 -125.34,-183.74 -125.34,-307.87 0,-172.81 90.35,-319.74 271.37,-441.12 129.29,-86.42 401.88,-193.04 817.75,-320.04l0 -295.1c0,-124.13 -27.08,-214.48 -80.93,-271.37 -53.99,-56.74 -140.4,-85.18 -259.19,-85.18 -73,0 -133.86,14.29 -182.54,42.58 -48.36,28.45 -72.41,64.35 -72.41,107.71 0,24.03 16.13,53.53 48.68,88.82 48.22,59.33 72.41,117.28 72.41,174.02 0,70.28 -25.56,127.02 -76.67,170.36 -51.11,43.05 -117.28,64.5 -198.36,64.5 -83.64,0 -148.3,-23.43 -194.09,-70.57 -45.94,-47.46 -68.75,-112.87 -68.75,-196.53 0,-151.19 69.97,-273.96 209.91,-368.11 140.24,-94.45 325.2,-141.76 554.9,-141.76 248.24,0 443.71,49.29 586.55,147.85 143.12,98.27 214.78,233.65 214.78,406.45l0 1056.26c0,67.38 28.29,101 85.18,101 18.56,0 33.46,-5.17 44.43,-15.82l40.16 -40.77 60.84 85.19 -0.01 -0.03zm-789.17 -230.61l0 -587.15c-329.47,91.73 -494.05,254.94 -494.05,489.8 0,81.22 18.86,146.63 56.59,196.53 38.03,49.89 88.22,74.84 150.29,74.84 91.57,0 187.39,-57.96 287.18,-174.02zm0 0z"/>
      </g>
     </g>
    </g>
    <g>
     <g>
      <g>
       <path class="fil3" d="M2201.39 12115.54l-602.96 0 -129.6 289.01 -119.26 0 494.67 -1081.81 112.55 0 494.68 1081.81 -120.48 0 -129.6 -289.01zm-41.98 -92.48l-259.81 -581.07 -259.2 581.07 519.01 0zm0 0z"/>
      </g>
     </g>
    </g>
    <g>
     <g>
      <g>
       <path class="fil3" d="M3312.08 11846.6c70.89,15.52 125.65,46.1 164.29,91.87 38.5,45.93 57.81,104.96 57.81,177.06 0,92.94 -34.39,164.28 -102.83,214.17 -68.17,49.9 -169.45,74.84 -303.62,74.84l-497.1 0 0 -1081.82 466.67 0c120.47,0 213.72,24.33 279.89,73 66.47,48.36 99.78,116.67 99.78,205.04 0,60.09 -14.61,111.05 -43.81,152.73 -29.19,41.38 -69.66,72.4 -121.08,93.09l0.01 0.02zm-567.06 -429.56l0 392.45 344.38 0c87.61,0 155.15,-16.58 202.61,-49.9 47.46,-33.62 71.19,-82.29 71.19,-146.03 0,-64.04 -23.72,-112.72 -71.19,-146.03 -47.45,-33.62 -115,-50.5 -202.61,-50.5l-344.38 0zm381.49 893.2c96.9,0 169.91,-16.42 219.05,-49.28 49.44,-32.87 74.23,-84.27 74.23,-154.55 0,-135.07 -97.83,-202.61 -293.28,-202.61l-381.49 0 0 406.43 381.49 0zm0 0z"/>
      </g>
     </g>
    </g>
    <g>
     <g>
      <g>
       <path class="fil3" d="M4268.22 12413.68c-107.09,0 -204.29,-23.89 -291.46,-71.81 -87.31,-47.76 -155.45,-113.31 -204.42,-196.52 -48.68,-83.51 -73.02,-177.37 -73.02,-281.7 0,-104.21 24.33,-197.91 73.02,-281.1 48.97,-83.53 117.12,-149.23 204.42,-197.14 87.17,-47.77 184.37,-71.78 291.46,-71.78 107.08,0 203.52,23.73 289.61,71.19 85.96,47.15 153.65,112.56 203.23,196.52 49.44,83.97 74.22,178.13 74.22,282.33 0,104.35 -24.79,198.35 -74.22,282.31 -49.58,83.97 -117.28,149.68 -203.23,197.13 -86.09,47.15 -182.53,70.59 -289.61,70.59l0 -0.02zm0 -101.62c85.48,0 162.76,-19.17 231.83,-57.8 68.9,-38.94 122.9,-92.64 161.84,-161.24 39.25,-68.45 59.02,-144.96 59.02,-229.39 0,-84.28 -19.77,-160.78 -59.02,-229.39 -38.94,-68.44 -92.94,-121.99 -161.84,-160.62 -69.06,-38.94 -146.34,-58.42 -231.83,-58.42 -85.65,0 -163.38,19.47 -233.04,58.42 -69.35,38.63 -123.96,92.18 -163.67,160.62 -39.85,68.61 -59.64,145.11 -59.64,229.39 0,84.42 19.78,160.94 59.64,229.39 39.69,68.6 94.3,122.29 163.67,161.24 69.66,38.63 147.39,57.8 233.04,57.8zm0 0z"/>
      </g>
     </g>
    </g>
    <g>
     <g>
      <g>
       <path class="fil3" d="M5853.37 11863.64l109.51 0 0 412.53c-50.35,44.26 -110.13,78.34 -179.48,102.23 -69.07,23.57 -141.62,35.29 -217.83,35.29 -108,0 -205.35,-23.44 -292.05,-70.59 -86.41,-47.45 -154.39,-113.17 -203.84,-197.13 -49.58,-83.97 -74.22,-177.97 -74.22,-282.32 0,-104.2 24.64,-198.36 74.22,-282.32 49.45,-83.96 117.43,-149.37 203.84,-196.53 86.7,-47.45 184.66,-71.19 293.87,-71.19 82.31,0 157.9,13.24 226.96,39.55 68.9,26.01 127.16,64.8 174.62,116.22l-71.2 73.01c-85.19,-84.74 -193.95,-127.17 -326.13,-127.17 -87.31,0 -166.1,19.47 -236.68,58.42 -70.56,38.63 -126.26,92.18 -166.71,160.62 -40.16,68.61 -60.23,145.11 -60.23,229.39 0,84.42 20.08,160.63 60.23,228.77 40.46,68.17 95.68,122 165.5,161.25 70.13,38.93 149.07,58.41 236.68,58.41 111.05,0 205.36,-27.98 282.94,-83.97l0 -364.45zm0 0z"/>
      </g>
     </g>
    </g>
    <g>
     <g>
      <g>
       <path class="fil3" d="M6964.18 12115.54l-602.97 0 -129.59 289.01 -119.26 0 494.68 -1081.81 112.55 0 494.67 1081.81 -120.47 0 -129.6 -289.01zm-41.98 -92.48l-259.8 -581.07 -259.2 581.07 519 0zm0 0z"/>
      </g>
     </g>
    </g>
    <g>
     <g>
      <g>
       <path class="fil3" d="M7393.43 11322.74l439.91 0c114.4,0 215.39,22.97 303.01,68.74 87.61,45.94 155.45,109.83 203.82,191.66 48.68,81.98 73.02,175.53 73.02,280.48 0,105.11 -24.33,198.65 -73.02,280.48 -48.36,81.98 -116.21,145.87 -203.82,191.65 -87.62,45.95 -188.62,68.76 -303.01,68.76l-439.91 0 0 -1081.82 0 0.03zm433.83 982.63c94.92,0 177.81,-18.55 248.86,-55.97 70.87,-37.73 126.1,-89.75 165.49,-156.37 39.25,-66.48 59.01,-142.99 59.01,-229.39 0,-86.41 -19.77,-162.75 -59.01,-229.39 -39.39,-66.47 -94.61,-118.34 -165.49,-155.76 -71.05,-37.73 -153.94,-56.59 -248.86,-56.59l-319.44 0 0 883.46 319.44 0zm0 0z"/>
      </g>
     </g>
    </g>
    <g>
     <g>
      <g>
       <path class="fil3" d="M9142.25 12413.68c-107.08,0 -204.29,-23.89 -291.45,-71.81 -87.31,-47.76 -155.45,-113.31 -204.44,-196.52 -48.67,-83.51 -72.99,-177.37 -72.99,-281.7 0,-104.21 24.33,-197.91 72.99,-281.1 48.99,-83.53 117.13,-149.23 204.44,-197.14 87.17,-47.77 184.37,-71.78 291.45,-71.78 107.09,0 203.53,23.73 289.62,71.19 85.96,47.15 153.62,112.56 203.23,196.52 49.43,83.97 74.22,178.13 74.22,282.33 0,104.35 -24.8,198.35 -74.22,282.31 -49.6,83.97 -117.28,149.68 -203.23,197.13 -86.09,47.15 -182.53,70.59 -289.62,70.59l0 -0.02zm0 -101.62c85.49,0 162.76,-19.17 231.83,-57.8 68.9,-38.94 122.9,-92.64 161.84,-161.24 39.24,-68.45 59.01,-144.96 59.01,-229.39 0,-84.28 -19.77,-160.78 -59.01,-229.39 -38.94,-68.44 -92.94,-121.99 -161.84,-160.62 -69.07,-38.94 -146.34,-58.42 -231.83,-58.42 -85.64,0 -163.37,19.47 -233.04,58.42 -69.36,38.63 -123.97,92.18 -163.68,160.62 -39.84,68.61 -59.63,145.11 -59.63,229.39 0,84.42 19.78,160.94 59.63,229.39 39.7,68.6 94.31,122.29 163.68,161.24 69.66,38.63 147.39,57.8 233.04,57.8zm0 0z"/>
      </g>
     </g>
    </g>
    <g>
     <g>
      <g>
       <path class="fil3" d="M10263.76 12413.68c-80.31,0 -157.44,-12.79 -231.21,-38.34 -73.93,-25.86 -130.82,-59.94 -170.98,-102.23l45.03 -88.22c39.25,39.39 91.42,71.19 156.37,95.52 64.8,24.03 131.72,35.9 200.79,35.9 96.89,0 169.45,-17.64 217.82,-52.93 48.23,-35.6 72.42,-81.84 72.42,-138.74 0,-42.89 -13.24,-77.27 -39.55,-102.83 -26.02,-25.85 -58.11,-45.78 -96.14,-59.63 -38.18,-14.14 -91.27,-29.51 -159.41,-46.23 -81.54,-20.23 -146.49,-39.85 -194.7,-59.02 -48.37,-19.01 -89.76,-48.08 -124.13,-87 -34.53,-39.25 -51.71,-92.63 -51.71,-160.03 0,-54.3 14.29,-103.75 43.19,-148.46 28.75,-45.03 73.02,-80.93 132.65,-107.7 59.63,-26.76 133.86,-40.16 222.68,-40.16 61.6,0 121.99,8.52 181.32,25.56 59.18,17.03 110.43,40.47 153.94,69.97l-38.33 91.26c-45.49,-29.97 -94.01,-52.32 -145.42,-66.92 -51.56,-14.92 -102.07,-22.52 -151.51,-22.52 -94.92,0 -166.41,18.25 -214.16,54.76 -47.92,36.51 -71.8,83.64 -71.8,141.15 0,43.52 13.07,78.34 39.55,104.66 26.31,26.47 59.17,46.55 98.57,60.23 39.69,13.84 93.08,29.07 160.02,45.65 79.4,19.47 143.58,38.79 192.27,57.8 48.97,19.17 90.66,48.08 124.73,87 34.08,38.65 51.11,90.66 51.11,156.38 0,54.76 -14.89,104.66 -44.42,149.68 -29.2,44.72 -74.22,80.16 -135.08,106.48 -60.84,26.01 -135.52,38.94 -223.9,38.94l0.01 -0.01zm0 0z"/>
      </g>
     </g>
    </g>
   </g>
  </g>
 </g>
</svg>
