<?xml version="1.0" encoding="UTF-8"?>
<!DOCTYPE svg PUBLIC "-//W3C//DTD SVG 1.1//EN" "http://www.w3.org/Graphics/SVG/1.1/DTD/svg11.dtd">
<!-- Creator: CorelDRAW -->
<svg xmlns="http://www.w3.org/2000/svg" xml:space="preserve" width="58.4536mm" height="119.191mm" version="1.1" style="shape-rendering:geometricPrecision; text-rendering:geometricPrecision; image-rendering:optimizeQuality; fill-rule:evenodd; clip-rule:evenodd"
viewBox="0 0 13945.19 28435.13"
 xmlns:xlink="http://www.w3.org/1999/xlink"
 xmlns:xodm="http://www.corel.com/coreldraw/odm/2003"
 zoomAndPan="magnify">
 <defs>
  <style type="text/css">
   <![CDATA[
    .fil1 {fill:none;fill-rule:nonzero}
    .fil0 {fill:#002E1F;fill-rule:nonzero}
    .fil2 {fill:#E58E52;fill-rule:nonzero}
   ]]>
  </style>
    <clipPath id="id0" style="clip-rule:nonzero">
     <path d="M-0 0l13945.19 0 0 28435.13 -13945.19 0 0 -28435.13zm0 0z"/>
    </clipPath>
 </defs>
 <g id="Layer_x0020_1">
  <metadata id="CorelCorpID_0Corel-Layer"/>
  <g id="_1401084194496">
   <g>
   </g>
   <g style="clip-path:url(#id0)">
    <g>
     <polygon class="fil0" points="-0,0 13945.19,0 13945.19,28380.57 13907.5,28380.57 6972.6,23966.36 37.69,28380.57 -0,28380.57 "/>
    </g>
   </g>
   <path class="fil1" d="M-0 0l13945.19 0 0 28435.13 -13945.19 0 0 -28435.13zm0 0z"/>
   <g>
    <g>
     <g>
      <path class="fil2" d="M10736.52 17318.08c0,1003.04 -366.23,1817.03 -1098.04,2442.01 -731.17,624.31 -1689.5,936.29 -2874.66,936.29 -650.6,0 -1344.62,-128.21 -2081.68,-383.98 -330.73,-106.85 -549.35,-160.44 -656.21,-160.44 -128.21,0 -229.79,40.44 -305.08,120.98 -74.62,79.9 -133.48,220.91 -176.21,423.44l-464.21 0 0 -3955.59 464.21 0c139.37,576.95 275.5,1025.7 408.95,1346.58 133.15,320.21 317.25,629.56 552.31,928.41 608.21,767.98 1377.16,1151.95 2306.58,1151.95 618.7,0 1109.87,-162.39 1472.83,-487.87 363.6,-325.15 545.73,-765.66 545.73,-1321.6 0,-426.73 -123.27,-773.56 -369.52,-1040.18 -245.58,-267.29 -720.64,-566.12 -1425.5,-896.85l-1073.06 -512.85c-1377.5,-661.79 -2231.26,-1414.33 -2561.68,-2257.91 -117.69,-331.4 -176.21,-683.81 -176.21,-1057.29 0,-1014.2 312,-1812.43 936.31,-2394.66 624.95,-581.89 1482.04,-873.18 2570.86,-873.18 587.17,0 1211.81,122.96 1873.91,368.21 319.9,107.19 544.44,160.44 673.31,160.44 148.91,0 258.06,-37.15 327.44,-111.77 69.04,-74.31 130.52,-218.62 184.1,-432.64l481.29 0 0 3475.61 -448.41 0c-160.44,-523.37 -318.25,-928.75 -473.42,-1216.39 -154.52,-288.33 -370.5,-571.4 -648.31,-849.52 -576.95,-597.69 -1233.5,-896.85 -1969.91,-896.85 -544.41,0 -974.43,144.33 -1290.04,432.64 -314.96,288.64 -472.1,678.23 -472.1,1169.06 0,394.52 112.1,715.06 336.64,961.29 224.23,245.58 662.12,528.31 1313.73,848.18l2353.88 1169.06c523.4,256.1 947.48,656.87 1272.95,1201.96 326.12,544.41 489.18,1115.79 489.18,1713.47zm0 0z"/>
     </g>
    </g>
   </g>
  </g>
 </g>
</svg>
