<?xml version="1.0" encoding="UTF-8"?>
<!DOCTYPE svg PUBLIC "-//W3C//DTD SVG 1.1//EN" "http://www.w3.org/Graphics/SVG/1.1/DTD/svg11.dtd">
<!-- Creator: CorelDRAW -->
<svg xmlns="http://www.w3.org/2000/svg" xml:space="preserve" width="128.944mm" height="56.5571mm" version="1.1" style="shape-rendering:geometricPrecision; text-rendering:geometricPrecision; image-rendering:optimizeQuality; fill-rule:evenodd; clip-rule:evenodd"
viewBox="0 0 10246.49 4494.31"
 xmlns:xlink="http://www.w3.org/1999/xlink"
 xmlns:xodm="http://www.corel.com/coreldraw/odm/2003"
 zoomAndPan="magnify">
 <defs>
  <style type="text/css">
   <![CDATA[
    .fil0 {fill:#EAD5AC;fill-rule:nonzero}
   ]]>
  </style>
 </defs>
 <g id="Layer_x0020_1">
  <metadata id="CorelCorpID_0Corel-Layer"/>
  <g id="_1401345104576">
   <g>
    <g>
     <g>
      <path class="fil0" d="M1628.13 1702.59c0,213.54 -77.86,386.67 -233.47,519.49 -155.71,132.94 -359.51,199.3 -611.47,199.3 -138.42,0 -285.92,-27.38 -442.41,-81.9 -70.41,-22.78 -116.96,-34.17 -139.73,-34.17 -27.15,0 -48.84,8.65 -64.83,25.84 -15.77,16.97 -28.25,46.98 -37.23,90.23l-99 0 0 -841.44 99 0c29.46,122.65 58.37,218.14 86.73,286.47 28.25,68.11 67.46,133.81 117.39,197.1 129.33,163.6 292.82,245.29 490.59,245.29 131.63,0 236.09,-34.6 313.18,-103.81 77.1,-69.21 115.65,-162.72 115.65,-280.77 0,-90.78 -26.18,-164.48 -78.41,-221.21 -52.02,-56.94 -152.87,-120.56 -302.67,-190.98l-228.21 -109.07c-292.93,-140.72 -474.6,-300.7 -544.91,-480.07 -25.18,-70.3 -37.67,-145.21 -37.67,-224.71 0,-215.72 66.36,-385.56 199.3,-509.42 132.83,-123.74 315.05,-185.72 546.66,-185.72 124.62,0 257.34,26.17 398.16,78.4 68.33,22.78 116.08,34.17 143.24,34.17 31.75,0 54.97,-7.88 69.64,-23.66 14.9,-15.99 28.04,-46.65 39.42,-91.98l102.06 0 0 738.94 -95.49 0c-33.95,-111.26 -67.35,-197.55 -100.31,-258.87 -33.07,-61.32 -79.06,-121.45 -137.98,-180.46 -122.65,-127.02 -262.27,-190.54 -418.75,-190.54 -115.97,0 -207.4,30.66 -274.2,91.98 -66.91,61.11 -100.31,143.9 -100.31,248.36 0,84.11 23.76,152.33 71.4,204.56 47.52,52.02 140.61,112.13 279.02,180.46l500.66 248.36c111.26,54.65 201.49,139.95 270.7,255.81 69.43,115.64 104.25,236.97 104.25,364zm0 0z"/>
     </g>
    </g>
   </g>
   <g>
    <g>
     <g>
      <path class="fil0" d="M3602.92 2288.67l-211.13 23.65c-188.35,20.48 -338.16,49.94 -449.41,88.48l0 -221.21c-99.87,86.19 -185.07,145.21 -255.37,176.96 -70.41,31.76 -150.02,47.75 -238.73,47.75 -140.82,0 -251.42,-41.94 -332.02,-125.71 -80.59,-84.1 -120.89,-201.17 -120.89,-351.3l0 -858.09c0,-70.3 -10.3,-117.93 -30.67,-142.79 -20.48,-25.08 -65.92,-44.46 -136.23,-58.26l0 -81.48 640.39 0 0 1154.19c0,86.51 14.13,148.38 42.49,185.73 28.25,37.45 77.64,56.06 148.05,56.06 86.4,0 179.59,-49.94 279.46,-149.8l0 -963.66c0,-72.71 -14.24,-122.65 -42.49,-149.8 -28.36,-27.16 -84.54,-44.25 -168.64,-51.25l0 -81.48 684.63 0 0 1226.03c0,72.71 12.92,123.31 38.99,151.56 26.28,28.36 76.76,43.7 151.56,45.99l0 78.41zm0 0z"/>
     </g>
    </g>
   </g>
   <g>
    <g>
     <g>
      <path class="fil0" d="M5451.99 1542.72c0,252.08 -61.32,458.06 -183.97,618.05 -122.65,160.1 -279.35,240.04 -470,240.04 -74.79,0 -140.06,-14.24 -195.79,-42.49 -55.52,-28.25 -124.18,-82.13 -205.87,-161.63l0 480.07c0,113.56 18.07,191.86 54.31,234.78 36.47,43.15 106.87,67.13 211.12,71.84l0 71.4 -929.48 0 0 -81.91c81.69,-13.46 133.81,-32.19 156.37,-56.06 22.77,-23.98 34.16,-71.18 34.16,-141.48l0 -1706.1c0,-70.3 -12.04,-118.48 -35.92,-144.55 -23.65,-26.28 -73.04,-45.11 -148.05,-56.5l0 -81.48 650.47 0 0 234.78c52.23,-97.46 111.81,-167.87 178.71,-211.12 67.13,-43.15 150.68,-64.83 250.55,-64.83 188.35,0 340.89,73.91 457.73,221.64 117.06,147.5 175.65,339.36 175.65,575.56zm-504.17 47.74c0,-433.64 -86.29,-650.47 -258.87,-650.47 -77.09,0 -150.9,38.55 -221.2,115.65 -47.64,52.34 -71.4,93.19 -71.4,122.65l0 827.42c54.31,138.42 141.7,207.63 262.38,207.63 192.73,0 289.09,-207.63 289.09,-622.87zm0 0z"/>
     </g>
    </g>
   </g>
   <g>
    <g>
     <g>
      <path class="fil0" d="M7011.52 1978.55c-111.26,158.89 -215.29,269.6 -311.87,332.02 -96.37,62.42 -213.76,93.74 -352.17,93.74 -211.13,0 -380.97,-75.45 -509.42,-226.46 -128.23,-150.9 -192.3,-350.2 -192.3,-597.9 0,-249.67 65.26,-451.16 195.8,-604.47 130.53,-153.3 302.45,-229.96 515.99,-229.96 195.36,0 348.66,68.22 459.92,204.55 99.87,125.05 158.79,315.71 176.96,572.06l-858.09 0c11.39,211.13 46.54,365.64 105.57,463.43 68,115.64 167.87,173.46 299.61,173.46 72.71,0 137.98,-16.86 195.79,-50.81 58.04,-34.17 122.32,-93.3 192.73,-177.41l81.47 47.75zm-435.83 -582.57l0 -50.81c-6.79,-170.17 -16.97,-281.43 -30.66,-333.78 -27.16,-106.87 -89.68,-160.31 -187.47,-160.31 -83.88,0 -143.46,39.86 -178.72,119.58 -35.04,79.5 -54.97,221.2 -59.57,425.32l456.41 0zm0 0z"/>
     </g>
    </g>
   </g>
   <g>
    <g>
     <g>
      <path class="fil0" d="M8550.6 1011.39c0,65.71 -19.94,120.24 -59.57,163.39 -39.75,43.25 -91.33,64.83 -154.62,64.83 -79.72,0 -147.94,-40.84 -204.56,-122.65 -36.24,-52.24 -68.11,-78.41 -95.49,-78.41 -56.72,0 -105.46,31.87 -146.3,95.49 -40.96,63.41 -61.32,139.52 -61.32,228.22l0 643.45c0,106.88 15.33,176.85 45.99,209.81 30.67,32.75 98.23,52.45 202.8,59.14l0 81.9 -906.27 0 0 -81.9c75.01,-13.36 124.39,-33.07 148.05,-59.14 23.87,-26.28 35.92,-74.57 35.92,-144.98l0 -1001.32c0,-68 -12.6,-116.19 -37.67,-144.55 -24.86,-28.58 -73.58,-47.42 -146.29,-56.5l0 -81.48 643.89 0 0 279.02c79.39,-113.23 154.85,-194.92 226.46,-244.86 71.51,-50.15 149.37,-75.33 233.47,-75.33 79.39,0 145.1,25.18 197.11,75.33 52.23,49.94 78.41,113.45 78.41,190.54zm0 0z"/>
     </g>
    </g>
   </g>
   <g>
    <g>
     <g>
      <path class="fil0" d="M10246.49 2210.26c-120.34,129.43 -247.48,194.05 -381.51,194.05 -83.88,0 -146.74,-18.18 -188.79,-54.31 -42.04,-36.47 -72.16,-97.79 -90.23,-183.97 -174.99,158.89 -355.45,238.28 -541.39,238.28 -109.29,0 -199.08,-34.06 -269.39,-102.06 -70.41,-68.33 -105.56,-154.61 -105.56,-258.87 0,-145.43 76,-269.17 228.21,-371.44 108.85,-72.72 338.27,-162.29 688.13,-268.95l0 -248.8c0,-104.25 -22.77,-180.14 -68.33,-227.77 -45.33,-47.85 -117.82,-71.84 -217.69,-71.84 -61.32,0 -112.47,12.05 -153.31,35.92 -40.96,23.98 -61.32,54.09 -61.32,90.23 0,20.48 13.58,45.45 40.74,74.9 40.84,49.93 61.32,98.77 61.32,146.29 0,59.03 -21.69,106.77 -64.83,143.24 -42.93,36.24 -98.56,54.31 -166.89,54.31 -70.41,0 -124.83,-19.82 -163.38,-59.57 -38.55,-39.64 -57.82,-94.72 -57.82,-165.13 0,-127.03 58.92,-230.19 176.96,-309.68 118.27,-79.72 273.88,-119.58 466.94,-119.58 208.71,0 373.3,41.5 493.65,124.39 120.23,83.01 180.46,197.11 180.46,342.53l0 888.75c0,56.72 23.76,84.97 71.39,84.97 15.99,0 28.58,-4.49 37.67,-13.58l34.16 -34.16 50.81 71.84zm-664.04 -194.05l0 -494.09c-276.83,77.09 -415.24,214.52 -415.24,412.18 0,68.12 15.77,123.08 47.31,165.14 31.75,42.05 73.81,63.08 126.15,63.08 77.09,0 157.69,-48.74 241.79,-146.3zm0 0z"/>
     </g>
    </g>
   </g>
   <g>
    <g>
     <g>
      <path class="fil0" d="M1787.83 4253.39l-489.27 0 -101.62 230.4 -135.35 0 417 -920.72 130.09 0 418.31 920.72 -137.98 0 -101.18 -230.4zm-45.99 -105.12l-198.86 -451.16 -198.42 451.16 397.29 0zm0 0z"/>
     </g>
    </g>
   </g>
   <g>
    <g>
     <g>
      <path class="fil0" d="M2783.21 4006.35c53.44,14.89 95.49,41.94 126.15,81.03 30.67,38.87 45.99,88.05 45.99,147.61 0,80.05 -30.12,141.48 -90.23,184.41 -59.9,42.93 -147.4,64.39 -262.38,64.39l-439.34 0 0 -920.72 413.06 0c105.34,0 186.7,21.02 243.97,63.07 57.49,42.05 86.29,100.31 86.29,174.78 0,48.51 -11.28,90.23 -33.72,125.27 -22.23,35.04 -52.12,61.77 -89.8,80.16zm-487.95 -336.84l0 294.79 269.38 0c67.46,0 119.36,-12.37 155.94,-37.23 36.47,-25.08 54.75,-61.87 54.75,-110.38 0,-48.18 -18.28,-84.65 -54.75,-109.5 -36.58,-25.08 -88.48,-37.67 -155.94,-37.67l-269.38 0zm302.24 707.85c74.68,0 130.97,-12.27 168.63,-36.8 37.67,-24.52 56.51,-63.18 56.51,-116.07 0,-102.49 -75.12,-153.75 -225.14,-153.75l-302.24 0 0 306.62 302.24 0zm0 0z"/>
     </g>
    </g>
   </g>
   <g>
    <g>
     <g>
      <path class="fil0" d="M3574.5 4494.31c-92.86,0 -176.75,-20.26 -251.43,-60.89 -74.47,-40.84 -133.05,-97.24 -175.65,-169.08 -42.38,-72.05 -63.51,-152.43 -63.51,-240.91 0,-88.48 21.13,-168.63 63.51,-240.47 42.6,-72.06 101.18,-128.46 175.65,-169.08 74.68,-40.84 158.56,-61.32 251.43,-61.32 92.2,0 175.65,20.48 250.11,61.32 74.47,40.62 132.72,96.69 174.78,168.2 42.04,71.62 63.07,152 63.07,241.35 0,89.36 -21.03,169.85 -63.07,241.35 -42.05,71.62 -100.31,127.8 -174.78,168.64 -74.46,40.63 -157.9,60.89 -250.11,60.89zm0 -116.95c67.45,0 128.12,-15.34 182.21,-45.99 53.99,-30.67 96.48,-72.93 127.47,-127.02 31.21,-53.99 46.87,-114.33 46.87,-180.91 0,-66.58 -15.66,-126.8 -46.87,-180.9 -30.99,-53.99 -73.48,-96.37 -127.47,-127.02 -54.09,-30.67 -114.76,-45.99 -182.21,-45.99 -67.46,0 -128.67,15.33 -183.53,45.99 -54.65,30.66 -97.57,73.04 -128.78,127.02 -31.32,54.1 -46.87,114.33 -46.87,180.9 0,66.58 15.55,126.92 46.87,180.91 31.21,54.09 74.13,96.36 128.78,127.02 54.86,30.66 116.07,45.99 183.53,45.99zm0 0z"/>
     </g>
    </g>
   </g>
   <g>
    <g>
     <g>
      <path class="fil0" d="M4901.56 4018.18l126.15 0 0 359.18c-45.56,37.67 -98.77,66.58 -159.44,86.73 -60.45,20.14 -123.52,30.22 -189.23,30.22 -92.85,0 -176.74,-20.26 -251.42,-60.89 -74.47,-40.84 -133.06,-97.02 -175.65,-168.64 -42.38,-71.5 -63.52,-151.99 -63.52,-241.35 0,-89.35 21.14,-169.95 63.52,-241.79 42.59,-72.05 101.41,-128.34 176.52,-168.63 75.01,-40.3 159.44,-60.45 253.18,-60.45 73.81,0 140.72,12.15 200.62,36.36 60.12,23.98 111.26,59.13 153.3,105.56l-81.47 81.48c-73.59,-70.96 -162.73,-106.44 -267.19,-106.44 -70.09,0 -133.06,15.23 -188.79,45.56 -55.51,30.11 -99.21,72.16 -130.97,126.15 -31.54,54.09 -47.31,114.76 -47.31,182.21 0,66.58 15.77,126.92 47.31,180.91 31.75,54.09 75.45,96.36 130.97,127.02 55.74,30.66 118.27,45.99 187.47,45.99 82.57,0 154.62,-19.72 215.95,-59.14l0 -300.04zm0 0z"/>
     </g>
    </g>
   </g>
   <g>
    <g>
     <g>
      <path class="fil0" d="M5865.44 4253.39l-489.27 0 -101.62 230.4 -135.34 0 416.99 -920.72 130.1 0 418.31 920.72 -137.98 0 -101.18 -230.4zm-45.99 -105.12l-198.86 -451.16 -198.42 451.16 397.29 0zm0 0z"/>
     </g>
    </g>
   </g>
   <g>
    <g>
     <g>
      <path class="fil0" d="M6241.02 3563.07l388.09 0c97.46,0 183.97,19.27 259.3,57.82 75.34,38.54 133.71,92.75 175.21,162.51 41.72,69.87 62.63,149.8 62.63,240.03 0,90.23 -20.92,170.29 -62.63,240.04 -41.5,69.87 -99.87,123.96 -175.21,162.51 -75.33,38.55 -161.85,57.82 -259.3,57.82l-388.09 0 0 -920.72zm380.2 806.39c74.47,0 139.95,-14.45 196.68,-43.36 56.61,-28.91 100.31,-69.42 130.97,-121.76 30.67,-52.24 45.99,-112.58 45.99,-180.91 0,-68.33 -15.33,-128.56 -45.99,-180.9 -30.66,-52.23 -74.36,-92.86 -130.97,-121.77 -56.72,-28.91 -122.21,-43.36 -196.68,-43.36l-248.36 0 0 692.08 248.36 0zm0 0z"/>
     </g>
    </g>
   </g>
   <g>
    <g>
     <g>
      <path class="fil0" d="M7742.84 4494.31c-92.86,0 -176.74,-20.26 -251.43,-60.89 -74.46,-40.84 -133.05,-97.24 -175.64,-169.08 -42.38,-72.05 -63.52,-152.43 -63.52,-240.91 0,-88.48 21.14,-168.63 63.52,-240.47 42.59,-72.06 101.18,-128.46 175.64,-169.08 74.69,-40.84 158.56,-61.32 251.43,-61.32 92.2,0 175.65,20.48 250.12,61.32 74.46,40.62 132.71,96.69 174.77,168.2 42.05,71.62 63.08,152 63.08,241.35 0,89.36 -21.03,169.85 -63.08,241.35 -42.05,71.62 -100.31,127.8 -174.77,168.64 -74.47,40.63 -157.91,60.89 -250.12,60.89zm0 -116.95c67.46,0 128.12,-15.34 182.22,-45.99 53.98,-30.67 96.47,-72.93 127.46,-127.02 31.21,-53.99 46.87,-114.33 46.87,-180.91 0,-66.58 -15.66,-126.8 -46.87,-180.9 -30.99,-53.99 -73.48,-96.37 -127.46,-127.02 -54.1,-30.67 -114.76,-45.99 -182.22,-45.99 -67.46,0 -128.67,15.33 -183.53,45.99 -54.64,30.66 -97.57,73.04 -128.78,127.02 -31.32,54.1 -46.87,114.33 -46.87,180.9 0,66.58 15.55,126.92 46.87,180.91 31.21,54.09 74.14,96.36 128.78,127.02 54.86,30.66 116.07,45.99 183.53,45.99zm0 0z"/>
     </g>
    </g>
   </g>
   <g>
    <g>
     <g>
      <path class="fil0" d="M8700.21 4494.31c-69.21,0 -136.12,-10.62 -200.62,-31.98 -64.61,-21.57 -115.2,-49.5 -151.99,-83.66l48.62 -102.5c35.04,31.54 79.93,57.28 134.91,77.1 54.86,19.6 111.26,29.35 169.08,29.35 76.21,0 133.16,-12.81 170.83,-38.55 37.67,-25.95 56.51,-60.55 56.51,-103.81 0,-31.54 -10.4,-57.06 -31.1,-76.66 -20.48,-19.82 -45.88,-35.04 -76.21,-45.55 -30.11,-10.51 -72.71,-22.35 -127.9,-35.48 -69.21,-16.65 -125.17,-33.29 -167.77,-49.94 -42.7,-16.65 -79.17,-42.16 -109.5,-76.65 -30.12,-34.72 -45.12,-81.59 -45.12,-140.61 0,-49.06 12.82,-93.3 38.55,-132.72 25.95,-39.42 65.26,-70.96 117.83,-94.61 52.78,-23.66 118.26,-35.48 196.23,-35.48 54.31,0 107.75,7.01 160.32,21.03 52.78,14.01 98.12,34.16 135.78,60.44l-43.36 105.13c-38.87,-24.53 -80.16,-43.04 -123.96,-55.63 -43.8,-12.81 -86.73,-19.27 -128.78,-19.27 -74.47,0 -130.42,13.57 -167.76,40.73 -37.45,27.16 -56.07,62.2 -56.07,105.12 0,31.87 10.51,57.71 31.54,77.53 21.24,19.6 47.42,34.93 78.4,45.99 31.21,10.85 73.59,22.35 127.03,34.61 69.21,16.65 124.83,33.29 166.88,49.94 42.27,16.65 78.52,42.05 108.63,76.21 30.33,34.17 45.56,80.16 45.56,137.98 0,48.51 -13.14,92.75 -39.42,132.72 -26.28,39.75 -66.36,71.29 -120.02,94.61 -53.44,23.11 -119.14,34.61 -197.11,34.61zm0 0z"/>
     </g>
    </g>
   </g>
  </g>
 </g>
</svg>
